AllBirdsCombinations-Narrow.ufo
<glyph name="exclamation" format="2">
  <advance width="196.8"/>
  <unicode hex="0021"/>
  <outline>
    <contour>
      <point x="38.400001525878906" y="195.8333282470703" type="line"/>
      <point x="158.4000015258789" y="195.8333282470703" type="line"/>
      <point x="158.4000015258789" y="800" type="line"/>
      <point x="38.400001525878906" y="800" type="line"/>
    </contour>
    <contour>
      <point x="163.4" y="53.75" type="curve" smooth="yes"/>
      <point x="163.4" y="89.62448"/>
      <point x="134.27448" y="118.75"/>
      <point x="98.4" y="118.75" type="curve" smooth="yes"/>
      <point x="62.52552" y="118.75"/>
      <point x="33.4" y="89.62448"/>
      <point x="33.4" y="53.75" type="curve" smooth="yes"/>
      <point x="33.4" y="17.87552"/>
      <point x="62.52552" y="-11.25"/>
      <point x="98.4" y="-11.25" type="curve" smooth="yes"/>
      <point x="134.27448" y="-11.25"/>
      <point x="163.4" y="17.87552"/>
    </contour>
  </outline>
</glyph>
<glyph name="numbersign" format="2">
  <advance width="661.7313803794559"/>
  <unicode hex="0023"/>
  <outline>
    <contour>
      <point x="108.96757507324219" y="-5" type="line"/>
      <point x="137.15798088289176" y="-5.0"/>
      <point x="230.5273217149174" y="2.7131733100742963"/>
      <point x="259.6727184075751" y="146.8421334483464" type="curve"/>
      <point x="268.3999938964844" y="190" type="line"/>
      <point x="308.3999938964844" y="190" type="line"/>
      <point x="268.9675750732422" y="-5" type="line"/>
      <point x="297.15798088289176" y="-5.0"/>
      <point x="390.52731866719836" y="2.7131739263764985"/>
      <point x="419.6727192718428" y="146.84213327357642" type="curve"/>
      <point x="428.4845428466797" y="190.41809844970703" type="line"/>
      <point x="491.0715218869256" y="195.500646408061"/>
      <point x="549.9543046813762" y="247.13798533"/>
      <point x="562.6661086798446" y="310.0" type="curve"/>
      <point x="452.6661071777344" y="310" type="line"/>
      <point x="489.14981842041016" y="490.41809844970703" type="line"/>
      <point x="551.7367935865369" y="495.500646408061"/>
      <point x="610.6195763809875" y="547.1379853300001"/>
      <point x="623.3313803794559" y="610.0" type="curve"/>
      <point x="513.3313827514648" y="610" type="line"/>
      <point x="552.7638092041016" y="805" type="line"/>
      <point x="524.573403394452" y="805.0"/>
      <point x="431.2040640317182" y="797.2868256045881"/>
      <point x="402.05866044986396" y="653.1578668594323" type="curve"/>
      <point x="393.33138275146484" y="610" type="line"/>
      <point x="353.33138275146484" y="610" type="line"/>
      <point x="392.76380920410156" y="805" type="line"/>
      <point x="364.573403394452" y="805.0"/>
      <point x="271.20406704968286" y="797.2868249943026"/>
      <point x="242.0586595940339" y="653.1578670324959" type="curve"/>
      <point x="233.24683380126953" y="609.581901550293" type="line"/>
      <point x="170.6598584925304" y="604.499353591939"/>
      <point x="111.77707569807973" y="552.8620146699999"/>
      <point x="99.0652716996114" y="489.9999999999999" type="curve"/>
      <point x="209.06526947021484" y="490" type="line"/>
      <point x="172.58155822753906" y="309.58190155029297" type="line"/>
      <point x="109.99458679291902" y="304.499353591939"/>
      <point x="51.11180399846837" y="252.86201466999998"/>
      <point x="38.400000000000034" y="190.00000000000003" type="curve"/>
      <point x="148.39999389648438" y="190" type="line"/>
    </contour>
    <contour>
      <point x="332.6661071777344" y="310" type="line"/>
      <point x="292.6661071777344" y="310" type="line"/>
      <point x="329.06526947021484" y="490" type="line"/>
      <point x="369.06526947021484" y="490" type="line"/>
    </contour>
  </outline>
</glyph>
<glyph name="dollar" format="2">
  <advance width="356.8"/>
  <unicode hex="0024"/>
  <outline>
    <contour>
      <point x="38.40000113689169" y="490.59119965185926" type="line"/>
      <point x="38.4000028557494" y="355.4147280911477"/>
      <point x="121.09271397641564" y="340.0"/>
      <point x="158.4" y="340.0" type="curve"/>
      <point x="158.4000015258789" y="800" type="line"/>
      <point x="98.4000015258789" y="800" type="line"/>
      <point x="98.4000015258789" y="683.898796081543" type="line"/>
      <point x="40.072179648638226" y="650.1695154901284"/>
      <point x="38.39999979946563" y="595.7706653781113"/>
      <point x="38.40000038898722" y="549.4088005695095" type="curve"/>
    </contour>
    <contour>
      <point x="194.6500015258789" y="730.5911996518593" type="line"/>
      <point x="194.6500015258789" y="595.4147280911477"/>
      <point x="277.3427139764156" y="580.0"/>
      <point x="314.65" y="580.0" type="curve"/>
      <point x="314.6500015258789" y="700" type="line"/>
      <point x="254.6500015258789" y="700" type="line"/>
      <point x="254.6500015258789" y="800" type="line"/>
      <point x="194.6500015258789" y="800" type="line"/>
    </contour>
    <contour>
      <point x="198.4000015258789" y="0" type="line"/>
      <point x="258.4000015258789" y="0" type="line"/>
      <point x="258.4000015258789" y="116.10120391845703" type="line"/>
      <point x="316.7278221590941" y="149.83048666115653"/>
      <point x="318.3999997994656" y="204.2293346218888"/>
      <point x="318.4000003889872" y="250.5911994824081" type="curve"/>
      <point x="318.40000113689166" y="309.4088000246977" type="line"/>
      <point x="318.4000028557494" y="444.58527158540926"/>
      <point x="235.70728602358437" y="460.0"/>
      <point x="198.4" y="460.0" type="curve"/>
    </contour>
    <contour>
      <point x="98.4000015258789" y="0" type="line"/>
      <point x="158.4000015258789" y="0" type="line"/>
      <point x="158.4000015258789" y="69.40880002469774" type="line"/>
      <point x="158.4000015258789" y="204.5852715854093"/>
      <point x="75.70728602358436" y="220.0"/>
      <point x="38.4" y="220.0" type="curve"/>
      <point x="38.400001525878906" y="100" type="line"/>
      <point x="98.4000015258789" y="100" type="line"/>
    </contour>
  </outline>
</glyph>
<glyph name="ampersand" format="2">
  <advance width="476.8"/>
  <unicode hex="0026"/>
  <outline>
    <contour>
      <point x="38.40000123413849" y="550.5911996518593" type="line"/>
      <point x="38.40000252328179" y="415.4147280911477"/>
      <point x="121.09271397641564" y="400.0"/>
      <point x="158.4" y="400.0" type="curve"/>
      <point x="158.4000015258789" y="800" type="line"/>
      <point x="122.2790779510263" y="800.0"/>
      <point x="38.39999899338488" y="785.5512463057519"/>
      <point x="38.40000029174042" y="649.4087993199023" type="curve"/>
    </contour>
    <contour>
      <point x="190.9" y="800.0" type="line"/>
      <point x="190.9" y="733.7702"/>
      <point x="244.6702" y="680.0"/>
      <point x="310.9" y="680.0" type="curve"/>
      <point x="310.9" y="800.0" type="line"/>
    </contour>
    <contour>
      <point x="198.4000015258789" y="-5" type="line"/>
      <point x="234.52092510073152" y="-5.0"/>
      <point x="318.39999939223236" y="9.44875228465719"/>
      <point x="318.4000001761451" y="145.5911992705067" type="curve"/>
      <point x="318.4000015258789" y="380" type="line"/>
      <point x="384.6298" y="380.0"/>
      <point x="438.4" y="433.7702"/>
      <point x="438.4" y="500.0" type="curve"/>
      <point x="358.4000015258789" y="500.0" type="line"/>
      <point x="220.79505060954168" y="500.0"/>
      <point x="198.39999963697034" y="471.5973162392573"/>
      <point x="198.40000012124278" y="349.4087993199023" type="curve"/>
    </contour>
    <contour>
      <point x="38.400001242979116" y="145.59119965185928" type="line"/>
      <point x="38.40000249305744" y="10.414728091147737"/>
      <point x="121.09271397641564" y="-4.999999999999996"/>
      <point x="158.4" y="-5.0" type="curve"/>
      <point x="158.4000015258789" y="400" type="line"/>
      <point x="122.2790779510263" y="400.0"/>
      <point x="38.39999902388836" y="385.55124630575176"/>
      <point x="38.4000002828998" y="249.40879931990227" type="curve"/>
    </contour>
  </outline>
</glyph>
<glyph name="quotesingle" format="2">
  <advance width="196.8"/>
  <unicode hex="0027"/>
  <outline>
    <contour>
      <point x="38.400001525878906" y="700" type="line"/>
      <point x="74.52092510073152" y="700.0"/>
      <point x="158.39999798676973" y="714.4487522846572"/>
      <point x="158.40000058348082" y="850.5911992705066" type="curve"/>
      <point x="158.4000015258789" y="900" type="line"/>
      <point x="38.400001525878906" y="900" type="line"/>
    </contour>
  </outline>
</glyph>
<glyph name="parenleft" format="2">
  <advance width="196.8"/>
  <unicode hex="0028"/>
  <outline>
    <contour>
      <point x="38.40000146445987" y="50.591199651859284" type="line"/>
      <point x="38.40000173585845" y="-84.58527190885226"/>
      <point x="121.09271397641564" y="-100.0"/>
      <point x="158.4" y="-100.0" type="curve"/>
      <point x="158.4000015258789" y="900" type="line"/>
      <point x="122.2790779510263" y="900.0"/>
      <point x="38.39999978808102" y="885.5512463057519"/>
      <point x="38.400000061419036" y="749.4087993199023" type="curve"/>
    </contour>
  </outline>
</glyph>
<glyph name="parenright" format="2">
  <advance width="196.8"/>
  <unicode hex="0029"/>
  <outline>
    <contour>
      <point x="38.400001525878906" y="-100" type="line"/>
      <point x="74.52092510073152" y="-100.0"/>
      <point x="158.399999788081" y="-85.55124771534284"/>
      <point x="158.40000006141904" y="50.59119927050668" type="curve"/>
      <point x="158.40000146445988" y="749.4088000246978" type="line"/>
      <point x="158.40000173585847" y="884.5852715854094"/>
      <point x="75.70728602358436" y="900.0"/>
      <point x="38.4" y="900.0" type="curve"/>
    </contour>
  </outline>
</glyph>
<glyph name="slash" format="2">
  <advance width="396.53844694390415"/>
  <unicode hex="002F"/>
  <outline>
    <contour>
      <point x="38.400001525878906" y="-77.5372543334961" type="line"/>
      <point x="73.77468900576145" y="-84.84154112968533"/>
      <point x="158.84266574642413" y="-87.65311507828696"/>
      <point x="186.37306148077914" y="45.676713474834095" type="curve"/>
      <point x="358.1384506225586" y="877.5372543334961" type="line"/>
      <point x="322.7637630266047" y="884.8415405675513"/>
      <point x="237.69577991989922" y="887.6531119142305"/>
      <point x="210.1653849577983" y="754.3232832016517" type="curve"/>
    </contour>
  </outline>
</glyph>
<glyph name="two" format="2">
  <advance width="356.8"/>
  <unicode hex="0032"/>
  <outline>
    <contour>
      <point x="167.15" y="740.0" type="curve" smooth="yes"/>
      <point x="167.15" y="775.87448"/>
      <point x="138.02448" y="805.0"/>
      <point x="102.15" y="805.0" type="curve" smooth="yes"/>
      <point x="66.27552" y="805.0"/>
      <point x="37.15" y="775.87448"/>
      <point x="37.15" y="740.0" type="curve" smooth="yes"/>
      <point x="37.15" y="704.12552"/>
      <point x="66.27552" y="675.0"/>
      <point x="102.15" y="675.0" type="curve" smooth="yes"/>
      <point x="138.02448" y="675.0"/>
      <point x="167.15" y="704.12552"/>
    </contour>
    <contour>
      <point x="198.4000015258789" y="178.3333282470703" type="line"/>
      <point x="234.52092510073152" y="178.33332920309675"/>
      <point x="318.3999995834696" y="192.78208228465718"/>
      <point x="318.40000012072016" y="328.9245292705067" type="curve"/>
      <point x="318.4000014051587" y="654.4088000246977" type="line"/>
      <point x="318.4000019385973" y="789.5852715854093"/>
      <point x="235.70728602358437" y="805.0"/>
      <point x="198.4" y="805.0" type="curve"/>
    </contour>
    <contour>
      <point x="38.4" y="0.0" type="curve"/>
      <point x="318.4000015258789" y="0" type="line"/>
      <point x="318.4000015258789" y="120" type="line"/>
      <point x="188.99120220597666" y="120.0" type="line"/>
      <point x="53.814730645265115" y="120.00000000000001"/>
      <point x="38.4" y="37.30728602358436"/>
    </contour>
  </outline>
</glyph>
<glyph name="three" format="2">
  <advance width="356.8"/>
  <unicode hex="0033"/>
  <outline>
    <contour>
      <point x="163.4" y="740.0" type="curve" smooth="yes"/>
      <point x="163.4" y="775.87448"/>
      <point x="134.27448" y="805.0"/>
      <point x="98.4" y="805.0" type="curve" smooth="yes"/>
      <point x="62.52552" y="805.0"/>
      <point x="33.4" y="775.87448"/>
      <point x="33.4" y="740.0" type="curve" smooth="yes"/>
      <point x="33.4" y="704.12552"/>
      <point x="62.52552" y="675.0"/>
      <point x="98.4" y="675.0" type="curve" smooth="yes"/>
      <point x="134.27448" y="675.0"/>
      <point x="163.4" y="704.12552"/>
    </contour>
    <contour>
      <point x="198.4000015258789" y="400" type="line"/>
      <point x="234.52092510073152" y="400.0"/>
      <point x="318.3999990238883" y="414.44875228465725"/>
      <point x="318.4000002828998" y="550.5911992705068" type="curve"/>
      <point x="318.4000012429791" y="654.4088000246977" type="line"/>
      <point x="318.4000024930575" y="789.5852715854093"/>
      <point x="235.70728602358437" y="805.0"/>
      <point x="198.4" y="805.0" type="curve"/>
    </contour>
    <contour>
      <point x="198.4000015258789" y="-5" type="line"/>
      <point x="234.52092510073152" y="-5.0"/>
      <point x="318.3999990238883" y="9.44875228465719"/>
      <point x="318.4000002828998" y="145.5911992705067" type="curve"/>
      <point x="318.4000012429791" y="249.4088000246977" type="line"/>
      <point x="318.4000024930575" y="384.58527158540926"/>
      <point x="235.70728602358437" y="400.0"/>
      <point x="198.4" y="400.0" type="curve"/>
    </contour>
    <contour>
      <point x="163.4" y="60.0" type="curve" smooth="yes"/>
      <point x="163.4" y="95.87448"/>
      <point x="134.27448" y="125.0"/>
      <point x="98.4" y="125.0" type="curve" smooth="yes"/>
      <point x="62.52552" y="125.0"/>
      <point x="33.4" y="95.87448"/>
      <point x="33.4" y="60.0" type="curve" smooth="yes"/>
      <point x="33.4" y="24.12552"/>
      <point x="62.52552" y="-5.0"/>
      <point x="98.4" y="-5.0" type="curve" smooth="yes"/>
      <point x="134.27448" y="-5.0"/>
      <point x="163.4" y="24.12552"/>
    </contour>
  </outline>
</glyph>
<glyph name="four" format="2">
  <advance width="356.8"/>
  <unicode hex="0034"/>
  <outline>
    <contour>
      <point x="38.400001525878906" y="300" type="line"/>
      <point x="74.52092510073152" y="300.0"/>
      <point x="158.39999957616206" y="314.4487522846572"/>
      <point x="158.40000012283807" y="450.5911992705067" type="curve"/>
      <point x="158.4000015258789" y="800" type="line"/>
      <point x="38.400001525878906" y="800" type="line"/>
    </contour>
    <contour>
      <point x="198.4000015258789" y="0" type="line"/>
      <point x="318.4000015258789" y="0" type="line"/>
      <point x="318.4000015258789" y="500" type="line"/>
      <point x="198.4000015258789" y="500" type="line"/>
    </contour>
  </outline>
</glyph>
<glyph name="five" format="2">
  <advance width="356.8"/>
  <unicode hex="0035"/>
  <outline>
    <contour>
      <point x="42.150001525878906" y="490.59119965185926" type="line"/>
      <point x="42.15000152587891" y="355.4147280911477"/>
      <point x="124.84271397641564" y="340.0"/>
      <point x="162.15" y="340.0" type="curve"/>
      <point x="162.1500015258789" y="800" type="line"/>
      <point x="42.150001525878906" y="800" type="line"/>
    </contour>
    <contour>
      <point x="194.65" y="800.0" type="line"/>
      <point x="194.65" y="733.7702"/>
      <point x="248.4202" y="680.0"/>
      <point x="314.65" y="680.0" type="curve"/>
      <point x="314.65" y="800.0" type="line"/>
    </contour>
    <contour>
      <point x="198.4000015258789" y="-5" type="line"/>
      <point x="234.52092510073152" y="-5.0"/>
      <point x="318.3999992841848" y="9.44875228465719"/>
      <point x="318.4000002074598" y="145.5911992705067" type="curve"/>
      <point x="318.4000013184191" y="309.4088000246977" type="line"/>
      <point x="318.4000022351432" y="444.58527158540926"/>
      <point x="235.70728602358437" y="460.0"/>
      <point x="198.4" y="460.0" type="curve"/>
    </contour>
    <contour>
      <point x="163.4" y="55.0" type="curve" smooth="yes"/>
      <point x="163.4" y="90.87448"/>
      <point x="134.27448" y="120.0"/>
      <point x="98.4" y="120.0" type="curve" smooth="yes"/>
      <point x="62.52552" y="120.0"/>
      <point x="33.4" y="90.87448"/>
      <point x="33.4" y="55.0" type="curve" smooth="yes"/>
      <point x="33.4" y="19.12552"/>
      <point x="62.52552" y="-10.0"/>
      <point x="98.4" y="-10.0" type="curve" smooth="yes"/>
      <point x="134.27448" y="-10.0"/>
      <point x="163.4" y="19.12552"/>
    </contour>
  </outline>
</glyph>
<glyph name="six" format="2">
  <advance width="356.8"/>
  <unicode hex="0036"/>
  <outline>
    <contour>
      <point x="38.40000144398686" y="145.59119965185928" type="line"/>
      <point x="38.40000180585164" y="10.414728091147737"/>
      <point x="121.09271397641564" y="-4.999999999999996"/>
      <point x="158.4" y="-5.0" type="curve"/>
      <point x="158.4000015258789" y="805" type="line"/>
      <point x="122.2790779510263" y="805.0"/>
      <point x="38.39999971744136" y="790.5512463057519"/>
      <point x="38.400000081892046" y="654.4087993199023" type="curve"/>
    </contour>
    <contour>
      <point x="314.65" y="745.0" type="curve" smooth="yes"/>
      <point x="314.65" y="778.1149"/>
      <point x="287.7649" y="805.0"/>
      <point x="254.65" y="805.0" type="curve" smooth="yes"/>
      <point x="221.5351" y="805.0"/>
      <point x="194.65" y="778.1149"/>
      <point x="194.65" y="745.0" type="curve" smooth="yes"/>
      <point x="194.65" y="711.8851"/>
      <point x="221.5351" y="685.0"/>
      <point x="254.65" y="685.0" type="curve" smooth="yes"/>
      <point x="287.7649" y="685.0"/>
      <point x="314.65" y="711.8851"/>
    </contour>
    <contour>
      <point x="198.4000015258789" y="-5" type="line"/>
      <point x="234.52092510073152" y="-5.0"/>
      <point x="318.39999939223236" y="9.44875228465719"/>
      <point x="318.4000001761451" y="145.5911992705067" type="curve"/>
      <point x="318.4000013497337" y="349.4088000246977" type="line"/>
      <point x="318.40000212808445" y="484.58527158540926"/>
      <point x="235.70728602358437" y="500.0"/>
      <point x="198.4" y="500.0" type="curve"/>
    </contour>
  </outline>
</glyph>
<glyph name="eight" format="2">
  <advance width="356.8"/>
  <unicode hex="0038"/>
  <outline>
    <contour>
      <point x="38.400001242979116" y="550.5911996518593" type="line"/>
      <point x="38.40000249305744" y="415.4147280911477"/>
      <point x="121.09271397641564" y="400.0"/>
      <point x="158.4" y="400.0" type="curve"/>
      <point x="158.4000015258789" y="805" type="line"/>
      <point x="122.2790779510263" y="805.0"/>
      <point x="38.39999902388836" y="790.5512463057519"/>
      <point x="38.4000002828998" y="654.4087993199023" type="curve"/>
    </contour>
    <contour>
      <point x="198.4000015258789" y="400" type="line"/>
      <point x="234.52092510073152" y="400.0"/>
      <point x="318.3999990238883" y="414.44875228465725"/>
      <point x="318.4000002828998" y="550.5911992705068" type="curve"/>
      <point x="318.4000012429791" y="654.4088000246977" type="line"/>
      <point x="318.4000024930575" y="789.5852715854093"/>
      <point x="235.70728602358437" y="805.0"/>
      <point x="198.4" y="805.0" type="curve"/>
    </contour>
    <contour>
      <point x="38.400001242979116" y="145.59119965185928" type="line"/>
      <point x="38.40000249305744" y="10.414728091147737"/>
      <point x="121.09271397641564" y="-4.999999999999996"/>
      <point x="158.4" y="-5.0" type="curve"/>
      <point x="158.4000015258789" y="400" type="line"/>
      <point x="122.2790779510263" y="400.0"/>
      <point x="38.39999902388836" y="385.55124630575176"/>
      <point x="38.4000002828998" y="249.40879931990227" type="curve"/>
    </contour>
    <contour>
      <point x="198.4000015258789" y="-5" type="line"/>
      <point x="234.52092510073152" y="-5.0"/>
      <point x="318.3999990238883" y="9.44875228465719"/>
      <point x="318.4000002828998" y="145.5911992705067" type="curve"/>
      <point x="318.4000012429791" y="249.4088000246977" type="line"/>
      <point x="318.4000024930575" y="384.58527158540926"/>
      <point x="235.70728602358437" y="400.0"/>
      <point x="198.4" y="400.0" type="curve"/>
    </contour>
  </outline>
</glyph>
<glyph name="nine" format="2">
  <advance width="356.8"/>
  <unicode hex="0039"/>
  <outline>
    <contour>
      <point x="38.40000134973375" y="450.59119965185926" type="line"/>
      <point x="38.400002128084424" y="315.4147280911477"/>
      <point x="121.09271397641564" y="300.0"/>
      <point x="158.4" y="300.0" type="curve"/>
      <point x="158.4000015258789" y="805" type="line"/>
      <point x="122.2790779510263" y="805.0"/>
      <point x="38.39999939223238" y="790.5512463057519"/>
      <point x="38.400000176145156" y="654.4087993199023" type="curve"/>
    </contour>
    <contour>
      <point x="198.4000015258789" y="-5" type="line"/>
      <point x="234.52092510073152" y="-5.0"/>
      <point x="318.39999971744135" y="9.44875228465719"/>
      <point x="318.400000081892" y="145.5911992705067" type="curve"/>
      <point x="318.40000144398687" y="654.4088000246977" type="line"/>
      <point x="318.4000018058516" y="789.5852715854093"/>
      <point x="235.70728602358437" y="805.0"/>
      <point x="198.4" y="805.0" type="curve"/>
    </contour>
    <contour>
      <point x="167.15" y="55.0" type="curve" smooth="yes"/>
      <point x="167.15" y="90.87448"/>
      <point x="138.02448" y="120.0"/>
      <point x="102.15" y="120.0" type="curve" smooth="yes"/>
      <point x="66.27552" y="120.0"/>
      <point x="37.15" y="90.87448"/>
      <point x="37.15" y="55.0" type="curve" smooth="yes"/>
      <point x="37.15" y="19.12552"/>
      <point x="66.27552" y="-10.0"/>
      <point x="102.15" y="-10.0" type="curve" smooth="yes"/>
      <point x="138.02448" y="-10.0"/>
      <point x="167.15" y="19.12552"/>
    </contour>
  </outline>
</glyph>
<glyph name="semicolon" format="2">
  <advance width="196.8"/>
  <unicode hex="003B"/>
  <outline>
    <contour>
      <point x="163.4" y="540.0" type="curve" smooth="yes"/>
      <point x="163.4" y="575.87448"/>
      <point x="134.27448" y="605.0"/>
      <point x="98.4" y="605.0" type="curve" smooth="yes"/>
      <point x="62.52552" y="605.0"/>
      <point x="33.4" y="575.87448"/>
      <point x="33.4" y="540.0" type="curve" smooth="yes"/>
      <point x="33.4" y="504.12552"/>
      <point x="62.52552" y="475.0"/>
      <point x="98.4" y="475.0" type="curve" smooth="yes"/>
      <point x="134.27448" y="475.0"/>
      <point x="163.4" y="504.12552"/>
    </contour>
    <contour>
      <point x="38.400001525878906" y="-100" type="line"/>
      <point x="74.52092510073152" y="-100.0"/>
      <point x="158.39999798676973" y="-85.55124771534283"/>
      <point x="158.40000058348082" y="50.591199270506664" type="curve"/>
      <point x="158.4000015258789" y="100" type="line"/>
      <point x="38.400001525878906" y="100" type="line"/>
    </contour>
  </outline>
</glyph>
<glyph name="less" format="2">
  <advance width="316.8"/>
  <unicode hex="003C"/>
  <outline>
    <contour>
      <point x="38.4000013962165" y="250.59119965185928" type="line"/>
      <point x="38.40000191411893" y="128.40268532060156"/>
      <point x="60.79504955287402" y="100.00000000000001"/>
      <point x="198.4" y="100.0" type="curve"/>
      <point x="278.4000015258789" y="100" type="line"/>
      <point x="278.4" y="166.2298"/>
      <point x="224.62980000000002" y="220.0"/>
      <point x="158.4" y="220.0" type="curve"/>
      <point x="158.4000015258789" y="580" type="line"/>
      <point x="224.62980000000002" y="580.0"/>
      <point x="278.4" y="633.7702"/>
      <point x="278.4" y="700.0" type="curve"/>
      <point x="198.4000015258789" y="700.0" type="line"/>
      <point x="60.795050609541676" y="700.0"/>
      <point x="38.39999961175996" y="671.5973162392573"/>
      <point x="38.40000012966241" y="549.4087993199023" type="curve"/>
    </contour>
  </outline>
</glyph>
<glyph name="greater" format="2">
  <advance width="316.8"/>
  <unicode hex="003E"/>
  <outline>
    <contour>
      <point x="127.80880225537216" y="100.0" type="line"/>
      <point x="249.9973165866299" y="100.0"/>
      <point x="278.3999995862963" y="122.39504955287401"/>
      <point x="278.40000016954207" y="260.0" type="curve"/>
      <point x="278.4000013962165" y="549.4088000246977" type="line"/>
      <point x="278.40000191411895" y="671.5973143559554"/>
      <point x="256.004950447126" y="700.0"/>
      <point x="118.4" y="700.0" type="curve"/>
      <point x="38.400001525878906" y="700" type="line"/>
      <point x="38.4" y="633.7702"/>
      <point x="92.1702" y="580.0"/>
      <point x="158.4" y="580.0" type="curve"/>
      <point x="158.4000015258789" y="220" type="line"/>
      <point x="92.1702" y="220.0"/>
      <point x="38.4" y="166.2298"/>
      <point x="38.4" y="100.0" type="curve"/>
    </contour>
  </outline>
</glyph>
<glyph name="question" format="2">
  <advance width="356.8"/>
  <unicode hex="003F"/>
  <outline>
    <contour>
      <point x="163.4" y="752.5" type="curve" smooth="yes"/>
      <point x="163.4" y="788.37448"/>
      <point x="134.27448" y="817.5"/>
      <point x="98.4" y="817.5" type="curve" smooth="yes"/>
      <point x="62.52552" y="817.5"/>
      <point x="33.4" y="788.37448"/>
      <point x="33.4" y="752.5" type="curve" smooth="yes"/>
      <point x="33.4" y="716.62552"/>
      <point x="62.52552" y="687.5"/>
      <point x="98.4" y="687.5" type="curve" smooth="yes"/>
      <point x="134.27448" y="687.5"/>
      <point x="163.4" y="716.62552"/>
    </contour>
    <contour>
      <point x="198.4000015258789" y="405" type="line"/>
      <point x="234.52092510073152" y="405.0"/>
      <point x="318.3999989933848" y="419.44875228465725"/>
      <point x="318.4000002917404" y="555.5911992705068" type="curve"/>
      <point x="318.4000012341385" y="654.4088000246977" type="line"/>
      <point x="318.4000025232818" y="789.5852715854093"/>
      <point x="235.70728602358437" y="805.0"/>
      <point x="198.4" y="805.0" type="curve"/>
    </contour>
    <contour>
      <point x="38.400001525878906" y="195.8333282470703" type="line"/>
      <point x="158.4000015258789" y="195.8333282470703" type="line"/>
      <point x="158.4000015258789" y="520" type="line"/>
      <point x="122.2790779510263" y="520.0"/>
      <point x="38.39999921114244" y="505.5512463057518"/>
      <point x="38.400000228629224" y="369.4087993199023" type="curve"/>
    </contour>
    <contour>
      <point x="163.4" y="53.75" type="curve" smooth="yes"/>
      <point x="163.4" y="89.62448"/>
      <point x="134.27448" y="118.75"/>
      <point x="98.4" y="118.75" type="curve" smooth="yes"/>
      <point x="62.52552" y="118.75"/>
      <point x="33.4" y="89.62448"/>
      <point x="33.4" y="53.75" type="curve" smooth="yes"/>
      <point x="33.4" y="17.87552"/>
      <point x="62.52552" y="-11.25"/>
      <point x="98.4" y="-11.25" type="curve" smooth="yes"/>
      <point x="134.27448" y="-11.25"/>
      <point x="163.4" y="17.87552"/>
    </contour>
  </outline>
</glyph>
<glyph name="at" format="2">
  <advance width="896.51422"/>
  <unicode hex="0040"/>
  <outline>
    <contour>
      <point x="798.1142199999999" y="400.0" type="curve" smooth="yes"/>
      <point x="798.1142199999999" y="593.0914"/>
      <point x="641.34851" y="749.85711"/>
      <point x="448.25711" y="749.85711" type="curve" smooth="yes"/>
      <point x="255.16571000000002" y="749.85711"/>
      <point x="98.4" y="593.0914"/>
      <point x="98.4" y="400.0" type="curve" smooth="yes"/>
      <point x="98.4" y="206.9086"/>
      <point x="255.16571000000002" y="50.14289"/>
      <point x="448.25711" y="50.14289" type="curve" smooth="yes"/>
      <point x="641.34851" y="50.14289"/>
      <point x="798.1142199999999" y="206.9086"/>
    </contour>
    <contour>
      <point x="300.75711011389546" y="350.591199820811" type="curve"/>
      <point x="300.7571104818077" y="449.4088010046455" type="line"/>
      <point x="300.7571109850892" y="584.5852725653571"/>
      <point x="383.44982397641564" y="600.0"/>
      <point x="420.75711" y="600.0" type="curve"/>
      <point x="420.7571105957031" y="200" type="line"/>
      <point x="384.6361870208505" y="200.0"/>
      <point x="300.75710960701747" y="214.4487528349615"/>
    </contour>
    <contour>
      <point x="460.7571100650831" y="350.5911998208111" type="curve"/>
      <point x="460.7571105957031" y="600" type="line"/>
      <point x="580.7571105957031" y="600" type="line"/>
      <point x="580.7571105957031" y="200" type="line"/>
      <point x="544.6361870208505" y="200.0"/>
      <point x="460.75710977543855" y="214.44875283496157"/>
    </contour>
  </outline>
</glyph>
<glyph name="C" format="2">
  <advance width="356.8"/>
  <unicode hex="0043"/>
  <outline>
    <contour>
      <point x="38.4000014425245" y="150.59119965185928" type="line"/>
      <point x="38.40000181085116" y="15.414728091147737"/>
      <point x="121.09271397641564" y="4.5688248413657374e-15"/>
      <point x="158.4" y="0.0" type="curve"/>
      <point x="158.4000015258789" y="800" type="line"/>
      <point x="122.2790779510263" y="800.0"/>
      <point x="38.39999971239568" y="785.5512463057519"/>
      <point x="38.4000000833544" y="649.4087993199023" type="curve"/>
    </contour>
    <contour>
      <point x="198.4000015258789" y="630.5911996518593" type="line"/>
      <point x="198.4000015258789" y="495.4147280911477"/>
      <point x="281.0927139764156" y="480.0"/>
      <point x="318.4" y="480.0" type="curve"/>
      <point x="318.4000015258789" y="800" type="line"/>
      <point x="198.4000015258789" y="800" type="line"/>
    </contour>
    <contour>
      <point x="318.4" y="120.0" type="line"/>
      <point x="252.1702" y="120.0"/>
      <point x="198.4" y="66.2298"/>
      <point x="198.4" y="0.0" type="curve"/>
      <point x="318.4" y="0.0" type="line"/>
    </contour>
  </outline>
</glyph>
<glyph name="D" format="2">
  <advance width="356.8"/>
  <unicode hex="0044"/>
  <outline>
    <contour>
      <point x="38.400001525878906" y="0" type="line"/>
      <point x="158.4000015258789" y="0" type="line"/>
      <point x="158.4000015258789" y="800" type="line"/>
      <point x="38.400001525878906" y="800" type="line"/>
    </contour>
    <contour>
      <point x="198.4000015258789" y="0" type="line"/>
      <point x="234.52092510073152" y="0.0"/>
      <point x="318.39999971239564" y="14.44875228465719"/>
      <point x="318.40000008335437" y="150.5911992705067" type="curve"/>
      <point x="318.4000014425245" y="649.4088000246977" type="line"/>
      <point x="318.40000181085117" y="784.5852715854093"/>
      <point x="235.70728602358437" y="800.0"/>
      <point x="198.4" y="800.0" type="curve"/>
    </contour>
  </outline>
</glyph>
<glyph name="K" format="2">
  <advance width="356.8"/>
  <unicode hex="004B"/>
  <outline>
    <contour>
      <point x="38.400001525878906" y="0" type="line"/>
      <point x="158.4000015258789" y="0" type="line"/>
      <point x="158.4000015258789" y="800" type="line"/>
      <point x="38.400001525878906" y="800" type="line"/>
    </contour>
    <contour>
      <point x="198.4000015258789" y="400" type="line"/>
      <point x="234.52092510073152" y="400.0"/>
      <point x="318.3999994247913" y="414.44875228465725"/>
      <point x="318.40000016670876" y="550.5911992705068" type="curve"/>
      <point x="318.4000015258789" y="800" type="line"/>
      <point x="198.4000015258789" y="800" type="line"/>
    </contour>
    <contour>
      <point x="198.4000015258789" y="0" type="line"/>
      <point x="318.4000015258789" y="0" type="line"/>
      <point x="318.4000015258789" y="249.4088000246977" type="line"/>
      <point x="318.4000015258789" y="384.58527158540926"/>
      <point x="235.70728602358437" y="400.0"/>
      <point x="198.4" y="400.0" type="curve"/>
    </contour>
  </outline>
</glyph>
<glyph name="L" format="2">
  <advance width="356.8"/>
  <unicode hex="004C"/>
  <outline>
    <contour>
      <point x="38.400001525878906" y="0" type="line"/>
      <point x="158.4000015258789" y="0" type="line"/>
      <point x="158.4000015258789" y="800" type="line"/>
      <point x="38.400001525878906" y="800" type="line"/>
    </contour>
    <contour>
      <point x="318.4" y="120.0" type="line"/>
      <point x="252.1702" y="120.0"/>
      <point x="198.4" y="66.2298"/>
      <point x="198.4" y="0.0" type="curve"/>
      <point x="318.4" y="0.0" type="line"/>
    </contour>
  </outline>
</glyph>
<glyph name="M" format="2">
  <advance width="516.8"/>
  <unicode hex="004D"/>
  <outline>
    <contour>
      <point x="38.400001525878906" y="0" type="line"/>
      <point x="158.4000015258789" y="0" type="line"/>
      <point x="158.4000015258789" y="800" type="line"/>
      <point x="38.400001525878906" y="800" type="line"/>
    </contour>
    <contour>
      <point x="198.4000015258789" y="0" type="line"/>
      <point x="318.4000015258789" y="0" type="line"/>
      <point x="318.4000015258789" y="800" type="line"/>
      <point x="198.4000015258789" y="800" type="line"/>
    </contour>
    <contour>
      <point x="358.4000015258789" y="0" type="line"/>
      <point x="478.4000015258789" y="0" type="line"/>
      <point x="478.4000015258789" y="649.4088000246977" type="line"/>
      <point x="478.4000015258789" y="784.5852715854093"/>
      <point x="395.70728602358435" y="800.0"/>
      <point x="358.4" y="800.0" type="curve"/>
    </contour>
  </outline>
</glyph>
<glyph name="N" format="2">
  <advance width="356.8"/>
  <unicode hex="004E"/>
  <outline>
    <contour>
      <point x="38.400001525878906" y="0" type="line"/>
      <point x="158.4000015258789" y="0" type="line"/>
      <point x="158.4000015258789" y="800" type="line"/>
      <point x="38.400001525878906" y="800" type="line"/>
    </contour>
    <contour>
      <point x="198.4000015258789" y="0" type="line"/>
      <point x="318.4000015258789" y="0" type="line"/>
      <point x="318.4000015258789" y="649.4088000246977" type="line"/>
      <point x="318.4000015258789" y="784.5852715854093"/>
      <point x="235.70728602358437" y="800.0"/>
      <point x="198.4" y="800.0" type="curve"/>
    </contour>
  </outline>
</glyph>
<glyph name="Q" format="2">
  <advance width="356.8"/>
  <unicode hex="0051"/>
  <outline>
    <contour>
      <point x="38.40000144398686" y="145.59119965185928" type="line"/>
      <point x="38.40000180585164" y="10.414728091147737"/>
      <point x="121.09271397641564" y="-4.999999999999996"/>
      <point x="158.4" y="-5.0" type="curve"/>
      <point x="158.4000015258789" y="805" type="line"/>
      <point x="122.2790779510263" y="805.0"/>
      <point x="38.39999971744136" y="790.5512463057519"/>
      <point x="38.400000081892046" y="654.4087993199023" type="curve"/>
    </contour>
    <contour>
      <point x="198.45484431668243" y="25.59249966320622" type="line"/>
      <point x="198.46365313860818" y="-99.59206445130306"/>
      <point x="275.8237137239231" y="-120.0"/>
      <point x="318.4" y="-120.0" type="curve"/>
      <point x="318.4000015258789" y="0" type="line"/>
      <point x="232.6617889404297" y="0" type="line"/>
      <point x="315.7365215079856" y="24.691490277082742"/>
      <point x="318.39999996908807" y="103.4527135456009"/>
      <point x="318.40000008189196" y="145.59119920733917" type="curve"/>
      <point x="318.40000144398687" y="654.4088000246977" type="line"/>
      <point x="318.4000018058516" y="789.5852715854093"/>
      <point x="235.70728602358437" y="805.0"/>
      <point x="198.4" y="805.0" type="curve"/>
    </contour>
  </outline>
</glyph>
<glyph name="R" format="2">
  <advance width="356.8"/>
  <unicode hex="0052"/>
  <outline>
    <contour>
      <point x="38.400001525878906" y="0" type="line"/>
      <point x="158.4000015258789" y="0" type="line"/>
      <point x="158.4000015258789" y="800" type="line"/>
      <point x="38.400001525878906" y="800" type="line"/>
    </contour>
    <contour>
      <point x="198.4000015258789" y="200" type="line"/>
      <point x="234.52092510073152" y="200.0"/>
      <point x="318.3999995526155" y="214.4487522846572"/>
      <point x="318.4000001296624" y="350.5911992705067" type="curve"/>
      <point x="318.4000013962165" y="649.4088000246977" type="line"/>
      <point x="318.4000019691691" y="784.5852715854093"/>
      <point x="235.70728602358437" y="800.0"/>
      <point x="198.4" y="800.0" type="curve"/>
    </contour>
    <contour>
      <point x="198.4000015258789" y="0" type="line"/>
      <point x="318.4000015258789" y="0" type="line"/>
      <point x="318.4000015258789" y="49.408800024697705" type="line"/>
      <point x="318.4000015258789" y="184.58527158540926"/>
      <point x="235.70728602358437" y="200.0"/>
      <point x="198.4" y="200.0" type="curve"/>
    </contour>
  </outline>
</glyph>
<glyph name="V" format="2">
  <advance width="356.8"/>
  <unicode hex="0056"/>
  <outline>
    <contour>
      <point x="38.40000145773516" y="145.59119965185928" type="line"/>
      <point x="38.400001758848916" y="10.414728091147737"/>
      <point x="121.09271397641564" y="-4.999999999999996"/>
      <point x="158.4" y="-5.0" type="curve"/>
      <point x="158.40000145773516" y="649.4088000246978" type="line"/>
      <point x="158.4000017588489" y="784.5852715854094"/>
      <point x="75.70728602358436" y="800.0"/>
      <point x="38.4" y="800.0" type="curve"/>
    </contour>
    <contour>
      <point x="198.4000015258789" y="-5" type="line"/>
      <point x="234.52092510073152" y="-5.0"/>
      <point x="318.3999997648782" y="9.44875228465719"/>
      <point x="318.4000000681437" y="145.5911992705067" type="curve"/>
      <point x="318.4000015258789" y="800" type="line"/>
      <point x="198.4000015258789" y="800" type="line"/>
    </contour>
  </outline>
</glyph>
<glyph name="X" format="2">
  <advance width="356.8"/>
  <unicode hex="0058"/>
  <outline>
    <contour>
      <point x="38.400001525878906" y="550.5911996518593" type="line"/>
      <point x="38.40000152587891" y="415.4147280911477"/>
      <point x="121.09271397641564" y="400.0"/>
      <point x="158.4" y="400.0" type="curve"/>
      <point x="158.4000015258789" y="800" type="line"/>
      <point x="38.400001525878906" y="800" type="line"/>
    </contour>
    <contour>
      <point x="198.4000015258789" y="400" type="line"/>
      <point x="234.52092510073152" y="400.0"/>
      <point x="318.3999994247913" y="414.44875228465725"/>
      <point x="318.40000016670876" y="550.5911992705068" type="curve"/>
      <point x="318.4000015258789" y="800" type="line"/>
      <point x="198.4000015258789" y="800" type="line"/>
    </contour>
    <contour>
      <point x="38.400001525878906" y="0" type="line"/>
      <point x="158.4000015258789" y="0" type="line"/>
      <point x="158.4000015258789" y="400" type="line"/>
      <point x="122.2790779510263" y="400.0"/>
      <point x="38.399999424791346" y="385.55124630575176"/>
      <point x="38.400000166708814" y="249.40879931990227" type="curve"/>
    </contour>
    <contour>
      <point x="198.4000015258789" y="0" type="line"/>
      <point x="318.4000015258789" y="0" type="line"/>
      <point x="318.4000015258789" y="249.4088000246977" type="line"/>
      <point x="318.4000015258789" y="384.58527158540926"/>
      <point x="235.70728602358437" y="400.0"/>
      <point x="198.4" y="400.0" type="curve"/>
    </contour>
  </outline>
</glyph>
<glyph name="Z" format="2">
  <advance width="356.8"/>
  <unicode hex="005A"/>
  <outline>
    <contour>
      <point x="38.4" y="680.0" type="line"/>
      <point x="104.62979999999999" y="680.0"/>
      <point x="158.4" y="733.7702"/>
      <point x="158.4" y="800.0" type="curve"/>
      <point x="38.4" y="800.0" type="line"/>
    </contour>
    <contour>
      <point x="198.4000015258789" y="340" type="line"/>
      <point x="234.52092510073152" y="340.0"/>
      <point x="318.39999952629876" y="354.4487522846572"/>
      <point x="318.40000013728957" y="490.5911992705067" type="curve"/>
      <point x="318.4000015258789" y="800" type="line"/>
      <point x="198.4000015258789" y="800" type="line"/>
    </contour>
    <contour>
      <point x="38.400001525878906" y="0" type="line"/>
      <point x="158.4000015258789" y="0" type="line"/>
      <point x="158.4000015258789" y="460" type="line"/>
      <point x="122.2790779510263" y="460.0"/>
      <point x="38.399999526298764" y="445.5512463057518"/>
      <point x="38.40000013728961" y="309.4087993199023" type="curve"/>
    </contour>
    <contour>
      <point x="318.4" y="120.0" type="line"/>
      <point x="252.1702" y="120.0"/>
      <point x="198.4" y="66.2298"/>
      <point x="198.4" y="0.0" type="curve"/>
      <point x="318.4" y="0.0" type="line"/>
    </contour>
  </outline>
</glyph>
<glyph name="bracketleft" format="2">
  <advance width="316.8"/>
  <unicode hex="005B"/>
  <outline>
    <contour>
      <point x="38.400001525878906" y="-100" type="line"/>
      <point x="278.4000015258789" y="-100" type="line"/>
      <point x="278.4" y="-33.7702"/>
      <point x="224.62980000000002" y="20.0"/>
      <point x="158.4" y="20.0" type="curve"/>
      <point x="158.4000015258789" y="780" type="line"/>
      <point x="224.62980000000002" y="780.0"/>
      <point x="278.4" y="833.7702"/>
      <point x="278.4" y="900.0" type="curve"/>
      <point x="38.400001525878906" y="900" type="line"/>
    </contour>
  </outline>
</glyph>
<glyph name="backslash" format="2">
  <advance width="396.53844694390415"/>
  <unicode hex="005C"/>
  <outline>
    <contour>
      <point x="210.16538525125952" y="45.676710757320095" type="line"/>
      <point x="237.5004430267537" y="-86.70709897791245"/>
      <point x="321.60190625318177" y="-85.08144535283968"/>
      <point x="358.1384469439041" y="-77.53725654285347" type="curve"/>
      <point x="186.3730593617446" y="754.3232891958656" type="line"/>
      <point x="159.03800122899995" y="886.7070988573319"/>
      <point x="74.93654069072235" y="885.0814453528398"/>
      <point x="38.4" y="877.5372565428535" type="curve"/>
    </contour>
  </outline>
</glyph>
<glyph name="bracketright" format="2">
  <advance width="316.8"/>
  <unicode hex="005D"/>
  <outline>
    <contour>
      <point x="158.4000015258789" y="20" type="line"/>
      <point x="92.1702" y="20.0"/>
      <point x="38.4" y="-33.7702"/>
      <point x="38.4" y="-100.0" type="curve"/>
      <point x="278.4000015258789" y="-100" type="line"/>
      <point x="278.4000015258789" y="900" type="line"/>
      <point x="38.400001525878906" y="900" type="line"/>
      <point x="38.4" y="833.7702"/>
      <point x="92.1702" y="780.0"/>
      <point x="158.4" y="780.0" type="curve"/>
    </contour>
  </outline>
</glyph>
<glyph name="grave" format="2">
  <advance width="196.8"/>
  <unicode hex="0060"/>
  <outline>
    <contour>
      <point x="-14.100000000000001" y="920.0" type="line"/>
      <point x="-14.100000000000001" y="853.7702"/>
      <point x="39.6702" y="800.0"/>
      <point x="105.9" y="800.0" type="curve"/>
      <point x="105.9" y="920.0" type="line"/>
    </contour>
  </outline>
</glyph>
<glyph name="b" format="2">
  <advance width="356.8"/>
  <unicode hex="0062"/>
  <outline>
    <contour>
      <point x="38.400001525878906" y="0" type="line"/>
      <point x="158.4000015258789" y="0" type="line"/>
      <point x="158.4000015258789" y="800" type="line"/>
      <point x="38.400001525878906" y="800" type="line"/>
    </contour>
    <contour>
      <point x="198.4000015258789" y="0" type="line"/>
      <point x="234.52092510073152" y="0.0"/>
      <point x="318.399999558744" y="14.44875228465719"/>
      <point x="318.4000001278862" y="150.5911992705067" type="curve"/>
      <point x="318.4000013979927" y="454.40880002469777" type="line"/>
      <point x="318.4000019630966" y="589.5852715854094"/>
      <point x="235.70728602358437" y="605.0"/>
      <point x="198.4" y="605.0" type="curve"/>
    </contour>
  </outline>
</glyph>
<glyph name="f" format="2">
  <advance width="356.8"/>
  <unicode hex="0066"/>
  <outline>
    <contour>
      <point x="38.400001525878906" y="0" type="line"/>
      <point x="158.4000015258789" y="0" type="line"/>
      <point x="158.4000015258789" y="800" type="line"/>
      <point x="122.2790779510263" y="800.0"/>
      <point x="38.399999763149374" y="785.5512463057519"/>
      <point x="38.40000006864481" y="649.4087993199023" type="curve"/>
    </contour>
    <contour>
      <point x="198.4" y="800.0" type="line"/>
      <point x="198.4" y="733.7702"/>
      <point x="252.1702" y="680.0"/>
      <point x="318.4" y="680.0" type="curve"/>
      <point x="318.4" y="800.0" type="line"/>
    </contour>
    <contour>
      <point x="198.4" y="587.5" type="line"/>
      <point x="198.4" y="521.2702"/>
      <point x="252.1702" y="467.5"/>
      <point x="318.4" y="467.5" type="curve"/>
      <point x="318.4" y="587.5" type="line"/>
    </contour>
  </outline>
</glyph>
<glyph name="h" format="2">
  <advance width="356.8"/>
  <unicode hex="0068"/>
  <outline>
    <contour>
      <point x="38.400001525878906" y="0" type="line"/>
      <point x="158.4000015258789" y="0" type="line"/>
      <point x="158.4000015258789" y="800" type="line"/>
      <point x="38.400001525878906" y="800" type="line"/>
    </contour>
    <contour>
      <point x="198.4000015258789" y="0" type="line"/>
      <point x="318.4000015258789" y="0" type="line"/>
      <point x="318.4000015258789" y="454.40880002469777" type="line"/>
      <point x="318.4000015258789" y="589.5852715854094"/>
      <point x="235.70728602358437" y="605.0"/>
      <point x="198.4" y="605.0" type="curve"/>
    </contour>
  </outline>
</glyph>
<glyph name="i" format="2">
  <advance width="196.8"/>
  <unicode hex="0069"/>
  <outline>
    <contour>
      <point x="163.4" y="704.44444" type="curve" smooth="yes"/>
      <point x="163.4" y="740.31892"/>
      <point x="134.27448" y="769.44444"/>
      <point x="98.4" y="769.44444" type="curve" smooth="yes"/>
      <point x="62.52552" y="769.44444"/>
      <point x="33.4" y="740.31892"/>
      <point x="33.4" y="704.44444" type="curve" smooth="yes"/>
      <point x="33.4" y="668.56996"/>
      <point x="62.52552" y="639.44444"/>
      <point x="98.4" y="639.44444" type="curve" smooth="yes"/>
      <point x="134.27448" y="639.44444"/>
      <point x="163.4" y="668.56996"/>
    </contour>
    <contour>
      <point x="38.400001525878906" y="0" type="line"/>
      <point x="158.4000015258789" y="0" type="line"/>
      <point x="158.4000015258789" y="600" type="line"/>
      <point x="38.400001525878906" y="600" type="line"/>
    </contour>
  </outline>
</glyph>
<glyph name="j" format="2">
  <advance width="356.8"/>
  <unicode hex="006A"/>
  <outline>
    <contour>
      <point x="323.4" y="704.44444" type="curve" smooth="yes"/>
      <point x="323.4" y="740.31892"/>
      <point x="294.27448" y="769.44444"/>
      <point x="258.4" y="769.44444" type="curve" smooth="yes"/>
      <point x="222.52552" y="769.44444"/>
      <point x="193.4" y="740.31892"/>
      <point x="193.4" y="704.44444" type="curve" smooth="yes"/>
      <point x="193.4" y="668.56996"/>
      <point x="222.52552" y="639.44444"/>
      <point x="258.4" y="639.44444" type="curve" smooth="yes"/>
      <point x="294.27448" y="639.44444"/>
      <point x="323.4" y="668.56996"/>
    </contour>
    <contour>
      <point x="198.4000015258789" y="-210" type="line"/>
      <point x="234.52092510073152" y="-210.0"/>
      <point x="318.39999976658197" y="-195.55124771534278"/>
      <point x="318.40000006764996" y="-59.40880072949327" type="curve"/>
      <point x="318.4000015258789" y="600" type="line"/>
      <point x="198.4000015258789" y="600" type="line"/>
    </contour>
    <contour>
      <point x="162.15" y="-150.0" type="curve" smooth="yes"/>
      <point x="162.15" y="-116.8851"/>
      <point x="135.2649" y="-90.0"/>
      <point x="102.15" y="-90.0" type="curve" smooth="yes"/>
      <point x="69.0351" y="-90.0"/>
      <point x="42.15" y="-116.8851"/>
      <point x="42.15" y="-150.0" type="curve" smooth="yes"/>
      <point x="42.15" y="-183.1149"/>
      <point x="69.0351" y="-210.0"/>
      <point x="102.15" y="-210.0" type="curve" smooth="yes"/>
      <point x="135.2649" y="-210.0"/>
      <point x="162.15" y="-183.1149"/>
    </contour>
  </outline>
</glyph>
<glyph name="l" format="2">
  <advance width="196.8"/>
  <unicode hex="006C"/>
  <outline>
    <contour>
      <point x="38.400001525878906" y="145.59119965185928" type="line"/>
      <point x="38.40000152587891" y="10.414728091147737"/>
      <point x="121.09271397641564" y="-4.999999999999996"/>
      <point x="158.4" y="-5.0" type="curve"/>
      <point x="158.4000015258789" y="800" type="line"/>
      <point x="38.400001525878906" y="800" type="line"/>
    </contour>
  </outline>
</glyph>
<glyph name="m" format="2">
  <advance width="516.8"/>
  <unicode hex="006D"/>
  <outline>
    <contour>
      <point x="38.400001525878906" y="0" type="line"/>
      <point x="158.4000015258789" y="0" type="line"/>
      <point x="158.4000015258789" y="600" type="line"/>
      <point x="38.400001525878906" y="600" type="line"/>
    </contour>
    <contour>
      <point x="198.4000015258789" y="0" type="line"/>
      <point x="318.4000015258789" y="0" type="line"/>
      <point x="318.4000015258789" y="600" type="line"/>
      <point x="198.4000015258789" y="600" type="line"/>
    </contour>
    <contour>
      <point x="358.4000015258789" y="0" type="line"/>
      <point x="478.4000015258789" y="0" type="line"/>
      <point x="478.4000015258789" y="449.40880002469777" type="line"/>
      <point x="478.4000015258789" y="584.5852715854094"/>
      <point x="395.70728602358435" y="600.0"/>
      <point x="358.4" y="600.0" type="curve"/>
    </contour>
  </outline>
</glyph>
<glyph name="n" format="2">
  <advance width="356.8"/>
  <unicode hex="006E"/>
  <outline>
    <contour>
      <point x="38.400001525878906" y="0" type="line"/>
      <point x="158.4000015258789" y="0" type="line"/>
      <point x="158.4000015258789" y="600" type="line"/>
      <point x="38.400001525878906" y="600" type="line"/>
    </contour>
    <contour>
      <point x="198.4000015258789" y="0" type="line"/>
      <point x="318.4000015258789" y="0" type="line"/>
      <point x="318.4000015258789" y="449.40880002469777" type="line"/>
      <point x="318.4000015258789" y="584.5852715854094"/>
      <point x="235.70728602358437" y="600.0"/>
      <point x="198.4" y="600.0" type="curve"/>
    </contour>
  </outline>
</glyph>
<glyph name="q" format="2">
  <advance width="356.8"/>
  <unicode hex="0071"/>
  <outline>
    <contour>
      <point x="38.4000013962165" y="150.59119965185928" type="line"/>
      <point x="38.40000196916907" y="15.414728091147737"/>
      <point x="121.09271397641564" y="4.5688248413657374e-15"/>
      <point x="158.4" y="0.0" type="curve"/>
      <point x="158.4000015258789" y="600" type="line"/>
      <point x="122.2790779510263" y="600.0"/>
      <point x="38.39999955261549" y="585.5512463057519"/>
      <point x="38.40000012966241" y="449.4087993199023" type="curve"/>
    </contour>
    <contour>
      <point x="198.4000015258789" y="-200" type="line"/>
      <point x="318.4000015258789" y="-200" type="line"/>
      <point x="318.4000015258789" y="600" type="line"/>
      <point x="198.4000015258789" y="600" type="line"/>
    </contour>
  </outline>
</glyph>
<glyph name="t" format="2">
  <advance width="356.8"/>
  <unicode hex="0074"/>
  <outline>
    <contour>
      <point x="38.400001525878906" y="0" type="line"/>
      <point x="158.4000015258789" y="0" type="line"/>
      <point x="158.4000015258789" y="800" type="line"/>
      <point x="122.2790779510263" y="800.0"/>
      <point x="38.399999763149374" y="785.5512463057519"/>
      <point x="38.40000006864481" y="649.4087993199023" type="curve"/>
    </contour>
    <contour>
      <point x="198.4" y="480.0" type="line"/>
      <point x="264.6298" y="480.0"/>
      <point x="318.4" y="533.7702"/>
      <point x="318.4" y="600.0" type="curve"/>
      <point x="198.4" y="600.0" type="line"/>
    </contour>
  </outline>
</glyph>
<glyph name="v" format="2">
  <advance width="356.8"/>
  <unicode hex="0076"/>
  <outline>
    <contour>
      <point x="38.400001430616726" y="145.59119965185928" type="line"/>
      <point x="38.400001851561484" y="10.414728091147737"/>
      <point x="121.09271397641564" y="-4.999999999999996"/>
      <point x="158.4" y="-5.0" type="curve"/>
      <point x="158.40000143061673" y="454.40880002469777" type="line"/>
      <point x="158.40000185156148" y="589.5852715854094"/>
      <point x="75.70728602358436" y="605.0"/>
      <point x="38.4" y="605.0" type="curve"/>
    </contour>
    <contour>
      <point x="198.4000015258789" y="-5" type="line"/>
      <point x="234.52092510073152" y="-5.0"/>
      <point x="318.3999996679207" y="9.44875228465719"/>
      <point x="318.40000009624424" y="145.5911992705067" type="curve"/>
      <point x="318.4000015258789" y="600" type="line"/>
      <point x="198.4000015258789" y="600" type="line"/>
    </contour>
  </outline>
</glyph>
<glyph name="x" format="2">
  <advance width="356.8"/>
  <unicode hex="0078"/>
  <outline>
    <contour>
      <point x="38.400001525878906" y="450.59119965185926" type="line"/>
      <point x="38.40000152587891" y="315.4147280911477"/>
      <point x="121.09271397641564" y="300.0"/>
      <point x="158.4" y="300.0" type="curve"/>
      <point x="158.4000015258789" y="600" type="line"/>
      <point x="38.400001525878906" y="600" type="line"/>
    </contour>
    <contour>
      <point x="198.4000015258789" y="300" type="line"/>
      <point x="234.52092510073152" y="300.0"/>
      <point x="318.39999910523096" y="314.4487522846572"/>
      <point x="318.40000025932477" y="450.5911992705067" type="curve"/>
      <point x="318.4000015258789" y="600" type="line"/>
      <point x="198.4000015258789" y="600" type="line"/>
    </contour>
    <contour>
      <point x="38.400001525878906" y="0" type="line"/>
      <point x="158.4000015258789" y="0" type="line"/>
      <point x="158.4000015258789" y="300" type="line"/>
      <point x="122.2790779510263" y="300.0"/>
      <point x="38.39999910523101" y="285.55124630575176"/>
      <point x="38.40000025932482" y="149.40879931990227" type="curve"/>
    </contour>
    <contour>
      <point x="198.4000015258789" y="0" type="line"/>
      <point x="318.4000015258789" y="0" type="line"/>
      <point x="318.4000015258789" y="149.4088000246977" type="line"/>
      <point x="318.4000015258789" y="284.58527158540926"/>
      <point x="235.70728602358437" y="300.0"/>
      <point x="198.4" y="300.0" type="curve"/>
    </contour>
  </outline>
</glyph>
<glyph name="braceleft" format="2">
  <advance width="196.8"/>
  <unicode hex="007B"/>
  <outline>
    <contour>
      <point x="38.400001525878906" y="400" type="line"/>
      <point x="74.52092510073152" y="400.0"/>
      <point x="158.39999957616206" y="414.44875228465713"/>
      <point x="158.40000012283807" y="550.5911992705066" type="curve"/>
      <point x="158.4000015258789" y="900" type="line"/>
      <point x="122.2790779510263" y="900.0"/>
      <point x="38.39999957616205" y="885.5512463057519"/>
      <point x="38.40000012283807" y="749.4087993199023" type="curve"/>
    </contour>
    <contour>
      <point x="38.40000140304083" y="50.591199651859284" type="line"/>
      <point x="38.40000194583802" y="-84.58527190885226"/>
      <point x="121.09271397641564" y="-100.0"/>
      <point x="158.4" y="-100.0" type="curve"/>
      <point x="158.40000140304085" y="249.40880002469774" type="line"/>
      <point x="158.400001945838" y="384.58527158540926"/>
      <point x="75.70728602358436" y="400.0"/>
      <point x="38.4" y="400.0" type="curve"/>
    </contour>
  </outline>
</glyph>
<glyph name="braceright" format="2">
  <advance width="196.8"/>
  <unicode hex="007D"/>
  <outline>
    <contour>
      <point x="38.40000140304083" y="550.5911996518593" type="line"/>
      <point x="38.40000194583802" y="415.4147280911477"/>
      <point x="121.09271397641564" y="400.0"/>
      <point x="158.4" y="400.0" type="curve"/>
      <point x="158.40000140304085" y="749.4088000246978" type="line"/>
      <point x="158.400001945838" y="884.5852715854094"/>
      <point x="75.70728602358436" y="900.0"/>
      <point x="38.4" y="900.0" type="curve"/>
    </contour>
    <contour>
      <point x="38.400001525878906" y="-100" type="line"/>
      <point x="74.52092510073152" y="-100.0"/>
      <point x="158.39999957616206" y="-85.55124771534284"/>
      <point x="158.40000012283807" y="50.59119927050668" type="curve"/>
      <point x="158.4000015258789" y="400" type="line"/>
      <point x="122.2790779510263" y="400.0"/>
      <point x="38.39999957616205" y="385.55124630575176"/>
      <point x="38.40000012283807" y="249.40879931990227" type="curve"/>
    </contour>
  </outline>
</glyph>
<glyph name="tilde" format="2">
  <advance width="356.8"/>
  <unicode hex="007E"/>
  <outline>
    <contour>
      <point x="167.80880225537217" y="340.0" type="line"/>
      <point x="302.9852738160837" y="340.0"/>
      <point x="318.4" y="422.69271397641563"/>
      <point x="318.4" y="460.0" type="curve"/>
      <point x="188.99120220597666" y="460.0" type="line"/>
      <point x="53.814730645265115" y="460.0"/>
      <point x="38.4" y="377.30728602358437"/>
      <point x="38.4" y="340.0" type="curve"/>
    </contour>
  </outline>
</glyph>
<glyph name="invexclamation" format="2">
  <advance width="196.8"/>
  <unicode hex="00A1"/>
  <outline>
    <contour>
      <point x="163.4" y="546.25" type="curve" smooth="yes"/>
      <point x="163.4" y="582.12448"/>
      <point x="134.27448" y="611.25"/>
      <point x="98.4" y="611.25" type="curve" smooth="yes"/>
      <point x="62.52552" y="611.25"/>
      <point x="33.4" y="582.12448"/>
      <point x="33.4" y="546.25" type="curve" smooth="yes"/>
      <point x="33.4" y="510.37552"/>
      <point x="62.52552" y="481.25"/>
      <point x="98.4" y="481.25" type="curve" smooth="yes"/>
      <point x="134.27448" y="481.25"/>
      <point x="163.4" y="510.37552"/>
    </contour>
    <contour>
      <point x="38.400001525878906" y="-200" type="line"/>
      <point x="158.4000015258789" y="-200" type="line"/>
      <point x="158.4000015258789" y="404.1666717529297" type="line"/>
      <point x="38.400001525878906" y="404.1666717529297" type="line"/>
    </contour>
  </outline>
</glyph>
<glyph name="cent" format="2">
  <advance width="356.8"/>
  <unicode hex="00A2"/>
  <outline>
    <contour>
      <point x="98.4000015258789" y="0" type="line"/>
      <point x="158.4000015258789" y="0" type="line"/>
      <point x="158.4000015258789" y="600" type="line"/>
      <point x="98.4000015258789" y="600" type="line"/>
      <point x="98.4000015258789" y="483.89879608154297" type="line"/>
      <point x="40.07217964863814" y="450.1695154901286"/>
      <point x="38.399999849599226" y="395.7706653781113"/>
      <point x="38.400000291740426" y="349.40880056950965" type="curve"/>
      <point x="38.40000123413852" y="250.59119739499906" type="line"/>
      <point x="38.40000167628589" y="204.22868423876477"/>
      <point x="40.070988267614084" y="149.83474996025535"/>
      <point x="98.4000015258789" y="116.09549713134766" type="curve"/>
    </contour>
    <contour>
      <point x="198.4000015258789" y="530.5911996518593" type="line"/>
      <point x="198.4000015258789" y="395.4147280911477"/>
      <point x="281.0927139764156" y="380.0"/>
      <point x="318.4" y="380.0" type="curve"/>
      <point x="318.4000015258789" y="500" type="line"/>
      <point x="258.4000015258789" y="500" type="line"/>
      <point x="258.4000015258789" y="600" type="line"/>
      <point x="198.4000015258789" y="600" type="line"/>
    </contour>
    <contour>
      <point x="198.4000015258789" y="0" type="line"/>
      <point x="258.4000015258789" y="0" type="line"/>
      <point x="258.4000015258789" y="100" type="line"/>
      <point x="318.4000015258789" y="100" type="line"/>
      <point x="318.4000015258789" y="220" type="line"/>
      <point x="282.2790779510263" y="220.0"/>
      <point x="198.3999983894158" y="205.55124630575176"/>
      <point x="198.4000004667847" y="69.40879931990227" type="curve"/>
    </contour>
  </outline>
</glyph>
<glyph name="pound" format="2">
  <advance width="461.8"/>
  <unicode hex="00A3"/>
  <outline>
    <contour>
      <point x="138.4000015258789" y="0" type="line"/>
      <point x="258.4000015258789" y="0" type="line"/>
      <point x="258.4000015258789" y="805" type="line"/>
      <point x="222.2790779510263" y="805.0"/>
      <point x="138.3999997648782" y="790.5512463057519"/>
      <point x="138.40000006814375" y="654.4087993199023" type="curve"/>
    </contour>
    <contour>
      <point x="423.4" y="740.0" type="curve" smooth="yes"/>
      <point x="423.4" y="775.87448"/>
      <point x="394.27448" y="805.0"/>
      <point x="358.4" y="805.0" type="curve" smooth="yes"/>
      <point x="322.52552" y="805.0"/>
      <point x="293.4" y="775.87448"/>
      <point x="293.4" y="740.0" type="curve" smooth="yes"/>
      <point x="293.4" y="704.12552"/>
      <point x="322.52552" y="675.0"/>
      <point x="358.4" y="675.0" type="curve" smooth="yes"/>
      <point x="394.27448" y="675.0"/>
      <point x="423.4" y="704.12552"/>
    </contour>
    <contour>
      <point x="38.4" y="370.0" type="line"/>
      <point x="98.4" y="370.0" type="line"/>
      <point x="98.4" y="430.0" type="line"/>
      <point x="38.4" y="430.0" type="line"/>
    </contour>
    <contour>
      <point x="298.4000015258789" y="370" type="line"/>
      <point x="388.4000015258789" y="370" type="line"/>
      <point x="388.4000015258789" y="430" type="line"/>
      <point x="298.4000015258789" y="430" type="line"/>
    </contour>
    <contour>
      <point x="418.4" y="120.0" type="line"/>
      <point x="352.17019999999997" y="120.0"/>
      <point x="298.4" y="66.2298"/>
      <point x="298.4" y="0.0" type="curve"/>
      <point x="418.4" y="0.0" type="line"/>
    </contour>
    <contour>
      <point x="38.4" y="0" type="line"/>
      <point x="98.4" y="0" type="line"/>
      <point x="98.4" y="60.0" type="line"/>
      <point x="38.4" y="60.0" type="line"/>
    </contour>
  </outline>
</glyph>
<glyph name="currency" format="2">
  <advance width="356.8"/>
  <unicode hex="00A4"/>
  <outline>
    <contour>
      <point x="38.400001525878906" y="220" type="line"/>
      <point x="98.4000015258789" y="220" type="line"/>
      <point x="98.4000015258789" y="256.09549713134766" type="line"/>
      <point x="116.05474870620097" y="245.8528424972395"/>
      <point x="136.5492656946" y="239.99999999999997"/>
      <point x="158.39999999999998" y="239.99999999999994" type="curve"/>
      <point x="158.4000015258789" y="560" type="line"/>
      <point x="136.5492656946" y="560.0"/>
      <point x="116.05474870620097" y="554.1471575027605"/>
      <point x="98.4000015258789" y="543.898796081543" type="curve"/>
      <point x="98.4000015258789" y="580" type="line"/>
      <point x="38.400001525878906" y="580" type="line"/>
      <point x="38.400001525878906" y="520" type="line"/>
      <point x="68.99378967285156" y="520" type="line"/>
      <point x="38.40000022618831" y="485.8529510500356"/>
      <point x="38.399999865166855" y="447.0691401903712"/>
      <point x="38.40000058348083" y="409.40880036175156" type="curve"/>
      <point x="38.40000094239816" y="390.59119562057015" type="line"/>
      <point x="38.40000166086631" y="352.9227725120017"/>
      <point x="38.39999926486941" y="314.100190619386"/>
      <point x="69.02433776855469" y="280" type="curve"/>
      <point x="38.400001525878906" y="280" type="line"/>
    </contour>
    <contour>
      <point x="198.4000015258789" y="240" type="line"/>
      <point x="220.2507343054" y="240.0"/>
      <point x="240.74525129379902" y="245.85284249723952"/>
      <point x="258.4000015258789" y="256.10120391845703" type="curve"/>
      <point x="258.4000015258789" y="220" type="line"/>
      <point x="318.4000015258789" y="220" type="line"/>
      <point x="318.4000015258789" y="280" type="line"/>
      <point x="287.80621337890625" y="280" type="line"/>
      <point x="318.4000001027099" y="314.14705138948966"/>
      <point x="318.39999986516676" y="352.93085980962877"/>
      <point x="318.4000005834808" y="390.5911992158304" type="curve"/>
      <point x="318.400000942398" y="409.408797181804" type="line"/>
      <point x="318.40000166086634" y="447.0772274879983"/>
      <point x="318.40000023334153" y="485.8998130410086"/>
      <point x="287.7756576538086" y="520" type="curve"/>
      <point x="318.4000015258789" y="520" type="line"/>
      <point x="318.4000015258789" y="580" type="line"/>
      <point x="258.4000015258789" y="580" type="line"/>
      <point x="258.4000015258789" y="543.9045028686523" type="line"/>
      <point x="240.74525129379902" y="554.1471575027605"/>
      <point x="220.2507343054" y="560.0"/>
      <point x="198.39999999999998" y="560.0" type="curve"/>
    </contour>
  </outline>
</glyph>
<glyph name="yen" format="2">
  <advance width="556.8"/>
  <unicode hex="00A5"/>
  <outline>
    <contour>
      <point x="138.40000142963464" y="350.59119965185926" type="line"/>
      <point x="138.40000185491903" y="215.4147280911477"/>
      <point x="221.0927139764156" y="200.0"/>
      <point x="258.4" y="200.0" type="curve"/>
      <point x="258.40000142963464" y="654.4088000246977" type="line"/>
      <point x="258.40000185491897" y="789.5852715854093"/>
      <point x="175.70728602358437" y="805.0"/>
      <point x="138.4" y="805.0" type="curve"/>
    </contour>
    <contour>
      <point x="298.4000015258789" y="-5" type="line"/>
      <point x="334.5209251007315" y="-5.0"/>
      <point x="418.3999997648782" y="9.44875228465719"/>
      <point x="418.4000000681437" y="145.5911992705067" type="curve"/>
      <point x="418.4000015258789" y="800" type="line"/>
      <point x="298.4000015258789" y="800" type="line"/>
    </contour>
    <contour>
      <point x="38.4" y="545.0" type="line"/>
      <point x="98.4" y="545.0" type="line"/>
      <point x="98.4" y="605.0" type="line"/>
      <point x="38.4" y="605.0" type="line"/>
    </contour>
    <contour>
      <point x="458.4" y="545.0" type="line"/>
      <point x="518.4" y="545.0" type="line"/>
      <point x="518.4" y="605.0" type="line"/>
      <point x="458.4" y="605.0" type="line"/>
    </contour>
    <contour>
      <point x="38.4" y="395.0" type="line"/>
      <point x="98.4" y="395.0" type="line"/>
      <point x="98.4" y="455.0" type="line"/>
      <point x="38.4" y="455.0" type="line"/>
    </contour>
    <contour>
      <point x="458.4" y="395.0" type="line"/>
      <point x="518.4" y="395.0" type="line"/>
      <point x="518.4" y="455.0" type="line"/>
      <point x="458.4" y="455.0" type="line"/>
    </contour>
  </outline>
</glyph>
<glyph name="section" format="2">
  <advance width="356.8"/>
  <unicode hex="00A7"/>
  <outline>
    <contour>
      <point x="38.4000012341385" y="250.59119965185928" type="line"/>
      <point x="38.40000252328177" y="115.41472809114774"/>
      <point x="121.09271397641564" y="100.0"/>
      <point x="158.4" y="100.0" type="curve"/>
      <point x="158.4000015258789" y="800" type="line"/>
      <point x="122.2790779510263" y="800.0"/>
      <point x="38.399998657846496" y="785.5512463057518"/>
      <point x="38.40000038898723" y="649.4087993199023" type="curve"/>
      <point x="38.40000113689173" y="590.5911966074508" type="line"/>
      <point x="38.40000166428611" y="549.1152144877645"/>
      <point x="38.39999921928867" y="505.83572512592445"/>
      <point x="79.09288787841797" y="469.9971160888672" type="curve"/>
      <point x="38.40000002620649" y="434.16791632594743"/>
      <point x="38.399999896201564" y="390.88405633202484"/>
      <point x="38.40000029174042" y="349.40880069806843" type="curve"/>
    </contour>
    <contour>
      <point x="198.4" y="800.0" type="line"/>
      <point x="198.4" y="733.7702"/>
      <point x="252.1702" y="680.0"/>
      <point x="318.4" y="680.0" type="curve"/>
      <point x="318.4" y="800.0" type="line"/>
    </contour>
    <contour>
      <point x="198.4000015258789" y="-200" type="line"/>
      <point x="234.52092510073152" y="-200.0"/>
      <point x="318.39999865784637" y="-185.55124771534275"/>
      <point x="318.4000003889872" y="-49.40880072949328" type="curve"/>
      <point x="318.40000113689166" y="9.40879821978023" type="line"/>
      <point x="318.4000016642861" y="50.88478551223546"/>
      <point x="318.4000056376269" y="94.16427795713048"/>
      <point x="277.7071075439453" y="130.00287628173828" type="curve"/>
      <point x="318.3999924844982" y="165.83207935156372"/>
      <point x="318.3999998962015" y="209.11594366797513"/>
      <point x="318.4000002917404" y="250.59119904583883" type="curve"/>
      <point x="318.4000012341385" y="349.4088000246977" type="line"/>
      <point x="318.4000025232818" y="484.58527158540926"/>
      <point x="235.70728602358437" y="500.0"/>
      <point x="198.4" y="500.0" type="curve"/>
    </contour>
    <contour>
      <point x="158.4" y="-200" type="line"/>
      <point x="158.4" y="-133.7702"/>
      <point x="104.62979999999999" y="-80.0"/>
      <point x="38.4" y="-80.0" type="curve"/>
      <point x="38.4" y="-200" type="line"/>
    </contour>
  </outline>
</glyph>
<glyph name="copyright" format="2">
  <advance width="896.51422"/>
  <unicode hex="00A9"/>
  <outline>
    <contour>
      <point x="798.1142199999999" y="405.0" type="curve" smooth="yes"/>
      <point x="798.1142199999999" y="598.0914"/>
      <point x="641.34851" y="754.85711"/>
      <point x="448.25711" y="754.85711" type="curve" smooth="yes"/>
      <point x="255.16571000000002" y="754.85711"/>
      <point x="98.4" y="598.0914"/>
      <point x="98.4" y="405.0" type="curve" smooth="yes"/>
      <point x="98.4" y="211.9086"/>
      <point x="255.16571000000002" y="55.14289"/>
      <point x="448.25711" y="55.14289" type="curve" smooth="yes"/>
      <point x="641.34851" y="55.14289"/>
      <point x="798.1142199999999" y="211.9086"/>
    </contour>
    <contour>
      <point x="580.75711" y="550.0" type="curve" smooth="yes"/>
      <point x="580.75711" y="516.8851"/>
      <point x="553.87201" y="490.0"/>
      <point x="520.75711" y="490.0" type="curve" smooth="yes"/>
      <point x="487.64221" y="490.0"/>
      <point x="460.75711" y="516.8851"/>
      <point x="460.75711" y="550.0" type="curve" smooth="yes"/>
      <point x="460.75711" y="583.1149"/>
      <point x="487.64221" y="610.0"/>
      <point x="520.75711" y="610.0" type="curve" smooth="yes"/>
      <point x="553.87201" y="610.0"/>
      <point x="580.75711" y="583.1149"/>
    </contour>
    <contour>
      <point x="300.7571101104441" y="350.591199820811" type="curve"/>
      <point x="300.75711048525903" y="454.4088010046455" type="line"/>
      <point x="300.7571109732896" y="589.5852725653571"/>
      <point x="383.44982397641564" y="605.0"/>
      <point x="420.75711" y="605.0" type="curve"/>
      <point x="420.7571105957031" y="200" type="line"/>
      <point x="384.6361870208505" y="200.0"/>
      <point x="300.75710961892605" y="214.4487528349615"/>
    </contour>
    <contour>
      <point x="578.88211" y="320.0" type="curve"/>
      <point x="578.88211" y="200.0" type="line"/>
      <point x="458.88211" y="200.0" type="line"/>
      <point x="458.88211" y="266.2298"/>
      <point x="512.6523099999999" y="320.0"/>
    </contour>
  </outline>
</glyph>
<glyph name="ordinalfeminine" format="2">
  <advance width="356.8"/>
  <unicode hex="00AA"/>
  <outline>
    <contour>
      <point x="38.40000123413849" y="550.5911996518593" type="line"/>
      <point x="38.40000252328179" y="415.4147280911477"/>
      <point x="121.09271397641564" y="400.0"/>
      <point x="158.4" y="400.0" type="curve"/>
      <point x="158.4000015258789" y="800" type="line"/>
      <point x="122.2790779510263" y="800.0"/>
      <point x="38.39999899338488" y="785.5512463057519"/>
      <point x="38.40000029174042" y="649.4087993199023" type="curve"/>
    </contour>
    <contour>
      <point x="198.4000015258789" y="550.5911996518593" type="line"/>
      <point x="198.4000015258789" y="415.4147280911477"/>
      <point x="281.0927139764156" y="400.0"/>
      <point x="318.4" y="400.0" type="curve"/>
      <point x="318.4000015258789" y="800" type="line"/>
      <point x="198.4000015258789" y="800" type="line"/>
    </contour>
  </outline>
</glyph>
<glyph name="registered" format="2">
  <advance width="896.51422"/>
  <unicode hex="00AE"/>
  <outline>
    <contour>
      <point x="798.1142199999999" y="400.0" type="curve" smooth="yes"/>
      <point x="798.1142199999999" y="593.0914"/>
      <point x="641.34851" y="749.85711"/>
      <point x="448.25711" y="749.85711" type="curve" smooth="yes"/>
      <point x="255.16571000000002" y="749.85711"/>
      <point x="98.4" y="593.0914"/>
      <point x="98.4" y="400.0" type="curve" smooth="yes"/>
      <point x="98.4" y="206.9086"/>
      <point x="255.16571000000002" y="50.14289"/>
      <point x="448.25711" y="50.14289" type="curve" smooth="yes"/>
      <point x="641.34851" y="50.14289"/>
      <point x="798.1142199999999" y="206.9086"/>
    </contour>
    <contour>
      <point x="323.2571105957031" y="200" type="line"/>
      <point x="323.2571105957031" y="600" type="line"/>
      <point x="443.2571105957031" y="600" type="line"/>
      <point x="443.2571105957031" y="200" type="line"/>
    </contour>
    <contour>
      <point x="603.25711" y="540.0" type="curve" smooth="yes"/>
      <point x="603.25711" y="506.8851"/>
      <point x="576.37201" y="480.0"/>
      <point x="543.25711" y="480.0" type="curve" smooth="yes"/>
      <point x="510.14221" y="480.0"/>
      <point x="483.25711" y="506.8851"/>
      <point x="483.25711" y="540.0" type="curve" smooth="yes"/>
      <point x="483.25711" y="573.1149"/>
      <point x="510.14221" y="600.0"/>
      <point x="543.25711" y="600.0" type="curve" smooth="yes"/>
      <point x="576.37201" y="600.0"/>
      <point x="603.25711" y="573.1149"/>
    </contour>
  </outline>
</glyph>
<glyph name="sup_two" format="2">
  <advance width="356.8"/>
  <unicode hex="00B2"/>
  <outline>
    <contour>
      <point x="167.15" y="740.0" type="curve" smooth="yes"/>
      <point x="167.15" y="775.87448"/>
      <point x="138.02448" y="805.0"/>
      <point x="102.15" y="805.0" type="curve" smooth="yes"/>
      <point x="66.27552" y="805.0"/>
      <point x="37.15" y="775.87448"/>
      <point x="37.15" y="740.0" type="curve" smooth="yes"/>
      <point x="37.15" y="704.12552"/>
      <point x="66.27552" y="675.0"/>
      <point x="102.15" y="675.0" type="curve" smooth="yes"/>
      <point x="138.02448" y="675.0"/>
      <point x="167.15" y="704.12552"/>
    </contour>
    <contour>
      <point x="198.4000015258789" y="357" type="line"/>
      <point x="234.52092510073152" y="357.0"/>
      <point x="318.39999922568063" y="371.4487522846572"/>
      <point x="318.4000002244157" y="507.5911992705067" type="curve"/>
      <point x="318.4000013014632" y="654.4088000246977" type="line"/>
      <point x="318.4000022931119" y="789.5852715854093"/>
      <point x="235.70728602358437" y="805.0"/>
      <point x="198.4" y="805.0" type="curve"/>
    </contour>
    <contour>
      <point x="38.4" y="200.0" type="curve"/>
      <point x="318.4000015258789" y="200" type="line"/>
      <point x="318.4000015258789" y="320" type="line"/>
      <point x="188.99120220597666" y="320.0" type="line"/>
      <point x="53.814730645265115" y="320.0"/>
      <point x="38.4" y="237.30728602358437"/>
    </contour>
  </outline>
</glyph>
<glyph name="sup_three" format="2">
  <advance width="356.8"/>
  <unicode hex="00B3"/>
  <outline>
    <contour>
      <point x="163.4" y="740.0" type="curve" smooth="yes"/>
      <point x="163.4" y="775.87448"/>
      <point x="134.27448" y="805.0"/>
      <point x="98.4" y="805.0" type="curve" smooth="yes"/>
      <point x="62.52552" y="805.0"/>
      <point x="33.4" y="775.87448"/>
      <point x="33.4" y="740.0" type="curve" smooth="yes"/>
      <point x="33.4" y="704.12552"/>
      <point x="62.52552" y="675.0"/>
      <point x="98.4" y="675.0" type="curve" smooth="yes"/>
      <point x="134.27448" y="675.0"/>
      <point x="163.4" y="704.12552"/>
    </contour>
    <contour>
      <point x="198.4000015258789" y="600" type="line"/>
      <point x="234.52092510073152" y="600.0"/>
      <point x="318.3999979867697" y="614.4487522846572"/>
      <point x="318.4000005834808" y="750.5911992705066" type="curve"/>
      <point x="318.4000015258789" y="800" type="line"/>
      <point x="198.4000015258789" y="800" type="line"/>
    </contour>
    <contour>
      <point x="198.4000015258789" y="195" type="line"/>
      <point x="234.52092510073152" y="195.0"/>
      <point x="318.3999990238883" y="209.4487522846572"/>
      <point x="318.4000002828998" y="345.5911992705067" type="curve"/>
      <point x="318.4000012429791" y="449.40880002469777" type="line"/>
      <point x="318.4000024930575" y="584.5852715854094"/>
      <point x="235.70728602358437" y="600.0"/>
      <point x="198.4" y="600.0" type="curve"/>
    </contour>
    <contour>
      <point x="163.4" y="260.0" type="curve" smooth="yes"/>
      <point x="163.4" y="295.87448"/>
      <point x="134.27448" y="325.0"/>
      <point x="98.4" y="325.0" type="curve" smooth="yes"/>
      <point x="62.52552" y="325.0"/>
      <point x="33.4" y="295.87448"/>
      <point x="33.4" y="260.0" type="curve" smooth="yes"/>
      <point x="33.4" y="224.12552"/>
      <point x="62.52552" y="195.0"/>
      <point x="98.4" y="195.0" type="curve" smooth="yes"/>
      <point x="134.27448" y="195.0"/>
      <point x="163.4" y="224.12552"/>
    </contour>
  </outline>
</glyph>
<glyph name="acute" format="2">
  <advance width="196.8"/>
  <unicode hex="00B4"/>
  <outline>
    <contour>
      <point x="90.9" y="800.0" type="line"/>
      <point x="157.1298" y="800.0"/>
      <point x="210.9" y="853.7702"/>
      <point x="210.9" y="920.0" type="curve"/>
      <point x="90.9" y="920.0" type="line"/>
    </contour>
  </outline>
</glyph>
<glyph name="periodcentered" format="2">
  <advance width="196.8"/>
  <unicode hex="00B7"/>
  <outline>
    <contour>
      <point x="163.4" y="400.0" type="curve" smooth="yes"/>
      <point x="163.4" y="435.87448"/>
      <point x="134.27448" y="465.0"/>
      <point x="98.4" y="465.0" type="curve" smooth="yes"/>
      <point x="62.52552" y="465.0"/>
      <point x="33.4" y="435.87448"/>
      <point x="33.4" y="400.0" type="curve" smooth="yes"/>
      <point x="33.4" y="364.12552"/>
      <point x="62.52552" y="335.0"/>
      <point x="98.4" y="335.0" type="curve" smooth="yes"/>
      <point x="134.27448" y="335.0"/>
      <point x="163.4" y="364.12552"/>
    </contour>
  </outline>
</glyph>
<glyph name="ordinalmasculine" format="2">
  <advance width="356.8"/>
  <unicode hex="00BA"/>
  <outline>
    <contour>
      <point x="38.40000123413849" y="550.5911996518593" type="line"/>
      <point x="38.40000252328179" y="415.4147280911477"/>
      <point x="121.09271397641564" y="400.0"/>
      <point x="158.4" y="400.0" type="curve"/>
      <point x="158.4000015258789" y="800" type="line"/>
      <point x="122.2790779510263" y="800.0"/>
      <point x="38.39999899338488" y="785.5512463057519"/>
      <point x="38.40000029174042" y="649.4087993199023" type="curve"/>
    </contour>
    <contour>
      <point x="198.4000015258789" y="400" type="line"/>
      <point x="234.52092510073152" y="400.0"/>
      <point x="318.3999989933848" y="414.44875228465725"/>
      <point x="318.4000002917404" y="550.5911992705068" type="curve"/>
      <point x="318.4000012341385" y="649.4088000246977" type="line"/>
      <point x="318.4000025232818" y="784.5852715854093"/>
      <point x="235.70728602358437" y="800.0"/>
      <point x="198.4" y="800.0" type="curve"/>
    </contour>
  </outline>
</glyph>
<glyph name="angledblright" format="2">
  <advance width="356.8"/>
  <unicode hex="00BB"/>
  <outline>
    <contour>
      <point x="38.400001525878906" y="280" type="line"/>
      <point x="104.62979999999999" y="280.0"/>
      <point x="158.4" y="333.7702"/>
      <point x="158.4" y="400.0" type="curve"/>
      <point x="158.4" y="466.2298"/>
      <point x="104.62979999999999" y="520.0"/>
      <point x="38.4" y="520.0" type="curve"/>
    </contour>
    <contour>
      <point x="198.4000015258789" y="280" type="line"/>
      <point x="264.6298" y="280.0"/>
      <point x="318.4" y="333.7702"/>
      <point x="318.4" y="400.0" type="curve"/>
      <point x="318.4" y="466.2298"/>
      <point x="264.6298" y="520.0"/>
      <point x="198.4" y="520.0" type="curve"/>
    </contour>
  </outline>
</glyph>
<glyph name="one_over_four" format="2">
  <advance width="676.8"/>
  <unicode hex="00BC"/>
  <outline>
    <contour>
      <point x="18.400001525878906" y="200" type="line"/>
      <point x="138.4000015258789" y="200" type="line"/>
      <point x="138.4000015258789" y="800" type="line"/>
      <point x="18.400001525878906" y="800" type="line"/>
    </contour>
    <contour>
      <point x="198.4000015258789" y="-200" type="line"/>
      <point x="234.52092510073152" y="-200.0"/>
      <point x="318.39999981697906" y="-185.55124771534278"/>
      <point x="318.4000000530437" y="-49.40880072949327" type="curve"/>
      <point x="318.4000015258789" y="800" type="line"/>
      <point x="282.2790779510263" y="800.0"/>
      <point x="198.39999981697906" y="785.5512463057519"/>
      <point x="198.40000005304373" y="649.4087993199023" type="curve"/>
    </contour>
    <contour>
      <point x="378.4000015258789" y="0" type="line"/>
      <point x="414.5209251007315" y="0.0"/>
      <point x="498.3999994247913" y="14.44875228465719"/>
      <point x="498.40000016670876" y="150.5911992705067" type="curve"/>
      <point x="498.4000015258789" y="400" type="line"/>
      <point x="378.4000015258789" y="400" type="line"/>
    </contour>
    <contour>
      <point x="538.4000015258789" y="-200" type="line"/>
      <point x="658.4000015258789" y="-200" type="line"/>
      <point x="658.4000015258789" y="200" type="line"/>
      <point x="538.4000015258789" y="200" type="line"/>
    </contour>
  </outline>
</glyph>
<glyph name="one_over_two" format="2">
  <advance width="676.8"/>
  <unicode hex="00BD"/>
  <outline>
    <contour>
      <point x="18.400001525878906" y="200" type="line"/>
      <point x="138.4000015258789" y="200" type="line"/>
      <point x="138.4000015258789" y="800" type="line"/>
      <point x="18.400001525878906" y="800" type="line"/>
    </contour>
    <contour>
      <point x="198.4000015258789" y="-200" type="line"/>
      <point x="234.52092510073152" y="-200.0"/>
      <point x="318.39999981697906" y="-185.55124771534278"/>
      <point x="318.4000000530437" y="-49.40880072949327" type="curve"/>
      <point x="318.4000015258789" y="800" type="line"/>
      <point x="282.2790779510263" y="800.0"/>
      <point x="198.39999981697906" y="785.5512463057519"/>
      <point x="198.40000005304373" y="649.4087993199023" type="curve"/>
    </contour>
    <contour>
      <point x="507.15" y="340.0" type="curve" smooth="yes"/>
      <point x="507.15" y="375.87448"/>
      <point x="478.02448" y="405.0"/>
      <point x="442.15" y="405.0" type="curve" smooth="yes"/>
      <point x="406.27552" y="405.0"/>
      <point x="377.15" y="375.87448"/>
      <point x="377.15" y="340.0" type="curve" smooth="yes"/>
      <point x="377.15" y="304.12552"/>
      <point x="406.27552" y="275.0"/>
      <point x="442.15" y="275.0" type="curve" smooth="yes"/>
      <point x="478.02448" y="275.0"/>
      <point x="507.15" y="304.12552"/>
    </contour>
    <contour>
      <point x="538.4000015258789" y="-43" type="line"/>
      <point x="574.5209251007316" y="-43.0"/>
      <point x="658.3999992256806" y="-28.55124771534284"/>
      <point x="658.4000002244156" y="107.59119927050668" type="curve"/>
      <point x="658.4000013014632" y="254.40880002469774" type="line"/>
      <point x="658.4000022931119" y="389.58527158540926"/>
      <point x="575.7072860235843" y="405.0"/>
      <point x="538.4" y="405.0" type="curve"/>
    </contour>
    <contour>
      <point x="378.4" y="-200.0" type="curve"/>
      <point x="658.4000015258789" y="-200" type="line"/>
      <point x="658.4000015258789" y="-80" type="line"/>
      <point x="528.9912022059767" y="-80.0" type="line"/>
      <point x="393.8147306452652" y="-79.99999999999999"/>
      <point x="378.4" y="-162.69271397641563"/>
    </contour>
  </outline>
</glyph>
<glyph name="three_over_four" format="2">
  <advance width="836.8"/>
  <unicode hex="00BE"/>
  <outline>
    <contour>
      <point x="143.4" y="740.0" type="curve" smooth="yes"/>
      <point x="143.4" y="775.87448"/>
      <point x="114.27448000000001" y="805.0"/>
      <point x="78.4" y="805.0" type="curve" smooth="yes"/>
      <point x="42.52552" y="805.0"/>
      <point x="13.399999999999999" y="775.87448"/>
      <point x="13.399999999999999" y="740.0" type="curve" smooth="yes"/>
      <point x="13.399999999999999" y="704.12552"/>
      <point x="42.52552" y="675.0"/>
      <point x="78.4" y="675.0" type="curve" smooth="yes"/>
      <point x="114.27448000000001" y="675.0"/>
      <point x="143.4" y="704.12552"/>
    </contour>
    <contour>
      <point x="178.4000015258789" y="600" type="line"/>
      <point x="214.52092510073152" y="600.0"/>
      <point x="298.3999979867697" y="614.4487522846572"/>
      <point x="298.4000005834808" y="750.5911992705066" type="curve"/>
      <point x="298.4000015258789" y="800" type="line"/>
      <point x="178.4000015258789" y="800" type="line"/>
    </contour>
    <contour>
      <point x="358.4000015258789" y="-200" type="line"/>
      <point x="394.5209251007315" y="-200.0"/>
      <point x="478.39999981697906" y="-185.55124771534278"/>
      <point x="478.4000000530437" y="-49.40880072949327" type="curve"/>
      <point x="478.4000015258789" y="800" type="line"/>
      <point x="442.2790779510263" y="800.0"/>
      <point x="358.39999981697906" y="785.5512463057519"/>
      <point x="358.4000000530437" y="649.4087993199023" type="curve"/>
    </contour>
    <contour>
      <point x="178.4000015258789" y="195" type="line"/>
      <point x="214.52092510073152" y="195.0"/>
      <point x="298.3999990238883" y="209.44875228465725"/>
      <point x="298.4000002828998" y="345.59119927050676" type="curve"/>
      <point x="298.4000012429791" y="449.4088000246977" type="line"/>
      <point x="298.4000024930575" y="584.5852715854093"/>
      <point x="215.70728602358437" y="600.0"/>
      <point x="178.4" y="600.0" type="curve"/>
    </contour>
    <contour>
      <point x="538.4000015258789" y="0" type="line"/>
      <point x="574.5209251007316" y="0.0"/>
      <point x="658.3999994247913" y="14.44875228465716"/>
      <point x="658.4000001667088" y="150.59119927050668" type="curve"/>
      <point x="658.4000015258789" y="400" type="line"/>
      <point x="538.4000015258789" y="400" type="line"/>
    </contour>
    <contour>
      <point x="143.4" y="260.0" type="curve" smooth="yes"/>
      <point x="143.4" y="295.87448"/>
      <point x="114.27448000000001" y="325.0"/>
      <point x="78.4" y="325.0" type="curve" smooth="yes"/>
      <point x="42.52552" y="325.0"/>
      <point x="13.399999999999999" y="295.87448"/>
      <point x="13.399999999999999" y="260.0" type="curve" smooth="yes"/>
      <point x="13.399999999999999" y="224.12552"/>
      <point x="42.52552" y="195.0"/>
      <point x="78.4" y="195.0" type="curve" smooth="yes"/>
      <point x="114.27448000000001" y="195.0"/>
      <point x="143.4" y="224.12552"/>
    </contour>
    <contour>
      <point x="698.4000015258789" y="-200" type="line"/>
      <point x="818.4000015258789" y="-200" type="line"/>
      <point x="818.4000015258789" y="200" type="line"/>
      <point x="698.4000015258789" y="200" type="line"/>
    </contour>
  </outline>
</glyph>
<glyph name="invquestion" format="2">
  <advance width="356.8"/>
  <unicode hex="00BF"/>
  <outline>
    <contour>
      <point x="323.4" y="546.25" type="curve" smooth="yes"/>
      <point x="323.4" y="582.12448"/>
      <point x="294.27448" y="611.25"/>
      <point x="258.4" y="611.25" type="curve" smooth="yes"/>
      <point x="222.52552" y="611.25"/>
      <point x="193.4" y="582.12448"/>
      <point x="193.4" y="546.25" type="curve" smooth="yes"/>
      <point x="193.4" y="510.37552"/>
      <point x="222.52552" y="481.25"/>
      <point x="258.4" y="481.25" type="curve" smooth="yes"/>
      <point x="294.27448" y="481.25"/>
      <point x="323.4" y="510.37552"/>
    </contour>
    <contour>
      <point x="198.4000015258789" y="80" type="line"/>
      <point x="234.52092510073152" y="80.0"/>
      <point x="318.3999992111424" y="94.44875228465722"/>
      <point x="318.4000002286292" y="230.59119927050673" type="curve"/>
      <point x="318.4000015258789" y="404.1666717529297" type="line"/>
      <point x="198.4000015258789" y="404.1666717529297" type="line"/>
    </contour>
    <contour>
      <point x="38.40000123413849" y="-54.408800348140716" type="line"/>
      <point x="38.40000252328179" y="-189.58527190885226"/>
      <point x="121.09271397641564" y="-205.0"/>
      <point x="158.4" y="-205.0" type="curve"/>
      <point x="158.4000015258789" y="195" type="line"/>
      <point x="122.2790779510263" y="195.0"/>
      <point x="38.39999899338488" y="180.5512463057518"/>
      <point x="38.40000029174042" y="44.40879931990227" type="curve"/>
    </contour>
    <contour>
      <point x="323.4" y="-152.5" type="curve" smooth="yes"/>
      <point x="323.4" y="-116.62552"/>
      <point x="294.27448" y="-87.5"/>
      <point x="258.4" y="-87.5" type="curve" smooth="yes"/>
      <point x="222.52552" y="-87.5"/>
      <point x="193.4" y="-116.62552"/>
      <point x="193.4" y="-152.5" type="curve" smooth="yes"/>
      <point x="193.4" y="-188.37448"/>
      <point x="222.52552" y="-217.5"/>
      <point x="258.4" y="-217.5" type="curve" smooth="yes"/>
      <point x="294.27448" y="-217.5"/>
      <point x="323.4" y="-188.37448"/>
    </contour>
  </outline>
</glyph>
<glyph name="A_with_grave" format="2">
  <advance width="356.8"/>
  <unicode hex="00C0"/>
  <outline>
    <contour>
      <point x="65.9" y="964.4444444444445" type="line"/>
      <point x="65.9" y="898.2146444444445"/>
      <point x="119.67020000000001" y="844.4444444444445"/>
      <point x="185.9" y="844.4444444444445" type="curve"/>
      <point x="185.9" y="964.4444444444445" type="line"/>
    </contour>
    <contour>
      <point x="38.400001525878906" y="0" type="line"/>
      <point x="158.4000015258789" y="0" type="line"/>
      <point x="158.4000015258789" y="805" type="line"/>
      <point x="122.2790779510263" y="805.0"/>
      <point x="38.39999976487821" y="790.5512463057519"/>
      <point x="38.40000006814375" y="654.4087993199023" type="curve"/>
    </contour>
    <contour>
      <point x="198.4000015258789" y="0" type="line"/>
      <point x="318.4000015258789" y="0" type="line"/>
      <point x="318.4000015258789" y="654.4088000246977" type="line"/>
      <point x="318.4000015258789" y="789.5852715854093"/>
      <point x="235.70728602358437" y="805.0"/>
      <point x="198.4" y="805.0" type="curve"/>
    </contour>
  </outline>
</glyph>
<glyph name="A_with_smalltilde" format="2">
  <advance width="356.8"/>
  <unicode hex="00C3"/>
  <outline>
    <contour>
      <point x="147.80880281149217" y="844.4444431812315" type="line"/>
      <point x="282.98527437220366" y="844.4444412713896"/>
      <point x="298.4" y="927.1371584208601"/>
      <point x="298.4" y="964.4444444444445" type="curve"/>
      <point x="208.99120142287052" y="964.4444431812315" type="line"/>
      <point x="73.814729862159" y="964.4444412713895"/>
      <point x="58.400000000000006" y="881.7517304680288"/>
      <point x="58.400000000000006" y="844.4444444444445" type="curve"/>
    </contour>
    <contour>
      <point x="38.400001525878906" y="0" type="line"/>
      <point x="158.4000015258789" y="0" type="line"/>
      <point x="158.4000015258789" y="805" type="line"/>
      <point x="122.2790779510263" y="805.0"/>
      <point x="38.39999976487821" y="790.5512463057519"/>
      <point x="38.40000006814375" y="654.4087993199023" type="curve"/>
    </contour>
    <contour>
      <point x="198.4000015258789" y="0" type="line"/>
      <point x="318.4000015258789" y="0" type="line"/>
      <point x="318.4000015258789" y="654.4088000246977" type="line"/>
      <point x="318.4000015258789" y="789.5852715854093"/>
      <point x="235.70728602358437" y="805.0"/>
      <point x="198.4" y="805.0" type="curve"/>
    </contour>
  </outline>
</glyph>
<glyph name="A_with_diaeresis" format="2">
  <advance width="356.8"/>
  <unicode hex="00C4"/>
  <outline>
    <contour>
      <point x="163.4" y="904.4444444444445" type="curve" smooth="yes"/>
      <point x="163.4" y="940.3189244444445"/>
      <point x="134.27448" y="969.4444444444445"/>
      <point x="98.4" y="969.4444444444445" type="curve" smooth="yes"/>
      <point x="62.52552000000001" y="969.4444444444445"/>
      <point x="33.400000000000006" y="940.3189244444445"/>
      <point x="33.400000000000006" y="904.4444444444445" type="curve" smooth="yes"/>
      <point x="33.400000000000006" y="868.5699644444445"/>
      <point x="62.52552000000001" y="839.4444444444445"/>
      <point x="98.4" y="839.4444444444445" type="curve" smooth="yes"/>
      <point x="134.27448" y="839.4444444444445"/>
      <point x="163.4" y="868.5699644444445"/>
    </contour>
    <contour>
      <point x="323.4" y="904.4444444444445" type="curve" smooth="yes"/>
      <point x="323.4" y="940.3189244444445"/>
      <point x="294.27448000000004" y="969.4444444444445"/>
      <point x="258.4" y="969.4444444444445" type="curve" smooth="yes"/>
      <point x="222.52552" y="969.4444444444445"/>
      <point x="193.4" y="940.3189244444445"/>
      <point x="193.4" y="904.4444444444445" type="curve" smooth="yes"/>
      <point x="193.4" y="868.5699644444445"/>
      <point x="222.52552" y="839.4444444444445"/>
      <point x="258.4" y="839.4444444444445" type="curve" smooth="yes"/>
      <point x="294.27448000000004" y="839.4444444444445"/>
      <point x="323.4" y="868.5699644444445"/>
    </contour>
    <contour>
      <point x="38.400001525878906" y="0" type="line"/>
      <point x="158.4000015258789" y="0" type="line"/>
      <point x="158.4000015258789" y="805" type="line"/>
      <point x="122.2790779510263" y="805.0"/>
      <point x="38.39999976487821" y="790.5512463057519"/>
      <point x="38.40000006814375" y="654.4087993199023" type="curve"/>
    </contour>
    <contour>
      <point x="198.4000015258789" y="0" type="line"/>
      <point x="318.4000015258789" y="0" type="line"/>
      <point x="318.4000015258789" y="654.4088000246977" type="line"/>
      <point x="318.4000015258789" y="789.5852715854093"/>
      <point x="235.70728602358437" y="805.0"/>
      <point x="198.4" y="805.0" type="curve"/>
    </contour>
  </outline>
</glyph>
<glyph name="A_with_ring" format="2">
  <advance width="356.8"/>
  <unicode hex="00C5"/>
  <outline>
    <contour>
      <point x="158.4" y="969.4444444444445" type="line"/>
      <point x="122.52552" y="969.4444444444445"/>
      <point x="93.4" y="940.3189244444445"/>
      <point x="93.4" y="904.4444444444445" type="curve" smooth="yes"/>
      <point x="93.4" y="868.5699644444445"/>
      <point x="122.52552" y="839.4444444444445"/>
      <point x="158.4" y="839.4444444444445" type="curve"/>
    </contour>
    <contour>
      <point x="198.4" y="839.4444444444445" type="line"/>
      <point x="234.27448" y="839.4444444444445"/>
      <point x="263.4" y="868.5699644444445"/>
      <point x="263.4" y="904.4444444444445" type="curve" smooth="yes"/>
      <point x="263.4" y="940.3189244444445"/>
      <point x="234.27448" y="969.4444444444445"/>
      <point x="198.4" y="969.4444444444445" type="curve"/>
    </contour>
    <contour>
      <point x="38.400001525878906" y="0" type="line"/>
      <point x="158.4000015258789" y="0" type="line"/>
      <point x="158.4000015258789" y="805" type="line"/>
      <point x="122.2790779510263" y="805.0"/>
      <point x="38.39999976487821" y="790.5512463057519"/>
      <point x="38.40000006814375" y="654.4087993199023" type="curve"/>
    </contour>
    <contour>
      <point x="198.4000015258789" y="0" type="line"/>
      <point x="318.4000015258789" y="0" type="line"/>
      <point x="318.4000015258789" y="654.4088000246977" type="line"/>
      <point x="318.4000015258789" y="789.5852715854093"/>
      <point x="235.70728602358437" y="805.0"/>
      <point x="198.4" y="805.0" type="curve"/>
    </contour>
  </outline>
</glyph>
<glyph name="ETH" format="2">
  <advance width="516.8"/>
  <unicode hex="00D0"/>
  <outline>
    <contour>
      <point x="198.4000015258789" y="0" type="line"/>
      <point x="318.4000015258789" y="0" type="line"/>
      <point x="318.4000015258789" y="800" type="line"/>
      <point x="198.4000015258789" y="800" type="line"/>
      <point x="198.4000015258789" y="454.7760543823242" type="line"/>
      <point x="149.2206752608673" y="439.8130466700146"/>
      <point x="113.4" y="394.05669653020004"/>
      <point x="113.39999999999998" y="340.0" type="curve"/>
      <point x="198.4000015258789" y="340" type="line"/>
    </contour>
    <contour>
      <point x="358.4000015258789" y="0" type="line"/>
      <point x="394.5209251007315" y="0.0"/>
      <point x="478.39999971239564" y="14.44875228465719"/>
      <point x="478.40000008335437" y="150.5911992705067" type="curve"/>
      <point x="478.4000014425245" y="649.4088000246977" type="line"/>
      <point x="478.40000181085117" y="784.5852715854093"/>
      <point x="395.70728602358435" y="800.0"/>
      <point x="358.4" y="800.0" type="curve"/>
    </contour>
  </outline>
</glyph>
<glyph name="N_with_smalltilde" format="2">
  <advance width="356.8"/>
  <unicode hex="00D1"/>
  <outline>
    <contour>
      <point x="147.80880281149217" y="844.4444431812315" type="line"/>
      <point x="282.98527437220366" y="844.4444412713896"/>
      <point x="298.4" y="927.1371584208601"/>
      <point x="298.4" y="964.4444444444445" type="curve"/>
      <point x="208.99120142287052" y="964.4444431812315" type="line"/>
      <point x="73.814729862159" y="964.4444412713895"/>
      <point x="58.400000000000006" y="881.7517304680288"/>
      <point x="58.400000000000006" y="844.4444444444445" type="curve"/>
    </contour>
    <contour>
      <point x="38.400001525878906" y="0" type="line"/>
      <point x="158.4000015258789" y="0" type="line"/>
      <point x="158.4000015258789" y="800" type="line"/>
      <point x="38.400001525878906" y="800" type="line"/>
    </contour>
    <contour>
      <point x="198.4000015258789" y="0" type="line"/>
      <point x="318.4000015258789" y="0" type="line"/>
      <point x="318.4000015258789" y="649.4088000246977" type="line"/>
      <point x="318.4000015258789" y="784.5852715854093"/>
      <point x="235.70728602358437" y="800.0"/>
      <point x="198.4" y="800.0" type="curve"/>
    </contour>
  </outline>
</glyph>
<glyph name="O_with_smalltilde" format="2">
  <advance width="356.8"/>
  <unicode hex="00D5"/>
  <outline>
    <contour>
      <point x="147.80880281149217" y="844.4444431812315" type="line"/>
      <point x="282.98527437220366" y="844.4444412713896"/>
      <point x="298.4" y="927.1371584208601"/>
      <point x="298.4" y="964.4444444444445" type="curve"/>
      <point x="208.99120142287052" y="964.4444431812315" type="line"/>
      <point x="73.814729862159" y="964.4444412713895"/>
      <point x="58.400000000000006" y="881.7517304680288"/>
      <point x="58.400000000000006" y="844.4444444444445" type="curve"/>
    </contour>
    <contour>
      <point x="38.40000144398686" y="145.59119965185928" type="line"/>
      <point x="38.40000180585164" y="10.414728091147737"/>
      <point x="121.09271397641564" y="-4.999999999999996"/>
      <point x="158.4" y="-5.0" type="curve"/>
      <point x="158.4000015258789" y="805" type="line"/>
      <point x="122.2790779510263" y="805.0"/>
      <point x="38.39999971744136" y="790.5512463057519"/>
      <point x="38.400000081892046" y="654.4087993199023" type="curve"/>
    </contour>
    <contour>
      <point x="198.4000015258789" y="-5" type="line"/>
      <point x="234.52092510073152" y="-5.0"/>
      <point x="318.39999971744135" y="9.44875228465719"/>
      <point x="318.400000081892" y="145.5911992705067" type="curve"/>
      <point x="318.40000144398687" y="654.4088000246977" type="line"/>
      <point x="318.4000018058516" y="789.5852715854093"/>
      <point x="235.70728602358437" y="805.0"/>
      <point x="198.4" y="805.0" type="curve"/>
    </contour>
  </outline>
</glyph>
<glyph name="O_with_diaeresis" format="2">
  <advance width="356.8"/>
  <unicode hex="00D6"/>
  <outline>
    <contour>
      <point x="163.4" y="904.4444444444445" type="curve" smooth="yes"/>
      <point x="163.4" y="940.3189244444445"/>
      <point x="134.27448" y="969.4444444444445"/>
      <point x="98.4" y="969.4444444444445" type="curve" smooth="yes"/>
      <point x="62.52552000000001" y="969.4444444444445"/>
      <point x="33.400000000000006" y="940.3189244444445"/>
      <point x="33.400000000000006" y="904.4444444444445" type="curve" smooth="yes"/>
      <point x="33.400000000000006" y="868.5699644444445"/>
      <point x="62.52552000000001" y="839.4444444444445"/>
      <point x="98.4" y="839.4444444444445" type="curve" smooth="yes"/>
      <point x="134.27448" y="839.4444444444445"/>
      <point x="163.4" y="868.5699644444445"/>
    </contour>
    <contour>
      <point x="323.4" y="904.4444444444445" type="curve" smooth="yes"/>
      <point x="323.4" y="940.3189244444445"/>
      <point x="294.27448000000004" y="969.4444444444445"/>
      <point x="258.4" y="969.4444444444445" type="curve" smooth="yes"/>
      <point x="222.52552" y="969.4444444444445"/>
      <point x="193.4" y="940.3189244444445"/>
      <point x="193.4" y="904.4444444444445" type="curve" smooth="yes"/>
      <point x="193.4" y="868.5699644444445"/>
      <point x="222.52552" y="839.4444444444445"/>
      <point x="258.4" y="839.4444444444445" type="curve" smooth="yes"/>
      <point x="294.27448000000004" y="839.4444444444445"/>
      <point x="323.4" y="868.5699644444445"/>
    </contour>
    <contour>
      <point x="38.40000144398686" y="145.59119965185928" type="line"/>
      <point x="38.40000180585164" y="10.414728091147737"/>
      <point x="121.09271397641564" y="-4.999999999999996"/>
      <point x="158.4" y="-5.0" type="curve"/>
      <point x="158.4000015258789" y="805" type="line"/>
      <point x="122.2790779510263" y="805.0"/>
      <point x="38.39999971744136" y="790.5512463057519"/>
      <point x="38.400000081892046" y="654.4087993199023" type="curve"/>
    </contour>
    <contour>
      <point x="198.4000015258789" y="-5" type="line"/>
      <point x="234.52092510073152" y="-5.0"/>
      <point x="318.39999971744135" y="9.44875228465719"/>
      <point x="318.400000081892" y="145.5911992705067" type="curve"/>
      <point x="318.40000144398687" y="654.4088000246977" type="line"/>
      <point x="318.4000018058516" y="789.5852715854093"/>
      <point x="235.70728602358437" y="805.0"/>
      <point x="198.4" y="805.0" type="curve"/>
    </contour>
  </outline>
</glyph>
<glyph name="multiply" format="2">
  <advance width="356.8"/>
  <unicode hex="00D7"/>
  <outline>
    <contour>
      <point x="38.400001525878906" y="550.5911996518593" type="line"/>
      <point x="38.40000152587891" y="415.4147280911477"/>
      <point x="121.09271397641564" y="400.0"/>
      <point x="158.4" y="400.0" type="curve"/>
      <point x="158.4000015258789" y="600" type="line"/>
      <point x="38.400001525878906" y="600" type="line"/>
    </contour>
    <contour>
      <point x="198.4000015258789" y="400" type="line"/>
      <point x="234.52092510073152" y="400.0"/>
      <point x="318.3999979867697" y="414.4487522846573"/>
      <point x="318.4000005834808" y="550.5911992705068" type="curve"/>
      <point x="318.4000015258789" y="600" type="line"/>
      <point x="198.4000015258789" y="600" type="line"/>
    </contour>
    <contour>
      <point x="38.400001525878906" y="200" type="line"/>
      <point x="158.4000015258789" y="200" type="line"/>
      <point x="158.4000015258789" y="400" type="line"/>
      <point x="122.2790779510263" y="400.0"/>
      <point x="38.39999798676975" y="385.55124630575176"/>
      <point x="38.400000583480846" y="249.40879931990227" type="curve"/>
    </contour>
    <contour>
      <point x="198.4000015258789" y="200" type="line"/>
      <point x="318.4000015258789" y="200" type="line"/>
      <point x="318.4000015258789" y="249.4088000246977" type="line"/>
      <point x="318.4000015258789" y="384.58527158540926"/>
      <point x="235.70728602358437" y="400.0"/>
      <point x="198.4" y="400.0" type="curve"/>
    </contour>
  </outline>
</glyph>
<glyph name="O_with_stroke" format="2">
  <advance width="356.8"/>
  <unicode hex="00D8"/>
  <outline>
    <contour>
      <point x="198.4000015258789" y="-5" type="line"/>
      <point x="234.52092510073152" y="-5.0"/>
      <point x="318.39999971744135" y="9.44875228465719"/>
      <point x="318.400000081892" y="145.5911992705067" type="curve"/>
      <point x="318.40000144398687" y="654.4087956839961" type="line"/>
      <point x="318.4000015388249" y="689.8360412527563"/>
      <point x="318.39999899900477" y="726.3598808539655"/>
      <point x="292.94193267822266" y="758.8663940429688" type="curve"/>
      <point x="326.2808509210524" y="780.1688957083849"/>
      <point x="348.3999999999999" y="817.5217295653999"/>
      <point x="348.3999999999999" y="859.9999999999999" type="curve"/>
      <point x="228.4000015258789" y="860" type="line"/>
      <point x="228.4000015258789" y="801.2097091674805" type="line"/>
      <point x="218.81010778902223" y="803.684964748529"/>
      <point x="208.75741350279998" y="805.0000000000001"/>
      <point x="198.4" y="805.0000000000001" type="curve"/>
    </contour>
    <contour>
      <point x="38.40000144398687" y="145.59119459045246" type="line"/>
      <point x="38.400001538824895" y="110.1639587472437"/>
      <point x="38.40000103317775" y="73.64011678119901"/>
      <point x="63.858070373535156" y="41.13360595703125" type="curve"/>
      <point x="30.519149078947557" y="19.831104291615105"/>
      <point x="8.40000000000001" y="-17.52172956540001"/>
      <point x="8.40000000000002" y="-60.00000000000001" type="curve"/>
      <point x="128.4000015258789" y="-60" type="line"/>
      <point x="128.4000015258789" y="-1.209716796875" type="line"/>
      <point x="137.98989221097776" y="-3.6849647485288886"/>
      <point x="148.0425864972" y="-5.000000000000009"/>
      <point x="158.39999999999998" y="-5.000000000000009" type="curve"/>
      <point x="158.4000015258789" y="805" type="line"/>
      <point x="122.2790779510263" y="805.0"/>
      <point x="38.39999971744136" y="790.5512463057519"/>
      <point x="38.400000081892046" y="654.4087993199023" type="curve"/>
    </contour>
  </outline>
</glyph>
<glyph name="THORN" format="2">
  <advance width="356.8"/>
  <unicode hex="00DE"/>
  <outline>
    <contour>
      <point x="38.400001525878906" y="0" type="line"/>
      <point x="158.4000015258789" y="0" type="line"/>
      <point x="158.4000015258789" y="800" type="line"/>
      <point x="38.400001525878906" y="800" type="line"/>
    </contour>
    <contour>
      <point x="198.4000015258789" y="100" type="line"/>
      <point x="234.52092510073152" y="100.0"/>
      <point x="318.3999995526155" y="114.44875228465722"/>
      <point x="318.4000001296624" y="250.59119927050673" type="curve"/>
      <point x="318.4000013962165" y="549.4088000246977" type="line"/>
      <point x="318.4000019691691" y="684.5852715854093"/>
      <point x="235.70728602358437" y="700.0"/>
      <point x="198.4" y="700.0" type="curve"/>
    </contour>
  </outline>
</glyph>
<glyph name="eszett" format="2">
  <advance width="356.8"/>
  <unicode hex="00DF"/>
  <outline>
    <contour>
      <point x="38.400001525878906" y="0" type="line"/>
      <point x="158.4000015258789" y="0" type="line"/>
      <point x="158.4000015258789" y="800" type="line"/>
      <point x="122.2790779510263" y="800.0"/>
      <point x="38.399999763149374" y="785.5512463057519"/>
      <point x="38.40000006864481" y="649.4087993199023" type="curve"/>
    </contour>
    <contour>
      <point x="198.4000015258789" y="400" type="line"/>
      <point x="234.52092510073152" y="400.0"/>
      <point x="318.3999989933848" y="414.44875228465725"/>
      <point x="318.4000002917404" y="550.5911992705068" type="curve"/>
      <point x="318.4000012341385" y="649.4088000246977" type="line"/>
      <point x="318.4000025232818" y="784.5852715854093"/>
      <point x="235.70728602358437" y="800.0"/>
      <point x="198.4" y="800.0" type="curve"/>
    </contour>
    <contour>
      <point x="198.4000015258789" y="0" type="line"/>
      <point x="234.52092510073152" y="0.0"/>
      <point x="318.3999989933848" y="14.44875228465719"/>
      <point x="318.4000002917404" y="150.5911992705067" type="curve"/>
      <point x="318.4000012341385" y="249.4088000246977" type="line"/>
      <point x="318.4000025232818" y="384.58527158540926"/>
      <point x="235.70728602358437" y="400.0"/>
      <point x="198.4" y="400.0" type="curve"/>
    </contour>
  </outline>
</glyph>
<glyph name="a_with_ring" format="2">
  <advance width="356.8"/>
  <unicode hex="00E5"/>
  <outline>
    <contour>
      <point x="156.8375" y="769.4444444444445" type="line"/>
      <point x="120.96302" y="769.4444444444445"/>
      <point x="91.8375" y="740.3189244444445"/>
      <point x="91.8375" y="704.4444444444445" type="curve" smooth="yes"/>
      <point x="91.8375" y="668.5699644444445"/>
      <point x="120.96302" y="639.4444444444445"/>
      <point x="156.8375" y="639.4444444444445" type="curve"/>
    </contour>
    <contour>
      <point x="196.8375" y="639.4444444444445" type="line"/>
      <point x="232.71198" y="639.4444444444445"/>
      <point x="261.8375" y="668.5699644444445"/>
      <point x="261.8375" y="704.4444444444445" type="curve" smooth="yes"/>
      <point x="261.8375" y="740.3189244444445"/>
      <point x="232.71198" y="769.4444444444445"/>
      <point x="196.8375" y="769.4444444444445" type="curve"/>
    </contour>
    <contour>
      <point x="165.275" y="540.0" type="curve" smooth="yes"/>
      <point x="165.275" y="575.87448"/>
      <point x="136.14948" y="605.0"/>
      <point x="100.275" y="605.0" type="curve" smooth="yes"/>
      <point x="64.40052" y="605.0"/>
      <point x="35.275" y="575.87448"/>
      <point x="35.275" y="540.0" type="curve" smooth="yes"/>
      <point x="35.275" y="504.12552"/>
      <point x="64.40052" y="475.0"/>
      <point x="100.275" y="475.0" type="curve" smooth="yes"/>
      <point x="136.14948" y="475.0"/>
      <point x="165.275" y="504.12552"/>
    </contour>
    <contour>
      <point x="198.4000014301282" y="145.59119965185926" type="line"/>
      <point x="198.40000185323166" y="10.414728091147708"/>
      <point x="281.0927139764156" y="-4.999999999999996"/>
      <point x="318.4" y="-5.0" type="curve"/>
      <point x="318.4000014301282" y="451.90880002469777" type="line"/>
      <point x="318.4000018532317" y="587.0852715854094"/>
      <point x="235.70728602358437" y="602.5"/>
      <point x="198.4" y="602.5" type="curve"/>
    </contour>
    <contour>
      <point x="38.4000012386268" y="148.09119965185928" type="line"/>
      <point x="38.40000250793713" y="12.914728091147737"/>
      <point x="121.09271397641564" y="-2.4999999999999956"/>
      <point x="158.4" y="-2.5" type="curve"/>
      <point x="158.4000015258789" y="400" type="line"/>
      <point x="122.2790779510263" y="400.0"/>
      <point x="38.399999008871255" y="385.55124630575176"/>
      <point x="38.400000287252105" y="249.40879931990227" type="curve"/>
    </contour>
  </outline>
</glyph>
<glyph name="ae" format="2">
  <advance width="676.8"/>
  <unicode hex="00E6"/>
  <outline>
    <contour>
      <point x="165.275" y="540.0" type="curve" smooth="yes"/>
      <point x="165.275" y="575.87448"/>
      <point x="136.14948" y="605.0"/>
      <point x="100.275" y="605.0" type="curve" smooth="yes"/>
      <point x="64.40052" y="605.0"/>
      <point x="35.275" y="575.87448"/>
      <point x="35.275" y="540.0" type="curve" smooth="yes"/>
      <point x="35.275" y="504.12552"/>
      <point x="64.40052" y="475.0"/>
      <point x="100.275" y="475.0" type="curve" smooth="yes"/>
      <point x="136.14948" y="475.0"/>
      <point x="165.275" y="504.12552"/>
    </contour>
    <contour>
      <point x="198.4000015258789" y="-5" type="line"/>
      <point x="234.52092510073152" y="-5.0"/>
      <point x="318.39999956470695" y="9.44875228465719"/>
      <point x="318.400000126158" y="145.5911992705067" type="curve"/>
      <point x="318.4000013997209" y="454.40880002469777" type="line"/>
      <point x="318.4000019571883" y="589.5852715854094"/>
      <point x="235.70728602358437" y="605.0"/>
      <point x="198.4" y="605.0" type="curve"/>
    </contour>
    <contour>
      <point x="358.4000013997209" y="145.5911996518593" type="line"/>
      <point x="358.4000019571883" y="10.414728091147765"/>
      <point x="441.0927139764156" y="-4.999999999999996"/>
      <point x="478.4" y="-5.0" type="curve"/>
      <point x="478.4000015258789" y="605" type="line"/>
      <point x="442.2790779510263" y="605.0"/>
      <point x="358.39999956470695" y="590.5512463057519"/>
      <point x="358.400000126158" y="454.4087993199023" type="curve"/>
    </contour>
    <contour>
      <point x="518.4000015258789" y="195" type="line"/>
      <point x="638.4000015258789" y="195" type="line"/>
      <point x="638.4000015258789" y="454.40880002469777" type="line"/>
      <point x="638.4000015258789" y="589.5852715854094"/>
      <point x="555.7072860235843" y="605.0"/>
      <point x="518.4" y="605.0" type="curve"/>
    </contour>
    <contour>
      <point x="38.40000123413849" y="145.59119965185928" type="line"/>
      <point x="38.40000252328179" y="10.414728091147737"/>
      <point x="121.09271397641564" y="-4.999999999999996"/>
      <point x="158.4" y="-5.0" type="curve"/>
      <point x="158.4000015258789" y="395" type="line"/>
      <point x="122.2790779510263" y="395.0"/>
      <point x="38.39999899338488" y="380.55124630575176"/>
      <point x="38.40000029174042" y="244.40879931990227" type="curve"/>
    </contour>
  </outline>
</glyph>
<glyph name="e_with_acute" format="2">
  <advance width="356.8"/>
  <unicode hex="00E9"/>
  <outline>
    <contour>
      <point x="170.9" y="644.4444444444445" type="line"/>
      <point x="237.1298" y="644.4444444444445"/>
      <point x="290.9" y="698.2146444444445"/>
      <point x="290.9" y="764.4444444444445" type="curve"/>
      <point x="170.9" y="764.4444444444445" type="line"/>
    </contour>
    <contour>
      <point x="38.40000139972089" y="145.59119965185928" type="line"/>
      <point x="38.40000195718825" y="10.414728091147737"/>
      <point x="121.09271397641564" y="-4.999999999999996"/>
      <point x="158.4" y="-5.0" type="curve"/>
      <point x="158.4000015258789" y="605" type="line"/>
      <point x="122.2790779510263" y="605.0"/>
      <point x="38.39999956470697" y="590.5512463057519"/>
      <point x="38.40000012615802" y="454.4087993199023" type="curve"/>
    </contour>
    <contour>
      <point x="198.4000015258789" y="195" type="line"/>
      <point x="318.4000015258789" y="195" type="line"/>
      <point x="318.4000015258789" y="454.40880002469777" type="line"/>
      <point x="318.4000015258789" y="589.5852715854094"/>
      <point x="235.70728602358437" y="605.0"/>
      <point x="198.4" y="605.0" type="curve"/>
    </contour>
  </outline>
</glyph>
<glyph name="e_with_diaeresis" format="2">
  <advance width="356.8"/>
  <unicode hex="00EB"/>
  <outline>
    <contour>
      <point x="163.4" y="704.4444444444445" type="curve" smooth="yes"/>
      <point x="163.4" y="740.3189244444445"/>
      <point x="134.27448" y="769.4444444444445"/>
      <point x="98.4" y="769.4444444444445" type="curve" smooth="yes"/>
      <point x="62.52552000000001" y="769.4444444444445"/>
      <point x="33.400000000000006" y="740.3189244444445"/>
      <point x="33.400000000000006" y="704.4444444444445" type="curve" smooth="yes"/>
      <point x="33.400000000000006" y="668.5699644444445"/>
      <point x="62.52552000000001" y="639.4444444444445"/>
      <point x="98.4" y="639.4444444444445" type="curve" smooth="yes"/>
      <point x="134.27448" y="639.4444444444445"/>
      <point x="163.4" y="668.5699644444445"/>
    </contour>
    <contour>
      <point x="323.4" y="704.4444444444445" type="curve" smooth="yes"/>
      <point x="323.4" y="740.3189244444445"/>
      <point x="294.27448000000004" y="769.4444444444445"/>
      <point x="258.4" y="769.4444444444445" type="curve" smooth="yes"/>
      <point x="222.52552" y="769.4444444444445"/>
      <point x="193.4" y="740.3189244444445"/>
      <point x="193.4" y="704.4444444444445" type="curve" smooth="yes"/>
      <point x="193.4" y="668.5699644444445"/>
      <point x="222.52552" y="639.4444444444445"/>
      <point x="258.4" y="639.4444444444445" type="curve" smooth="yes"/>
      <point x="294.27448000000004" y="639.4444444444445"/>
      <point x="323.4" y="668.5699644444445"/>
    </contour>
    <contour>
      <point x="38.40000139972089" y="145.59119965185928" type="line"/>
      <point x="38.40000195718825" y="10.414728091147737"/>
      <point x="121.09271397641564" y="-4.999999999999996"/>
      <point x="158.4" y="-5.0" type="curve"/>
      <point x="158.4000015258789" y="605" type="line"/>
      <point x="122.2790779510263" y="605.0"/>
      <point x="38.39999956470697" y="590.5512463057519"/>
      <point x="38.40000012615802" y="454.4087993199023" type="curve"/>
    </contour>
    <contour>
      <point x="198.4000015258789" y="195" type="line"/>
      <point x="318.4000015258789" y="195" type="line"/>
      <point x="318.4000015258789" y="454.40880002469777" type="line"/>
      <point x="318.4000015258789" y="589.5852715854094"/>
      <point x="235.70728602358437" y="605.0"/>
      <point x="198.4" y="605.0" type="curve"/>
    </contour>
  </outline>
</glyph>
<glyph name="i_with_grave" format="2">
  <advance width="196.8"/>
  <unicode hex="00EC"/>
  <outline>
    <contour>
      <point x="-14.099999999999994" y="764.4444444444445" type="line"/>
      <point x="-14.099999999999994" y="698.2146444444445"/>
      <point x="39.67020000000001" y="644.4444444444445"/>
      <point x="105.9" y="644.4444444444445" type="curve"/>
      <point x="105.9" y="764.4444444444445" type="line"/>
    </contour>
    <contour>
      <point x="38.400001525878906" y="0" type="line"/>
      <point x="158.4000015258789" y="0" type="line"/>
      <point x="158.4000015258789" y="600" type="line"/>
      <point x="38.400001525878906" y="600" type="line"/>
    </contour>
  </outline>
</glyph>
<glyph name="i_with_acute" format="2">
  <advance width="196.8"/>
  <unicode hex="00ED"/>
  <outline>
    <contour>
      <point x="90.9" y="644.4444444444445" type="line"/>
      <point x="157.1298" y="644.4444444444445"/>
      <point x="210.9" y="698.2146444444445"/>
      <point x="210.9" y="764.4444444444445" type="curve"/>
      <point x="90.9" y="764.4444444444445" type="line"/>
    </contour>
    <contour>
      <point x="38.400001525878906" y="0" type="line"/>
      <point x="158.4000015258789" y="0" type="line"/>
      <point x="158.4000015258789" y="600" type="line"/>
      <point x="38.400001525878906" y="600" type="line"/>
    </contour>
  </outline>
</glyph>
<glyph name="divide" format="2">
  <advance width="516.8"/>
  <unicode hex="00F7"/>
  <outline>
    <contour>
      <point x="323.4" y="610.0" type="curve" smooth="yes"/>
      <point x="323.4" y="645.87448"/>
      <point x="294.27448" y="675.0"/>
      <point x="258.4" y="675.0" type="curve" smooth="yes"/>
      <point x="222.52552" y="675.0"/>
      <point x="193.4" y="645.87448"/>
      <point x="193.4" y="610.0" type="curve" smooth="yes"/>
      <point x="193.4" y="574.12552"/>
      <point x="222.52552" y="545.0"/>
      <point x="258.4" y="545.0" type="curve" smooth="yes"/>
      <point x="294.27448" y="545.0"/>
      <point x="323.4" y="574.12552"/>
    </contour>
    <contour>
      <point x="78.4000015258789" y="340" type="line"/>
      <point x="438.4000015258789" y="340" type="line"/>
      <point x="438.4000015258789" y="460" type="line"/>
      <point x="78.4000015258789" y="460" type="line"/>
    </contour>
    <contour>
      <point x="323.4" y="190.0" type="curve" smooth="yes"/>
      <point x="323.4" y="225.87448"/>
      <point x="294.27448" y="255.0"/>
      <point x="258.4" y="255.0" type="curve" smooth="yes"/>
      <point x="222.52552" y="255.0"/>
      <point x="193.4" y="225.87448"/>
      <point x="193.4" y="190.0" type="curve" smooth="yes"/>
      <point x="193.4" y="154.12552"/>
      <point x="222.52552" y="125.0"/>
      <point x="258.4" y="125.0" type="curve" smooth="yes"/>
      <point x="294.27448" y="125.0"/>
      <point x="323.4" y="154.12552"/>
    </contour>
  </outline>
</glyph>
<glyph name="o_with_stroke" format="2">
  <advance width="356.8"/>
  <unicode hex="00F8"/>
  <outline>
    <contour>
      <point x="198.4000015258789" y="-5" type="line"/>
      <point x="234.52092510073152" y="-5.0"/>
      <point x="318.39999956470695" y="9.44875228465719"/>
      <point x="318.400000126158" y="145.5911992705067" type="curve"/>
      <point x="318.40000139972085" y="454.4087956839961" type="line"/>
      <point x="318.4000015458227" y="489.8360412527563"/>
      <point x="318.39999899900477" y="526.3598808539655"/>
      <point x="292.94193267822266" y="558.8663940429688" type="curve"/>
      <point x="326.2808509210524" y="580.1688957083849"/>
      <point x="348.3999999999999" y="617.5217295653999"/>
      <point x="348.3999999999999" y="659.9999999999999" type="curve"/>
      <point x="228.4000015258789" y="660" type="line"/>
      <point x="228.4000015258789" y="601.2097091674805" type="line"/>
      <point x="218.81010778902223" y="603.684964748529"/>
      <point x="208.75741350279998" y="605.0000000000001"/>
      <point x="198.4" y="605.0000000000001" type="curve"/>
    </contour>
    <contour>
      <point x="38.400001399720914" y="145.59119459045246" type="line"/>
      <point x="38.400001545822725" y="110.1639587472437"/>
      <point x="38.40000103317775" y="73.64011678119901"/>
      <point x="63.858070373535156" y="41.13360595703125" type="curve"/>
      <point x="30.519149078947557" y="19.831104291615105"/>
      <point x="8.40000000000001" y="-17.52172956540001"/>
      <point x="8.40000000000002" y="-60.00000000000001" type="curve"/>
      <point x="128.4000015258789" y="-60" type="line"/>
      <point x="128.4000015258789" y="-1.209716796875" type="line"/>
      <point x="137.98989221097776" y="-3.6849647485288886"/>
      <point x="148.0425864972" y="-5.000000000000009"/>
      <point x="158.39999999999998" y="-5.000000000000009" type="curve"/>
      <point x="158.4000015258789" y="605" type="line"/>
      <point x="122.2790779510263" y="605.0"/>
      <point x="38.39999956470697" y="590.5512463057519"/>
      <point x="38.40000012615802" y="454.4087993199023" type="curve"/>
    </contour>
  </outline>
</glyph>
<glyph name="u_with_grave" format="2">
  <advance width="356.8"/>
  <unicode hex="00F9"/>
  <outline>
    <contour>
      <point x="65.9" y="764.4444444444445" type="line"/>
      <point x="65.9" y="698.2146444444445"/>
      <point x="119.67020000000001" y="644.4444444444445"/>
      <point x="185.9" y="644.4444444444445" type="curve"/>
      <point x="185.9" y="764.4444444444445" type="line"/>
    </contour>
    <contour>
      <point x="38.400001525878906" y="145.59119965185928" type="line"/>
      <point x="38.40000152587891" y="10.414728091147737"/>
      <point x="121.09271397641564" y="-4.999999999999996"/>
      <point x="158.4" y="-5.0" type="curve"/>
      <point x="158.4000015258789" y="600" type="line"/>
      <point x="38.400001525878906" y="600" type="line"/>
    </contour>
    <contour>
      <point x="198.4000015258789" y="-5" type="line"/>
      <point x="234.52092510073152" y="-5.0"/>
      <point x="318.3999996679207" y="9.44875228465719"/>
      <point x="318.40000009624424" y="145.5911992705067" type="curve"/>
      <point x="318.4000015258789" y="600" type="line"/>
      <point x="198.4000015258789" y="600" type="line"/>
    </contour>
  </outline>
</glyph>
<glyph name="u_with_circumflex" format="2">
  <advance width="356.8"/>
  <unicode hex="00FB"/>
  <outline>
    <contour>
      <point x="54.650000000000006" y="644.4444444444445" type="line"/>
      <point x="120.8798" y="644.4444444444445"/>
      <point x="174.65" y="698.2146444444445"/>
      <point x="174.65" y="764.4444444444445" type="curve"/>
      <point x="54.650000000000006" y="764.4444444444445" type="line"/>
    </contour>
    <contour>
      <point x="182.15" y="764.4444444444445" type="line"/>
      <point x="182.15" y="698.2146444444445"/>
      <point x="235.9202" y="644.4444444444445"/>
      <point x="302.15" y="644.4444444444445" type="curve"/>
      <point x="302.15" y="764.4444444444445" type="line"/>
    </contour>
    <contour>
      <point x="38.400001525878906" y="145.59119965185928" type="line"/>
      <point x="38.40000152587891" y="10.414728091147737"/>
      <point x="121.09271397641564" y="-4.999999999999996"/>
      <point x="158.4" y="-5.0" type="curve"/>
      <point x="158.4000015258789" y="600" type="line"/>
      <point x="38.400001525878906" y="600" type="line"/>
    </contour>
    <contour>
      <point x="198.4000015258789" y="-5" type="line"/>
      <point x="234.52092510073152" y="-5.0"/>
      <point x="318.3999996679207" y="9.44875228465719"/>
      <point x="318.40000009624424" y="145.5911992705067" type="curve"/>
      <point x="318.4000015258789" y="600" type="line"/>
      <point x="198.4000015258789" y="600" type="line"/>
    </contour>
  </outline>
</glyph>
<glyph name="u_with_diaeresis" format="2">
  <advance width="356.8"/>
  <unicode hex="00FC"/>
  <outline>
    <contour>
      <point x="163.4" y="704.4444444444445" type="curve" smooth="yes"/>
      <point x="163.4" y="740.3189244444445"/>
      <point x="134.27448" y="769.4444444444445"/>
      <point x="98.4" y="769.4444444444445" type="curve" smooth="yes"/>
      <point x="62.52552000000001" y="769.4444444444445"/>
      <point x="33.400000000000006" y="740.3189244444445"/>
      <point x="33.400000000000006" y="704.4444444444445" type="curve" smooth="yes"/>
      <point x="33.400000000000006" y="668.5699644444445"/>
      <point x="62.52552000000001" y="639.4444444444445"/>
      <point x="98.4" y="639.4444444444445" type="curve" smooth="yes"/>
      <point x="134.27448" y="639.4444444444445"/>
      <point x="163.4" y="668.5699644444445"/>
    </contour>
    <contour>
      <point x="323.4" y="704.4444444444445" type="curve" smooth="yes"/>
      <point x="323.4" y="740.3189244444445"/>
      <point x="294.27448000000004" y="769.4444444444445"/>
      <point x="258.4" y="769.4444444444445" type="curve" smooth="yes"/>
      <point x="222.52552" y="769.4444444444445"/>
      <point x="193.4" y="740.3189244444445"/>
      <point x="193.4" y="704.4444444444445" type="curve" smooth="yes"/>
      <point x="193.4" y="668.5699644444445"/>
      <point x="222.52552" y="639.4444444444445"/>
      <point x="258.4" y="639.4444444444445" type="curve" smooth="yes"/>
      <point x="294.27448000000004" y="639.4444444444445"/>
      <point x="323.4" y="668.5699644444445"/>
    </contour>
    <contour>
      <point x="38.400001525878906" y="145.59119965185928" type="line"/>
      <point x="38.40000152587891" y="10.414728091147737"/>
      <point x="121.09271397641564" y="-4.999999999999996"/>
      <point x="158.4" y="-5.0" type="curve"/>
      <point x="158.4000015258789" y="600" type="line"/>
      <point x="38.400001525878906" y="600" type="line"/>
    </contour>
    <contour>
      <point x="198.4000015258789" y="-5" type="line"/>
      <point x="234.52092510073152" y="-5.0"/>
      <point x="318.3999996679207" y="9.44875228465719"/>
      <point x="318.40000009624424" y="145.5911992705067" type="curve"/>
      <point x="318.4000015258789" y="600" type="line"/>
      <point x="198.4000015258789" y="600" type="line"/>
    </contour>
  </outline>
</glyph>
<glyph name="thorn" format="2">
  <advance width="356.8"/>
  <unicode hex="00FE"/>
  <outline>
    <contour>
      <point x="38.400001525878906" y="-200" type="line"/>
      <point x="158.4000015258789" y="-200" type="line"/>
      <point x="158.4000015258789" y="800" type="line"/>
      <point x="38.400001525878906" y="800" type="line"/>
    </contour>
    <contour>
      <point x="198.4000015258789" y="0" type="line"/>
      <point x="234.52092510073152" y="0.0"/>
      <point x="318.3999995526155" y="14.44875228465719"/>
      <point x="318.4000001296624" y="150.5911992705067" type="curve"/>
      <point x="318.4000013962165" y="449.40880002469777" type="line"/>
      <point x="318.4000019691691" y="584.5852715854094"/>
      <point x="235.70728602358437" y="600.0"/>
      <point x="198.4" y="600.0" type="curve"/>
    </contour>
  </outline>
</glyph>
<glyph name="y_with_diaeresis" format="2">
  <advance width="356.8"/>
  <unicode hex="00FF"/>
  <outline>
    <contour>
      <point x="163.4" y="704.4444444444445" type="curve" smooth="yes"/>
      <point x="163.4" y="740.3189244444445"/>
      <point x="134.27448" y="769.4444444444445"/>
      <point x="98.4" y="769.4444444444445" type="curve" smooth="yes"/>
      <point x="62.52552000000001" y="769.4444444444445"/>
      <point x="33.400000000000006" y="740.3189244444445"/>
      <point x="33.400000000000006" y="704.4444444444445" type="curve" smooth="yes"/>
      <point x="33.400000000000006" y="668.5699644444445"/>
      <point x="62.52552000000001" y="639.4444444444445"/>
      <point x="98.4" y="639.4444444444445" type="curve" smooth="yes"/>
      <point x="134.27448" y="639.4444444444445"/>
      <point x="163.4" y="668.5699644444445"/>
    </contour>
    <contour>
      <point x="323.4" y="704.4444444444445" type="curve" smooth="yes"/>
      <point x="323.4" y="740.3189244444445"/>
      <point x="294.27448000000004" y="769.4444444444445"/>
      <point x="258.4" y="769.4444444444445" type="curve" smooth="yes"/>
      <point x="222.52552" y="769.4444444444445"/>
      <point x="193.4" y="740.3189244444445"/>
      <point x="193.4" y="704.4444444444445" type="curve" smooth="yes"/>
      <point x="193.4" y="668.5699644444445"/>
      <point x="222.52552" y="639.4444444444445"/>
      <point x="258.4" y="639.4444444444445" type="curve" smooth="yes"/>
      <point x="294.27448000000004" y="639.4444444444445"/>
      <point x="323.4" y="668.5699644444445"/>
    </contour>
    <contour>
      <point x="38.40000142963465" y="150.59119965185928" type="line"/>
      <point x="38.40000185491903" y="15.414728091147737"/>
      <point x="121.09271397641564" y="4.5688248413657374e-15"/>
      <point x="158.4" y="0.0" type="curve"/>
      <point x="158.40000142963464" y="454.40880002469777" type="line"/>
      <point x="158.40000185491903" y="589.5852715854094"/>
      <point x="75.70728602358436" y="605.0"/>
      <point x="38.4" y="605.0" type="curve"/>
    </contour>
    <contour>
      <point x="198.4000015258789" y="-210" type="line"/>
      <point x="234.52092510073152" y="-210.0"/>
      <point x="318.39999976658197" y="-195.55124771534278"/>
      <point x="318.40000006764996" y="-59.40880072949327" type="curve"/>
      <point x="318.4000015258789" y="600" type="line"/>
      <point x="198.4000015258789" y="600" type="line"/>
    </contour>
    <contour>
      <point x="162.15" y="-150.0" type="curve" smooth="yes"/>
      <point x="162.15" y="-116.8851"/>
      <point x="135.2649" y="-90.0"/>
      <point x="102.15" y="-90.0" type="curve" smooth="yes"/>
      <point x="69.0351" y="-90.0"/>
      <point x="42.15" y="-116.8851"/>
      <point x="42.15" y="-150.0" type="curve" smooth="yes"/>
      <point x="42.15" y="-183.1149"/>
      <point x="69.0351" y="-210.0"/>
      <point x="102.15" y="-210.0" type="curve" smooth="yes"/>
      <point x="135.2649" y="-210.0"/>
      <point x="162.15" y="-183.1149"/>
    </contour>
  </outline>
</glyph>
<glyph name="A_with_macron" format="2">
  <advance width="356.8"/>
  <unicode hex="0100"/>
  <outline>
    <contour>
      <point x="58.400001525878906" y="844.4444427490234" type="line"/>
      <point x="298.4000015258789" y="844.4444427490234" type="line"/>
      <point x="298.4000015258789" y="964.4444427490234" type="line"/>
      <point x="58.400001525878906" y="964.4444427490234" type="line"/>
    </contour>
    <contour>
      <point x="38.400001525878906" y="0" type="line"/>
      <point x="158.4000015258789" y="0" type="line"/>
      <point x="158.4000015258789" y="805" type="line"/>
      <point x="122.2790779510263" y="805.0"/>
      <point x="38.39999976487821" y="790.5512463057519"/>
      <point x="38.40000006814375" y="654.4087993199023" type="curve"/>
    </contour>
    <contour>
      <point x="198.4000015258789" y="0" type="line"/>
      <point x="318.4000015258789" y="0" type="line"/>
      <point x="318.4000015258789" y="654.4088000246977" type="line"/>
      <point x="318.4000015258789" y="789.5852715854093"/>
      <point x="235.70728602358437" y="805.0"/>
      <point x="198.4" y="805.0" type="curve"/>
    </contour>
  </outline>
</glyph>
<glyph name="a_with_breve" format="2">
  <advance width="356.8"/>
  <unicode hex="0103"/>
  <outline>
    <contour>
      <point x="56.837501525878906" y="764.4444427490234" type="line"/>
      <point x="56.837500000000006" y="698.2146444444445"/>
      <point x="110.60770000000001" y="644.4444444444445"/>
      <point x="176.8375" y="644.4444444444445" type="curve"/>
      <point x="243.06730000000002" y="644.4444444444445"/>
      <point x="296.8375" y="698.2146444444445"/>
      <point x="296.8375" y="764.4444444444445" type="curve"/>
    </contour>
    <contour>
      <point x="165.275" y="540.0" type="curve" smooth="yes"/>
      <point x="165.275" y="575.87448"/>
      <point x="136.14948" y="605.0"/>
      <point x="100.275" y="605.0" type="curve" smooth="yes"/>
      <point x="64.40052" y="605.0"/>
      <point x="35.275" y="575.87448"/>
      <point x="35.275" y="540.0" type="curve" smooth="yes"/>
      <point x="35.275" y="504.12552"/>
      <point x="64.40052" y="475.0"/>
      <point x="100.275" y="475.0" type="curve" smooth="yes"/>
      <point x="136.14948" y="475.0"/>
      <point x="165.275" y="504.12552"/>
    </contour>
    <contour>
      <point x="198.4000014301282" y="145.59119965185926" type="line"/>
      <point x="198.40000185323166" y="10.414728091147708"/>
      <point x="281.0927139764156" y="-4.999999999999996"/>
      <point x="318.4" y="-5.0" type="curve"/>
      <point x="318.4000014301282" y="451.90880002469777" type="line"/>
      <point x="318.4000018532317" y="587.0852715854094"/>
      <point x="235.70728602358437" y="602.5"/>
      <point x="198.4" y="602.5" type="curve"/>
    </contour>
    <contour>
      <point x="38.4000012386268" y="148.09119965185928" type="line"/>
      <point x="38.40000250793713" y="12.914728091147737"/>
      <point x="121.09271397641564" y="-2.4999999999999956"/>
      <point x="158.4" y="-2.5" type="curve"/>
      <point x="158.4000015258789" y="400" type="line"/>
      <point x="122.2790779510263" y="400.0"/>
      <point x="38.399999008871255" y="385.55124630575176"/>
      <point x="38.400000287252105" y="249.40879931990227" type="curve"/>
    </contour>
  </outline>
</glyph>
<glyph name="A_with_ogonek" format="2">
  <advance width="356.8"/>
  <unicode hex="0104"/>
  <outline>
    <contour>
      <point x="38.400001525878906" y="0" type="line"/>
      <point x="158.4000015258789" y="0" type="line"/>
      <point x="158.4000015258789" y="805" type="line"/>
      <point x="122.2790779510263" y="805.0"/>
      <point x="38.39999976487821" y="790.5512463057519"/>
      <point x="38.40000006814375" y="654.4087993199023" type="curve"/>
    </contour>
    <contour>
      <point x="198.4000015258789" y="0" type="line"/>
      <point x="318.4000015258789" y="0" type="line"/>
      <point x="318.4000015258789" y="654.4088000246977" type="line"/>
      <point x="318.4000015258789" y="789.5852715854093"/>
      <point x="235.70728602358437" y="805.0"/>
      <point x="198.4" y="805.0" type="curve"/>
    </contour>
    <contour>
      <point x="318.4" y="-25.0" type="line"/>
      <point x="252.17019999999997" y="-25.0"/>
      <point x="198.39999999999998" y="-78.77019999999999"/>
      <point x="198.39999999999998" y="-145.0" type="curve"/>
      <point x="318.4" y="-145.0" type="line"/>
    </contour>
  </outline>
</glyph>
<glyph name="c_with_dotabove" format="2">
  <advance width="356.8"/>
  <unicode hex="010B"/>
  <outline>
    <contour>
      <point x="245.9" y="704.4444444444445" type="curve" smooth="yes"/>
      <point x="245.9" y="740.3189244444445"/>
      <point x="216.77448" y="769.4444444444445"/>
      <point x="180.9" y="769.4444444444445" type="curve" smooth="yes"/>
      <point x="145.02552" y="769.4444444444445"/>
      <point x="115.9" y="740.3189244444445"/>
      <point x="115.9" y="704.4444444444445" type="curve" smooth="yes"/>
      <point x="115.9" y="668.5699644444445"/>
      <point x="145.02552" y="639.4444444444445"/>
      <point x="180.9" y="639.4444444444445" type="curve" smooth="yes"/>
      <point x="216.77448" y="639.4444444444445"/>
      <point x="245.9" y="668.5699644444445"/>
    </contour>
    <contour>
      <point x="38.400001397992696" y="150.59119965185928" type="line"/>
      <point x="38.400001963096614" y="15.414728091147737"/>
      <point x="121.09271397641564" y="4.5688248413657374e-15"/>
      <point x="158.4" y="0.0" type="curve"/>
      <point x="158.4000015258789" y="605" type="line"/>
      <point x="122.2790779510263" y="605.0"/>
      <point x="38.39999955874406" y="590.5512463057519"/>
      <point x="38.40000012788621" y="454.4087993199023" type="curve"/>
    </contour>
    <contour>
      <point x="323.4" y="540.0" type="curve" smooth="yes"/>
      <point x="323.4" y="575.87448"/>
      <point x="294.27448" y="605.0"/>
      <point x="258.4" y="605.0" type="curve" smooth="yes"/>
      <point x="222.52552" y="605.0"/>
      <point x="193.4" y="575.87448"/>
      <point x="193.4" y="540.0" type="curve" smooth="yes"/>
      <point x="193.4" y="504.12552"/>
      <point x="222.52552" y="475.0"/>
      <point x="258.4" y="475.0" type="curve" smooth="yes"/>
      <point x="294.27448" y="475.0"/>
      <point x="323.4" y="504.12552"/>
    </contour>
    <contour>
      <point x="316.525" y="120.0" type="line"/>
      <point x="250.2952" y="120.0"/>
      <point x="196.525" y="66.2298"/>
      <point x="196.525" y="0.0" type="curve"/>
      <point x="316.525" y="0.0" type="line"/>
    </contour>
  </outline>
</glyph>
<glyph name="c_with_caron" format="2">
  <advance width="356.8"/>
  <unicode hex="010D"/>
  <outline>
    <contour>
      <point x="177.15" y="644.4444444444445" type="line"/>
      <point x="177.15" y="710.6742444444444"/>
      <point x="123.3798" y="764.4444444444445"/>
      <point x="57.150000000000006" y="764.4444444444445" type="curve"/>
      <point x="57.150000000000006" y="644.4444444444445" type="line"/>
    </contour>
    <contour>
      <point x="304.65" y="764.4444444444445" type="line"/>
      <point x="238.4202" y="764.4444444444445"/>
      <point x="184.65" y="710.6742444444444"/>
      <point x="184.65" y="644.4444444444445" type="curve"/>
      <point x="304.65" y="644.4444444444445" type="line"/>
    </contour>
    <contour>
      <point x="38.400001397992696" y="150.59119965185928" type="line"/>
      <point x="38.400001963096614" y="15.414728091147737"/>
      <point x="121.09271397641564" y="4.5688248413657374e-15"/>
      <point x="158.4" y="0.0" type="curve"/>
      <point x="158.4000015258789" y="605" type="line"/>
      <point x="122.2790779510263" y="605.0"/>
      <point x="38.39999955874406" y="590.5512463057519"/>
      <point x="38.40000012788621" y="454.4087993199023" type="curve"/>
    </contour>
    <contour>
      <point x="323.4" y="540.0" type="curve" smooth="yes"/>
      <point x="323.4" y="575.87448"/>
      <point x="294.27448" y="605.0"/>
      <point x="258.4" y="605.0" type="curve" smooth="yes"/>
      <point x="222.52552" y="605.0"/>
      <point x="193.4" y="575.87448"/>
      <point x="193.4" y="540.0" type="curve" smooth="yes"/>
      <point x="193.4" y="504.12552"/>
      <point x="222.52552" y="475.0"/>
      <point x="258.4" y="475.0" type="curve" smooth="yes"/>
      <point x="294.27448" y="475.0"/>
      <point x="323.4" y="504.12552"/>
    </contour>
    <contour>
      <point x="316.525" y="120.0" type="line"/>
      <point x="250.2952" y="120.0"/>
      <point x="196.525" y="66.2298"/>
      <point x="196.525" y="0.0" type="curve"/>
      <point x="316.525" y="0.0" type="line"/>
    </contour>
  </outline>
</glyph>
<glyph name="e_with_macron" format="2">
  <advance width="356.8"/>
  <unicode hex="0113"/>
  <outline>
    <contour>
      <point x="58.400001525878906" y="644.4444427490234" type="line"/>
      <point x="298.4000015258789" y="644.4444427490234" type="line"/>
      <point x="298.4000015258789" y="764.4444427490234" type="line"/>
      <point x="58.400001525878906" y="764.4444427490234" type="line"/>
    </contour>
    <contour>
      <point x="38.40000139972089" y="145.59119965185928" type="line"/>
      <point x="38.40000195718825" y="10.414728091147737"/>
      <point x="121.09271397641564" y="-4.999999999999996"/>
      <point x="158.4" y="-5.0" type="curve"/>
      <point x="158.4000015258789" y="605" type="line"/>
      <point x="122.2790779510263" y="605.0"/>
      <point x="38.39999956470697" y="590.5512463057519"/>
      <point x="38.40000012615802" y="454.4087993199023" type="curve"/>
    </contour>
    <contour>
      <point x="198.4000015258789" y="195" type="line"/>
      <point x="318.4000015258789" y="195" type="line"/>
      <point x="318.4000015258789" y="454.40880002469777" type="line"/>
      <point x="318.4000015258789" y="589.5852715854094"/>
      <point x="235.70728602358437" y="605.0"/>
      <point x="198.4" y="605.0" type="curve"/>
    </contour>
  </outline>
</glyph>
<glyph name="E_with_breve" format="2">
  <advance width="356.8"/>
  <unicode hex="0114"/>
  <outline>
    <contour>
      <point x="58.400001525878906" y="964.4444427490234" type="line"/>
      <point x="58.400000000000006" y="898.2146444444445"/>
      <point x="112.17020000000001" y="844.4444444444445"/>
      <point x="178.4" y="844.4444444444445" type="curve"/>
      <point x="244.62980000000002" y="844.4444444444445"/>
      <point x="298.4" y="898.2146444444445"/>
      <point x="298.4" y="964.4444444444445" type="curve"/>
    </contour>
    <contour>
      <point x="38.400001525878906" y="0" type="line"/>
      <point x="158.4000015258789" y="0" type="line"/>
      <point x="158.4000015258789" y="800" type="line"/>
      <point x="38.400001525878906" y="800" type="line"/>
    </contour>
    <contour>
      <point x="198.4" y="800.0" type="line"/>
      <point x="198.4" y="733.7702"/>
      <point x="252.1702" y="680.0"/>
      <point x="318.4" y="680.0" type="curve"/>
      <point x="318.4" y="800.0" type="line"/>
    </contour>
    <contour>
      <point x="198.4" y="460.0" type="line"/>
      <point x="198.4" y="393.7702"/>
      <point x="252.1702" y="340.0"/>
      <point x="318.4" y="340.0" type="curve"/>
      <point x="318.4" y="460.0" type="line"/>
    </contour>
    <contour>
      <point x="318.4" y="120.0" type="line"/>
      <point x="252.1702" y="120.0"/>
      <point x="198.4" y="66.2298"/>
      <point x="198.4" y="0.0" type="curve"/>
      <point x="318.4" y="0.0" type="line"/>
    </contour>
  </outline>
</glyph>
<glyph name="e_with_dotabove" format="2">
  <advance width="356.8"/>
  <unicode hex="0117"/>
  <outline>
    <contour>
      <point x="243.4" y="704.4444444444445" type="curve" smooth="yes"/>
      <point x="243.4" y="740.3189244444445"/>
      <point x="214.27448" y="769.4444444444445"/>
      <point x="178.4" y="769.4444444444445" type="curve" smooth="yes"/>
      <point x="142.52552" y="769.4444444444445"/>
      <point x="113.4" y="740.3189244444445"/>
      <point x="113.4" y="704.4444444444445" type="curve" smooth="yes"/>
      <point x="113.4" y="668.5699644444445"/>
      <point x="142.52552" y="639.4444444444445"/>
      <point x="178.4" y="639.4444444444445" type="curve" smooth="yes"/>
      <point x="214.27448" y="639.4444444444445"/>
      <point x="243.4" y="668.5699644444445"/>
    </contour>
    <contour>
      <point x="38.40000139972089" y="145.59119965185928" type="line"/>
      <point x="38.40000195718825" y="10.414728091147737"/>
      <point x="121.09271397641564" y="-4.999999999999996"/>
      <point x="158.4" y="-5.0" type="curve"/>
      <point x="158.4000015258789" y="605" type="line"/>
      <point x="122.2790779510263" y="605.0"/>
      <point x="38.39999956470697" y="590.5512463057519"/>
      <point x="38.40000012615802" y="454.4087993199023" type="curve"/>
    </contour>
    <contour>
      <point x="198.4000015258789" y="195" type="line"/>
      <point x="318.4000015258789" y="195" type="line"/>
      <point x="318.4000015258789" y="454.40880002469777" type="line"/>
      <point x="318.4000015258789" y="589.5852715854094"/>
      <point x="235.70728602358437" y="605.0"/>
      <point x="198.4" y="605.0" type="curve"/>
    </contour>
  </outline>
</glyph>
<glyph name="g_with_circumflex" format="2">
  <advance width="356.8"/>
  <unicode hex="011D"/>
  <outline>
    <contour>
      <point x="54.650000000000006" y="644.4444444444445" type="line"/>
      <point x="120.8798" y="644.4444444444445"/>
      <point x="174.65" y="698.2146444444445"/>
      <point x="174.65" y="764.4444444444445" type="curve"/>
      <point x="54.650000000000006" y="764.4444444444445" type="line"/>
    </contour>
    <contour>
      <point x="182.15" y="764.4444444444445" type="line"/>
      <point x="182.15" y="698.2146444444445"/>
      <point x="235.9202" y="644.4444444444445"/>
      <point x="302.15" y="644.4444444444445" type="curve"/>
      <point x="302.15" y="764.4444444444445" type="line"/>
    </contour>
    <contour>
      <point x="38.4000013962165" y="150.59119965185928" type="line"/>
      <point x="38.40000196916907" y="15.414728091147737"/>
      <point x="121.09271397641564" y="4.5688248413657374e-15"/>
      <point x="158.4" y="0.0" type="curve"/>
      <point x="158.4000015258789" y="600" type="line"/>
      <point x="122.2790779510263" y="600.0"/>
      <point x="38.39999955261549" y="585.5512463057519"/>
      <point x="38.40000012966241" y="449.4087993199023" type="curve"/>
    </contour>
    <contour>
      <point x="198.4000015258789" y="-210" type="line"/>
      <point x="234.52092510073152" y="-210.0"/>
      <point x="318.39999976658197" y="-195.55124771534278"/>
      <point x="318.40000006764996" y="-59.40880072949327" type="curve"/>
      <point x="318.4000015258789" y="600" type="line"/>
      <point x="198.4000015258789" y="600" type="line"/>
    </contour>
    <contour>
      <point x="162.15" y="-150.0" type="curve" smooth="yes"/>
      <point x="162.15" y="-116.8851"/>
      <point x="135.2649" y="-90.0"/>
      <point x="102.15" y="-90.0" type="curve" smooth="yes"/>
      <point x="69.0351" y="-90.0"/>
      <point x="42.15" y="-116.8851"/>
      <point x="42.15" y="-150.0" type="curve" smooth="yes"/>
      <point x="42.15" y="-183.1149"/>
      <point x="69.0351" y="-210.0"/>
      <point x="102.15" y="-210.0" type="curve" smooth="yes"/>
      <point x="135.2649" y="-210.0"/>
      <point x="162.15" y="-183.1149"/>
    </contour>
  </outline>
</glyph>
<glyph name="G_with_breve" format="2">
  <advance width="356.8"/>
  <unicode hex="011E"/>
  <outline>
    <contour>
      <point x="58.400001525878906" y="964.4444427490234" type="line"/>
      <point x="58.400000000000006" y="898.2146444444445"/>
      <point x="112.17020000000001" y="844.4444444444445"/>
      <point x="178.4" y="844.4444444444445" type="curve"/>
      <point x="244.62980000000002" y="844.4444444444445"/>
      <point x="298.4" y="898.2146444444445"/>
      <point x="298.4" y="964.4444444444445" type="curve"/>
    </contour>
    <contour>
      <point x="38.4000014425245" y="150.59119965185928" type="line"/>
      <point x="38.40000181085116" y="15.414728091147737"/>
      <point x="121.09271397641564" y="4.5688248413657374e-15"/>
      <point x="158.4" y="0.0" type="curve"/>
      <point x="158.4000015258789" y="800" type="line"/>
      <point x="122.2790779510263" y="800.0"/>
      <point x="38.39999971239568" y="785.5512463057519"/>
      <point x="38.4000000833544" y="649.4087993199023" type="curve"/>
    </contour>
    <contour>
      <point x="198.4" y="800.0" type="line"/>
      <point x="198.4" y="733.7702"/>
      <point x="252.1702" y="680.0"/>
      <point x="318.4" y="680.0" type="curve"/>
      <point x="318.4" y="800.0" type="line"/>
    </contour>
    <contour>
      <point x="198.4000015258789" y="150.59119965185926" type="line"/>
      <point x="198.4000015258789" y="15.414728091147708"/>
      <point x="281.0927139764156" y="4.5688248413657374e-15"/>
      <point x="318.4" y="0.0" type="curve"/>
      <point x="318.4000015258789" y="400" type="line"/>
      <point x="198.4000015258789" y="400" type="line"/>
    </contour>
  </outline>
</glyph>
<glyph name="g_with_breve" format="2">
  <advance width="356.8"/>
  <unicode hex="011F"/>
  <outline>
    <contour>
      <point x="58.400001525878906" y="764.4444427490234" type="line"/>
      <point x="58.400000000000006" y="698.2146444444445"/>
      <point x="112.17020000000001" y="644.4444444444445"/>
      <point x="178.4" y="644.4444444444445" type="curve"/>
      <point x="244.62980000000002" y="644.4444444444445"/>
      <point x="298.4" y="698.2146444444445"/>
      <point x="298.4" y="764.4444444444445" type="curve"/>
    </contour>
    <contour>
      <point x="38.4000013962165" y="150.59119965185928" type="line"/>
      <point x="38.40000196916907" y="15.414728091147737"/>
      <point x="121.09271397641564" y="4.5688248413657374e-15"/>
      <point x="158.4" y="0.0" type="curve"/>
      <point x="158.4000015258789" y="600" type="line"/>
      <point x="122.2790779510263" y="600.0"/>
      <point x="38.39999955261549" y="585.5512463057519"/>
      <point x="38.40000012966241" y="449.4087993199023" type="curve"/>
    </contour>
    <contour>
      <point x="198.4000015258789" y="-210" type="line"/>
      <point x="234.52092510073152" y="-210.0"/>
      <point x="318.39999976658197" y="-195.55124771534278"/>
      <point x="318.40000006764996" y="-59.40880072949327" type="curve"/>
      <point x="318.4000015258789" y="600" type="line"/>
      <point x="198.4000015258789" y="600" type="line"/>
    </contour>
    <contour>
      <point x="162.15" y="-150.0" type="curve" smooth="yes"/>
      <point x="162.15" y="-116.8851"/>
      <point x="135.2649" y="-90.0"/>
      <point x="102.15" y="-90.0" type="curve" smooth="yes"/>
      <point x="69.0351" y="-90.0"/>
      <point x="42.15" y="-116.8851"/>
      <point x="42.15" y="-150.0" type="curve" smooth="yes"/>
      <point x="42.15" y="-183.1149"/>
      <point x="69.0351" y="-210.0"/>
      <point x="102.15" y="-210.0" type="curve" smooth="yes"/>
      <point x="135.2649" y="-210.0"/>
      <point x="162.15" y="-183.1149"/>
    </contour>
  </outline>
</glyph>
<glyph name="I_with_smalltilde" format="2">
  <advance width="196.8"/>
  <unicode hex="0128"/>
  <outline>
    <contour>
      <point x="67.80880281149217" y="844.4444431812315" type="line"/>
      <point x="202.9852743722037" y="844.4444412713896"/>
      <point x="218.4" y="927.1371584208601"/>
      <point x="218.4" y="964.4444444444445" type="curve"/>
      <point x="128.99120142287052" y="964.4444431812315" type="line"/>
      <point x="-6.185270137841002" y="964.4444412713895"/>
      <point x="-21.59999999999999" y="881.7517304680288"/>
      <point x="-21.599999999999994" y="844.4444444444445" type="curve"/>
    </contour>
    <contour>
      <point x="38.400001525878906" y="0" type="line"/>
      <point x="158.4000015258789" y="0" type="line"/>
      <point x="158.4000015258789" y="800" type="line"/>
      <point x="38.400001525878906" y="800" type="line"/>
    </contour>
  </outline>
</glyph>
<glyph name="i_with_smalltilde" format="2">
  <advance width="196.8"/>
  <unicode hex="0129"/>
  <outline>
    <contour>
      <point x="67.80880281149217" y="644.4444431812315" type="line"/>
      <point x="202.9852743722037" y="644.4444412713896"/>
      <point x="218.4" y="727.1371584208601"/>
      <point x="218.4" y="764.4444444444445" type="curve"/>
      <point x="128.99120142287052" y="764.4444431812315" type="line"/>
      <point x="-6.185270137841002" y="764.4444412713895"/>
      <point x="-21.59999999999999" y="681.7517304680288"/>
      <point x="-21.599999999999994" y="644.4444444444445" type="curve"/>
    </contour>
    <contour>
      <point x="38.400001525878906" y="0" type="line"/>
      <point x="158.4000015258789" y="0" type="line"/>
      <point x="158.4000015258789" y="600" type="line"/>
      <point x="38.400001525878906" y="600" type="line"/>
    </contour>
  </outline>
</glyph>
<glyph name="I_with_breve" format="2">
  <advance width="196.8"/>
  <unicode hex="012C"/>
  <outline>
    <contour>
      <point x="-21.599998474121094" y="964.4444427490234" type="line"/>
      <point x="-21.599999999999994" y="898.2146444444445"/>
      <point x="32.17020000000001" y="844.4444444444445"/>
      <point x="98.4" y="844.4444444444445" type="curve"/>
      <point x="164.62980000000002" y="844.4444444444445"/>
      <point x="218.4" y="898.2146444444445"/>
      <point x="218.4" y="964.4444444444445" type="curve"/>
    </contour>
    <contour>
      <point x="38.400001525878906" y="0" type="line"/>
      <point x="158.4000015258789" y="0" type="line"/>
      <point x="158.4000015258789" y="800" type="line"/>
      <point x="38.400001525878906" y="800" type="line"/>
    </contour>
  </outline>
</glyph>
<glyph name="i_with_breve" format="2">
  <advance width="196.8"/>
  <unicode hex="012D"/>
  <outline>
    <contour>
      <point x="-21.599998474121094" y="764.4444427490234" type="line"/>
      <point x="-21.599999999999994" y="698.2146444444445"/>
      <point x="32.17020000000001" y="644.4444444444445"/>
      <point x="98.4" y="644.4444444444445" type="curve"/>
      <point x="164.62980000000002" y="644.4444444444445"/>
      <point x="218.4" y="698.2146444444445"/>
      <point x="218.4" y="764.4444444444445" type="curve"/>
    </contour>
    <contour>
      <point x="38.400001525878906" y="0" type="line"/>
      <point x="158.4000015258789" y="0" type="line"/>
      <point x="158.4000015258789" y="600" type="line"/>
      <point x="38.400001525878906" y="600" type="line"/>
    </contour>
  </outline>
</glyph>
<glyph name="I_with_ogonek" format="2">
  <advance width="196.8"/>
  <unicode hex="012E"/>
  <outline>
    <contour>
      <point x="38.400001525878906" y="0" type="line"/>
      <point x="158.4000015258789" y="0" type="line"/>
      <point x="158.4000015258789" y="800" type="line"/>
      <point x="38.400001525878906" y="800" type="line"/>
    </contour>
    <contour>
      <point x="158.4" y="-25.0" type="line"/>
      <point x="92.17020000000001" y="-25.0"/>
      <point x="38.400000000000006" y="-78.77019999999999"/>
      <point x="38.400000000000006" y="-145.0" type="curve"/>
      <point x="158.4" y="-145.0" type="line"/>
    </contour>
  </outline>
</glyph>
<glyph name="I_with_dotabove" format="2">
  <advance width="196.8"/>
  <unicode hex="0130"/>
  <outline>
    <contour>
      <point x="163.4" y="904.4444444444445" type="curve" smooth="yes"/>
      <point x="163.4" y="940.3189244444445"/>
      <point x="134.27448" y="969.4444444444445"/>
      <point x="98.4" y="969.4444444444445" type="curve" smooth="yes"/>
      <point x="62.52552000000001" y="969.4444444444445"/>
      <point x="33.400000000000006" y="940.3189244444445"/>
      <point x="33.400000000000006" y="904.4444444444445" type="curve" smooth="yes"/>
      <point x="33.400000000000006" y="868.5699644444445"/>
      <point x="62.52552000000001" y="839.4444444444445"/>
      <point x="98.4" y="839.4444444444445" type="curve" smooth="yes"/>
      <point x="134.27448" y="839.4444444444445"/>
      <point x="163.4" y="868.5699644444445"/>
    </contour>
    <contour>
      <point x="38.400001525878906" y="0" type="line"/>
      <point x="158.4000015258789" y="0" type="line"/>
      <point x="158.4000015258789" y="800" type="line"/>
      <point x="38.400001525878906" y="800" type="line"/>
    </contour>
  </outline>
</glyph>
<glyph name="J_with_circumflex" format="2">
  <advance width="356.8"/>
  <unicode hex="0134"/>
  <outline>
    <contour>
      <point x="129.65" y="844.4444444444445" type="line"/>
      <point x="195.8798" y="844.4444444444445"/>
      <point x="249.65" y="898.2146444444445"/>
      <point x="249.65" y="964.4444444444445" type="curve"/>
      <point x="129.65" y="964.4444444444445" type="line"/>
    </contour>
    <contour>
      <point x="257.15" y="964.4444444444445" type="line"/>
      <point x="257.15" y="898.2146444444445"/>
      <point x="310.9202" y="844.4444444444445"/>
      <point x="377.15" y="844.4444444444445" type="curve"/>
      <point x="377.15" y="964.4444444444445" type="line"/>
    </contour>
    <contour>
      <point x="198.4000015258789" y="-5" type="line"/>
      <point x="234.52092510073152" y="-5.0"/>
      <point x="318.3999997648782" y="9.44875228465719"/>
      <point x="318.4000000681437" y="145.5911992705067" type="curve"/>
      <point x="318.4000015258789" y="800" type="line"/>
      <point x="198.4000015258789" y="800" type="line"/>
    </contour>
    <contour>
      <point x="163.4" y="55.0" type="curve" smooth="yes"/>
      <point x="163.4" y="90.87448"/>
      <point x="134.27448" y="120.0"/>
      <point x="98.4" y="120.0" type="curve" smooth="yes"/>
      <point x="62.52552" y="120.0"/>
      <point x="33.4" y="90.87448"/>
      <point x="33.4" y="55.0" type="curve" smooth="yes"/>
      <point x="33.4" y="19.12552"/>
      <point x="62.52552" y="-10.0"/>
      <point x="98.4" y="-10.0" type="curve" smooth="yes"/>
      <point x="134.27448" y="-10.0"/>
      <point x="163.4" y="19.12552"/>
    </contour>
  </outline>
</glyph>
<glyph name="j_with_circumflex" format="2">
  <advance width="356.8"/>
  <unicode hex="0135"/>
  <outline>
    <contour>
      <point x="134.025" y="644.4444444444445" type="line"/>
      <point x="200.2548" y="644.4444444444445"/>
      <point x="254.025" y="698.2146444444445"/>
      <point x="254.025" y="764.4444444444445" type="curve"/>
      <point x="134.025" y="764.4444444444445" type="line"/>
    </contour>
    <contour>
      <point x="261.525" y="764.4444444444445" type="line"/>
      <point x="261.525" y="698.2146444444445"/>
      <point x="315.2952" y="644.4444444444445"/>
      <point x="381.525" y="644.4444444444445" type="curve"/>
      <point x="381.525" y="764.4444444444445" type="line"/>
    </contour>
    <contour>
      <point x="198.4000015258789" y="-210" type="line"/>
      <point x="234.52092510073152" y="-210.0"/>
      <point x="318.39999976658197" y="-195.55124771534278"/>
      <point x="318.40000006764996" y="-59.40880072949327" type="curve"/>
      <point x="318.4000015258789" y="600" type="line"/>
      <point x="198.4000015258789" y="600" type="line"/>
    </contour>
    <contour>
      <point x="162.15" y="-150.0" type="curve" smooth="yes"/>
      <point x="162.15" y="-116.8851"/>
      <point x="135.2649" y="-90.0"/>
      <point x="102.15" y="-90.0" type="curve" smooth="yes"/>
      <point x="69.0351" y="-90.0"/>
      <point x="42.15" y="-116.8851"/>
      <point x="42.15" y="-150.0" type="curve" smooth="yes"/>
      <point x="42.15" y="-183.1149"/>
      <point x="69.0351" y="-210.0"/>
      <point x="102.15" y="-210.0" type="curve" smooth="yes"/>
      <point x="135.2649" y="-210.0"/>
      <point x="162.15" y="-183.1149"/>
    </contour>
  </outline>
</glyph>
<glyph name="K_with_cedilla" format="2">
  <advance width="356.8"/>
  <unicode hex="0136"/>
  <outline>
    <contour>
      <point x="38.400001525878906" y="0" type="line"/>
      <point x="158.4000015258789" y="0" type="line"/>
      <point x="158.4000015258789" y="800" type="line"/>
      <point x="38.400001525878906" y="800" type="line"/>
    </contour>
    <contour>
      <point x="198.4000015258789" y="400" type="line"/>
      <point x="234.52092510073152" y="400.0"/>
      <point x="318.3999994247913" y="414.44875228465725"/>
      <point x="318.40000016670876" y="550.5911992705068" type="curve"/>
      <point x="318.4000015258789" y="800" type="line"/>
      <point x="198.4000015258789" y="800" type="line"/>
    </contour>
    <contour>
      <point x="198.4000015258789" y="0" type="line"/>
      <point x="318.4000015258789" y="0" type="line"/>
      <point x="318.4000015258789" y="249.4088000246977" type="line"/>
      <point x="318.4000015258789" y="384.58527158540926"/>
      <point x="235.70728602358437" y="400.0"/>
      <point x="198.4" y="400.0" type="curve"/>
    </contour>
    <contour>
      <point x="290.9" y="-145.0" type="line"/>
      <point x="290.9" y="-78.77019999999999"/>
      <point x="237.1298" y="-25.0"/>
      <point x="170.9" y="-25.0" type="curve"/>
      <point x="170.9" y="-145.0" type="line"/>
    </contour>
  </outline>
</glyph>
<glyph name="k_with_cedilla" format="2">
  <advance width="356.8"/>
  <unicode hex="0137"/>
  <outline>
    <contour>
      <point x="38.400001525878906" y="0" type="line"/>
      <point x="158.4000015258789" y="0" type="line"/>
      <point x="158.4000015258789" y="800" type="line"/>
      <point x="38.400001525878906" y="800" type="line"/>
    </contour>
    <contour>
      <point x="198.4000015258789" y="300" type="line"/>
      <point x="234.52092510073152" y="300.0"/>
      <point x="318.39999910523096" y="314.4487522846572"/>
      <point x="318.40000025932477" y="450.5911992705067" type="curve"/>
      <point x="318.4000015258789" y="600" type="line"/>
      <point x="198.4000015258789" y="600" type="line"/>
    </contour>
    <contour>
      <point x="198.4000015258789" y="0" type="line"/>
      <point x="318.4000015258789" y="0" type="line"/>
      <point x="318.4000015258789" y="149.4088000246977" type="line"/>
      <point x="318.4000015258789" y="284.58527158540926"/>
      <point x="235.70728602358437" y="300.0"/>
      <point x="198.4" y="300.0" type="curve"/>
    </contour>
    <contour>
      <point x="290.9" y="-145.0" type="line"/>
      <point x="290.9" y="-78.77019999999999"/>
      <point x="237.1298" y="-25.0"/>
      <point x="170.9" y="-25.0" type="curve"/>
      <point x="170.9" y="-145.0" type="line"/>
    </contour>
  </outline>
</glyph>
<glyph name="kra" format="2">
  <advance width="356.8"/>
  <unicode hex="0138"/>
  <outline>
    <contour>
      <point x="38.400001525878906" y="0" type="line"/>
      <point x="158.4000015258789" y="0" type="line"/>
      <point x="158.4000015258789" y="600" type="line"/>
      <point x="38.400001525878906" y="600" type="line"/>
    </contour>
    <contour>
      <point x="198.4000015258789" y="300" type="line"/>
      <point x="234.52092510073152" y="300.0"/>
      <point x="318.39999910523096" y="314.4487522846572"/>
      <point x="318.40000025932477" y="450.5911992705067" type="curve"/>
      <point x="318.4000015258789" y="600" type="line"/>
      <point x="198.4000015258789" y="600" type="line"/>
    </contour>
    <contour>
      <point x="198.4000015258789" y="0" type="line"/>
      <point x="318.4000015258789" y="0" type="line"/>
      <point x="318.4000015258789" y="149.4088000246977" type="line"/>
      <point x="318.4000015258789" y="284.58527158540926"/>
      <point x="235.70728602358437" y="300.0"/>
      <point x="198.4" y="300.0" type="curve"/>
    </contour>
  </outline>
</glyph>
<glyph name="L_with_acute" format="2">
  <advance width="356.8"/>
  <unicode hex="0139"/>
  <outline>
    <contour>
      <point x="170.9" y="844.4444444444445" type="line"/>
      <point x="237.1298" y="844.4444444444445"/>
      <point x="290.9" y="898.2146444444445"/>
      <point x="290.9" y="964.4444444444445" type="curve"/>
      <point x="170.9" y="964.4444444444445" type="line"/>
    </contour>
    <contour>
      <point x="38.400001525878906" y="0" type="line"/>
      <point x="158.4000015258789" y="0" type="line"/>
      <point x="158.4000015258789" y="800" type="line"/>
      <point x="38.400001525878906" y="800" type="line"/>
    </contour>
    <contour>
      <point x="318.4" y="120.0" type="line"/>
      <point x="252.1702" y="120.0"/>
      <point x="198.4" y="66.2298"/>
      <point x="198.4" y="0.0" type="curve"/>
      <point x="318.4" y="0.0" type="line"/>
    </contour>
  </outline>
</glyph>
<glyph name="l_with_acute" format="2">
  <advance width="196.8"/>
  <unicode hex="013A"/>
  <outline>
    <contour>
      <point x="90.9" y="844.4444444444445" type="line"/>
      <point x="157.1298" y="844.4444444444445"/>
      <point x="210.9" y="898.2146444444445"/>
      <point x="210.9" y="964.4444444444445" type="curve"/>
      <point x="90.9" y="964.4444444444445" type="line"/>
    </contour>
    <contour>
      <point x="38.400001525878906" y="145.59119965185928" type="line"/>
      <point x="38.40000152587891" y="10.414728091147737"/>
      <point x="121.09271397641564" y="-4.999999999999996"/>
      <point x="158.4" y="-5.0" type="curve"/>
      <point x="158.4000015258789" y="800" type="line"/>
      <point x="38.400001525878906" y="800" type="line"/>
    </contour>
  </outline>
</glyph>
<glyph name="l_with_cedilla" format="2">
  <advance width="196.8"/>
  <unicode hex="013C"/>
  <outline>
    <contour>
      <point x="38.400001525878906" y="145.59119965185928" type="line"/>
      <point x="38.40000152587891" y="10.414728091147737"/>
      <point x="121.09271397641564" y="-4.999999999999996"/>
      <point x="158.4" y="-5.0" type="curve"/>
      <point x="158.4000015258789" y="800" type="line"/>
      <point x="38.400001525878906" y="800" type="line"/>
    </contour>
    <contour>
      <point x="210.9" y="-150.0" type="line"/>
      <point x="210.9" y="-83.77019999999999"/>
      <point x="157.1298" y="-30.0"/>
      <point x="90.9" y="-30.0" type="curve"/>
      <point x="90.9" y="-150.0" type="line"/>
    </contour>
  </outline>
</glyph>
<glyph name="L_with_stroke" format="2">
  <advance width="371.8"/>
  <unicode hex="0141"/>
  <outline>
    <contour>
      <point x="53.400001525878906" y="0" type="line"/>
      <point x="173.4000015258789" y="0" type="line"/>
      <point x="173.4000015258789" y="488.76734161376953" type="line"/>
      <point x="217.36055575305375" y="506.5526847643875"/>
      <point x="248.4" y="549.6801212454001"/>
      <point x="248.39999999999995" y="600.0000000000001" type="curve"/>
      <point x="173.4000015258789" y="600" type="line"/>
      <point x="173.4000015258789" y="800" type="line"/>
      <point x="53.400001525878906" y="800" type="line"/>
      <point x="53.400001525878906" y="491.23265838623047" type="line"/>
      <point x="9.439444246946273" y="473.44731523561256"/>
      <point x="-21.6" y="430.31987875460004"/>
      <point x="-21.59999999999998" y="379.99999999999994" type="curve"/>
      <point x="53.400001525878906" y="380" type="line"/>
    </contour>
    <contour>
      <point x="333.4" y="120.0" type="line"/>
      <point x="267.17019999999997" y="120.0"/>
      <point x="213.4" y="66.2298"/>
      <point x="213.4" y="0.0" type="curve"/>
      <point x="333.4" y="0.0" type="line"/>
    </contour>
  </outline>
</glyph>
<glyph name="l_with_stroke" format="2">
  <advance width="226.8"/>
  <unicode hex="0142"/>
  <outline>
    <contour>
      <point x="53.400001525878906" y="145.59119965185928" type="line"/>
      <point x="53.40000152587891" y="10.414728091147737"/>
      <point x="136.09271397641564" y="-4.999999999999996"/>
      <point x="173.4" y="-5.0" type="curve"/>
      <point x="173.4000015258789" y="488.76734161376953" type="line"/>
      <point x="217.36055575305375" y="506.5526847643875"/>
      <point x="248.4" y="549.6801212454001"/>
      <point x="248.39999999999995" y="600.0000000000001" type="curve"/>
      <point x="173.4000015258789" y="600" type="line"/>
      <point x="173.4000015258789" y="800" type="line"/>
      <point x="53.400001525878906" y="800" type="line"/>
      <point x="53.400001525878906" y="491.23265838623047" type="line"/>
      <point x="9.439444246946273" y="473.44731523561256"/>
      <point x="-21.6" y="430.31987875460004"/>
      <point x="-21.59999999999998" y="379.99999999999994" type="curve"/>
      <point x="53.400001525878906" y="380" type="line"/>
    </contour>
  </outline>
</glyph>
<glyph name="N_with_acute" format="2">
  <advance width="356.8"/>
  <unicode hex="0143"/>
  <outline>
    <contour>
      <point x="170.9" y="844.4444444444445" type="line"/>
      <point x="237.1298" y="844.4444444444445"/>
      <point x="290.9" y="898.2146444444445"/>
      <point x="290.9" y="964.4444444444445" type="curve"/>
      <point x="170.9" y="964.4444444444445" type="line"/>
    </contour>
    <contour>
      <point x="38.400001525878906" y="0" type="line"/>
      <point x="158.4000015258789" y="0" type="line"/>
      <point x="158.4000015258789" y="800" type="line"/>
      <point x="38.400001525878906" y="800" type="line"/>
    </contour>
    <contour>
      <point x="198.4000015258789" y="0" type="line"/>
      <point x="318.4000015258789" y="0" type="line"/>
      <point x="318.4000015258789" y="649.4088000246977" type="line"/>
      <point x="318.4000015258789" y="784.5852715854093"/>
      <point x="235.70728602358437" y="800.0"/>
      <point x="198.4" y="800.0" type="curve"/>
    </contour>
  </outline>
</glyph>
<glyph name="n_with_acute" format="2">
  <advance width="356.8"/>
  <unicode hex="0144"/>
  <outline>
    <contour>
      <point x="170.9" y="644.4444444444445" type="line"/>
      <point x="237.1298" y="644.4444444444445"/>
      <point x="290.9" y="698.2146444444445"/>
      <point x="290.9" y="764.4444444444445" type="curve"/>
      <point x="170.9" y="764.4444444444445" type="line"/>
    </contour>
    <contour>
      <point x="38.400001525878906" y="0" type="line"/>
      <point x="158.4000015258789" y="0" type="line"/>
      <point x="158.4000015258789" y="600" type="line"/>
      <point x="38.400001525878906" y="600" type="line"/>
    </contour>
    <contour>
      <point x="198.4000015258789" y="0" type="line"/>
      <point x="318.4000015258789" y="0" type="line"/>
      <point x="318.4000015258789" y="449.40880002469777" type="line"/>
      <point x="318.4000015258789" y="584.5852715854094"/>
      <point x="235.70728602358437" y="600.0"/>
      <point x="198.4" y="600.0" type="curve"/>
    </contour>
  </outline>
</glyph>
<glyph name="N_with_cedilla" format="2">
  <advance width="356.8"/>
  <unicode hex="0145"/>
  <outline>
    <contour>
      <point x="38.400001525878906" y="0" type="line"/>
      <point x="158.4000015258789" y="0" type="line"/>
      <point x="158.4000015258789" y="800" type="line"/>
      <point x="38.400001525878906" y="800" type="line"/>
    </contour>
    <contour>
      <point x="198.4000015258789" y="0" type="line"/>
      <point x="318.4000015258789" y="0" type="line"/>
      <point x="318.4000015258789" y="649.4088000246977" type="line"/>
      <point x="318.4000015258789" y="784.5852715854093"/>
      <point x="235.70728602358437" y="800.0"/>
      <point x="198.4" y="800.0" type="curve"/>
    </contour>
    <contour>
      <point x="290.9" y="-145.0" type="line"/>
      <point x="290.9" y="-78.77019999999999"/>
      <point x="237.1298" y="-25.0"/>
      <point x="170.9" y="-25.0" type="curve"/>
      <point x="170.9" y="-145.0" type="line"/>
    </contour>
  </outline>
</glyph>
<glyph name="n_with_cedilla" format="2">
  <advance width="356.8"/>
  <unicode hex="0146"/>
  <outline>
    <contour>
      <point x="38.400001525878906" y="0" type="line"/>
      <point x="158.4000015258789" y="0" type="line"/>
      <point x="158.4000015258789" y="600" type="line"/>
      <point x="38.400001525878906" y="600" type="line"/>
    </contour>
    <contour>
      <point x="198.4000015258789" y="0" type="line"/>
      <point x="318.4000015258789" y="0" type="line"/>
      <point x="318.4000015258789" y="449.40880002469777" type="line"/>
      <point x="318.4000015258789" y="584.5852715854094"/>
      <point x="235.70728602358437" y="600.0"/>
      <point x="198.4" y="600.0" type="curve"/>
    </contour>
    <contour>
      <point x="290.9" y="-145.0" type="line"/>
      <point x="290.9" y="-78.77019999999999"/>
      <point x="237.1298" y="-25.0"/>
      <point x="170.9" y="-25.0" type="curve"/>
      <point x="170.9" y="-145.0" type="line"/>
    </contour>
  </outline>
</glyph>
<glyph name="n_with_caron" format="2">
  <advance width="356.8"/>
  <unicode hex="0148"/>
  <outline>
    <contour>
      <point x="174.65" y="644.4444444444445" type="line"/>
      <point x="174.65" y="710.6742444444444"/>
      <point x="120.8798" y="764.4444444444445"/>
      <point x="54.650000000000006" y="764.4444444444445" type="curve"/>
      <point x="54.650000000000006" y="644.4444444444445" type="line"/>
    </contour>
    <contour>
      <point x="302.15" y="764.4444444444445" type="line"/>
      <point x="235.9202" y="764.4444444444445"/>
      <point x="182.15" y="710.6742444444444"/>
      <point x="182.15" y="644.4444444444445" type="curve"/>
      <point x="302.15" y="644.4444444444445" type="line"/>
    </contour>
    <contour>
      <point x="38.400001525878906" y="0" type="line"/>
      <point x="158.4000015258789" y="0" type="line"/>
      <point x="158.4000015258789" y="600" type="line"/>
      <point x="38.400001525878906" y="600" type="line"/>
    </contour>
    <contour>
      <point x="198.4000015258789" y="0" type="line"/>
      <point x="318.4000015258789" y="0" type="line"/>
      <point x="318.4000015258789" y="449.40880002469777" type="line"/>
      <point x="318.4000015258789" y="584.5852715854094"/>
      <point x="235.70728602358437" y="600.0"/>
      <point x="198.4" y="600.0" type="curve"/>
    </contour>
  </outline>
</glyph>
<glyph name="ENG" format="2">
  <advance width="356.8"/>
  <unicode hex="014A"/>
  <outline>
    <contour>
      <point x="38.400001525878906" y="0" type="line"/>
      <point x="158.4000015258789" y="0" type="line"/>
      <point x="158.4000015258789" y="800" type="line"/>
      <point x="38.400001525878906" y="800" type="line"/>
    </contour>
    <contour>
      <point x="198.4000015258789" y="-200" type="line"/>
      <point x="234.52092510073152" y="-200.0"/>
      <point x="318.399999788081" y="-185.55124771534278"/>
      <point x="318.400000061419" y="-49.40880072949327" type="curve"/>
      <point x="318.4000014644599" y="649.4088000246977" type="line"/>
      <point x="318.40000173585844" y="784.5852715854093"/>
      <point x="235.70728602358437" y="800.0"/>
      <point x="198.4" y="800.0" type="curve"/>
    </contour>
  </outline>
</glyph>
<glyph name="eng" format="2">
  <advance width="356.8"/>
  <unicode hex="014B"/>
  <outline>
    <contour>
      <point x="38.400001525878906" y="0" type="line"/>
      <point x="158.4000015258789" y="0" type="line"/>
      <point x="158.4000015258789" y="600" type="line"/>
      <point x="38.400001525878906" y="600" type="line"/>
    </contour>
    <contour>
      <point x="198.4000015258789" y="-200" type="line"/>
      <point x="234.52092510073152" y="-200.0"/>
      <point x="318.39999971239564" y="-185.55124771534278"/>
      <point x="318.40000008335437" y="-49.40880072949327" type="curve"/>
      <point x="318.4000014425245" y="449.40880002469777" type="line"/>
      <point x="318.40000181085117" y="584.5852715854094"/>
      <point x="235.70728602358437" y="600.0"/>
      <point x="198.4" y="600.0" type="curve"/>
    </contour>
  </outline>
</glyph>
<glyph name="O_with_breve" format="2">
  <advance width="356.8"/>
  <unicode hex="014E"/>
  <outline>
    <contour>
      <point x="58.400001525878906" y="964.4444427490234" type="line"/>
      <point x="58.400000000000006" y="898.2146444444445"/>
      <point x="112.17020000000001" y="844.4444444444445"/>
      <point x="178.4" y="844.4444444444445" type="curve"/>
      <point x="244.62980000000002" y="844.4444444444445"/>
      <point x="298.4" y="898.2146444444445"/>
      <point x="298.4" y="964.4444444444445" type="curve"/>
    </contour>
    <contour>
      <point x="38.40000144398686" y="145.59119965185928" type="line"/>
      <point x="38.40000180585164" y="10.414728091147737"/>
      <point x="121.09271397641564" y="-4.999999999999996"/>
      <point x="158.4" y="-5.0" type="curve"/>
      <point x="158.4000015258789" y="805" type="line"/>
      <point x="122.2790779510263" y="805.0"/>
      <point x="38.39999971744136" y="790.5512463057519"/>
      <point x="38.400000081892046" y="654.4087993199023" type="curve"/>
    </contour>
    <contour>
      <point x="198.4000015258789" y="-5" type="line"/>
      <point x="234.52092510073152" y="-5.0"/>
      <point x="318.39999971744135" y="9.44875228465719"/>
      <point x="318.400000081892" y="145.5911992705067" type="curve"/>
      <point x="318.40000144398687" y="654.4088000246977" type="line"/>
      <point x="318.4000018058516" y="789.5852715854093"/>
      <point x="235.70728602358437" y="805.0"/>
      <point x="198.4" y="805.0" type="curve"/>
    </contour>
  </outline>
</glyph>
<glyph name="oe" format="2">
  <advance width="676.8"/>
  <unicode hex="0153"/>
  <outline>
    <contour>
      <point x="38.40000139972089" y="145.59119965185928" type="line"/>
      <point x="38.40000195718825" y="10.414728091147737"/>
      <point x="121.09271397641564" y="-4.999999999999996"/>
      <point x="158.4" y="-5.0" type="curve"/>
      <point x="158.4000015258789" y="605" type="line"/>
      <point x="122.2790779510263" y="605.0"/>
      <point x="38.39999956470697" y="590.5512463057519"/>
      <point x="38.40000012615802" y="454.4087993199023" type="curve"/>
    </contour>
    <contour>
      <point x="198.4000015258789" y="-5" type="line"/>
      <point x="234.52092510073152" y="-5.0"/>
      <point x="318.39999956470695" y="9.44875228465719"/>
      <point x="318.400000126158" y="145.5911992705067" type="curve"/>
      <point x="318.4000013997209" y="454.40880002469777" type="line"/>
      <point x="318.4000019571883" y="589.5852715854094"/>
      <point x="235.70728602358437" y="605.0"/>
      <point x="198.4" y="605.0" type="curve"/>
    </contour>
    <contour>
      <point x="358.4000013997209" y="145.5911996518593" type="line"/>
      <point x="358.4000019571883" y="10.414728091147765"/>
      <point x="441.0927139764156" y="-4.999999999999996"/>
      <point x="478.4" y="-5.0" type="curve"/>
      <point x="478.4000015258789" y="605" type="line"/>
      <point x="442.2790779510263" y="605.0"/>
      <point x="358.39999956470695" y="590.5512463057519"/>
      <point x="358.400000126158" y="454.4087993199023" type="curve"/>
    </contour>
    <contour>
      <point x="518.4000015258789" y="195" type="line"/>
      <point x="638.4000015258789" y="195" type="line"/>
      <point x="638.4000015258789" y="454.40880002469777" type="line"/>
      <point x="638.4000015258789" y="589.5852715854094"/>
      <point x="555.7072860235843" y="605.0"/>
      <point x="518.4" y="605.0" type="curve"/>
    </contour>
  </outline>
</glyph>
<glyph name="R_with_caron" format="2">
  <advance width="356.8"/>
  <unicode hex="0158"/>
  <outline>
    <contour>
      <point x="174.65" y="844.4444444444445" type="line"/>
      <point x="174.65" y="910.6742444444444"/>
      <point x="120.8798" y="964.4444444444445"/>
      <point x="54.650000000000006" y="964.4444444444445" type="curve"/>
      <point x="54.650000000000006" y="844.4444444444445" type="line"/>
    </contour>
    <contour>
      <point x="302.15" y="964.4444444444445" type="line"/>
      <point x="235.9202" y="964.4444444444445"/>
      <point x="182.15" y="910.6742444444444"/>
      <point x="182.15" y="844.4444444444445" type="curve"/>
      <point x="302.15" y="844.4444444444445" type="line"/>
    </contour>
    <contour>
      <point x="38.400001525878906" y="0" type="line"/>
      <point x="158.4000015258789" y="0" type="line"/>
      <point x="158.4000015258789" y="800" type="line"/>
      <point x="38.400001525878906" y="800" type="line"/>
    </contour>
    <contour>
      <point x="198.4000015258789" y="200" type="line"/>
      <point x="234.52092510073152" y="200.0"/>
      <point x="318.3999995526155" y="214.4487522846572"/>
      <point x="318.4000001296624" y="350.5911992705067" type="curve"/>
      <point x="318.4000013962165" y="649.4088000246977" type="line"/>
      <point x="318.4000019691691" y="784.5852715854093"/>
      <point x="235.70728602358437" y="800.0"/>
      <point x="198.4" y="800.0" type="curve"/>
    </contour>
    <contour>
      <point x="198.4000015258789" y="0" type="line"/>
      <point x="318.4000015258789" y="0" type="line"/>
      <point x="318.4000015258789" y="49.408800024697705" type="line"/>
      <point x="318.4000015258789" y="184.58527158540926"/>
      <point x="235.70728602358437" y="200.0"/>
      <point x="198.4" y="200.0" type="curve"/>
    </contour>
  </outline>
</glyph>
<glyph name="s_with_acute" format="2">
  <advance width="356.8"/>
  <unicode hex="015B"/>
  <outline>
    <contour>
      <point x="170.9" y="644.4444444444445" type="line"/>
      <point x="237.1298" y="644.4444444444445"/>
      <point x="290.9" y="698.2146444444445"/>
      <point x="290.9" y="764.4444444444445" type="curve"/>
      <point x="170.9" y="764.4444444444445" type="line"/>
    </contour>
    <contour>
      <point x="38.40000113689169" y="390.59119965185926" type="line"/>
      <point x="38.4000028557494" y="255.41472809114774"/>
      <point x="121.09271397641564" y="240.0"/>
      <point x="158.4" y="240.0" type="curve"/>
      <point x="158.4000015258789" y="600" type="line"/>
      <point x="122.2790779510263" y="600.0"/>
      <point x="38.399998657846496" y="585.5512463057518"/>
      <point x="38.40000038898723" y="449.4087993199023" type="curve"/>
    </contour>
    <contour>
      <point x="194.65" y="600.0" type="line"/>
      <point x="194.65" y="533.7702"/>
      <point x="248.4202" y="480.0"/>
      <point x="314.65" y="480.0" type="curve"/>
      <point x="314.65" y="600.0" type="line"/>
    </contour>
    <contour>
      <point x="198.4000015258789" y="-5" type="line"/>
      <point x="234.52092510073152" y="-5.0"/>
      <point x="318.39999865784637" y="9.448752284657218"/>
      <point x="318.4000003889872" y="145.5911992705067" type="curve"/>
      <point x="318.40000113689166" y="204.4088000246977" type="line"/>
      <point x="318.4000028557494" y="339.58527158540926"/>
      <point x="235.70728602358437" y="355.0"/>
      <point x="198.4" y="355.0" type="curve"/>
    </contour>
    <contour>
      <point x="160.275" y="0" type="line"/>
      <point x="160.275" y="66.2298"/>
      <point x="106.50479999999999" y="120.0"/>
      <point x="40.275" y="120.0" type="curve"/>
      <point x="40.275" y="0" type="line"/>
    </contour>
  </outline>
</glyph>
<glyph name="t_with_cedilla" format="2">
  <advance width="356.8"/>
  <unicode hex="0163"/>
  <outline>
    <contour>
      <point x="38.400001525878906" y="0" type="line"/>
      <point x="158.4000015258789" y="0" type="line"/>
      <point x="158.4000015258789" y="800" type="line"/>
      <point x="122.2790779510263" y="800.0"/>
      <point x="38.399999763149374" y="785.5512463057519"/>
      <point x="38.40000006864481" y="649.4087993199023" type="curve"/>
    </contour>
    <contour>
      <point x="198.4" y="480.0" type="line"/>
      <point x="264.6298" y="480.0"/>
      <point x="318.4" y="533.7702"/>
      <point x="318.4" y="600.0" type="curve"/>
      <point x="198.4" y="600.0" type="line"/>
    </contour>
    <contour>
      <point x="220.9" y="-145.0" type="line"/>
      <point x="220.9" y="-78.77019999999999"/>
      <point x="167.1298" y="-25.0"/>
      <point x="100.9" y="-25.0" type="curve"/>
      <point x="100.9" y="-145.0" type="line"/>
    </contour>
  </outline>
</glyph>
<glyph name="U_with_smalltilde" format="2">
  <advance width="356.8"/>
  <unicode hex="0168"/>
  <outline>
    <contour>
      <point x="147.80880281149217" y="844.4444431812315" type="line"/>
      <point x="282.98527437220366" y="844.4444412713896"/>
      <point x="298.4" y="927.1371584208601"/>
      <point x="298.4" y="964.4444444444445" type="curve"/>
      <point x="208.99120142287052" y="964.4444431812315" type="line"/>
      <point x="73.814729862159" y="964.4444412713895"/>
      <point x="58.400000000000006" y="881.7517304680288"/>
      <point x="58.400000000000006" y="844.4444444444445" type="curve"/>
    </contour>
    <contour>
      <point x="38.400001525878906" y="145.59119965185928" type="line"/>
      <point x="38.40000152587891" y="10.414728091147737"/>
      <point x="121.09271397641564" y="-4.999999999999996"/>
      <point x="158.4" y="-5.0" type="curve"/>
      <point x="158.4000015258789" y="800" type="line"/>
      <point x="38.400001525878906" y="800" type="line"/>
    </contour>
    <contour>
      <point x="198.4000015258789" y="-5" type="line"/>
      <point x="234.52092510073152" y="-5.0"/>
      <point x="318.3999997648782" y="9.44875228465719"/>
      <point x="318.4000000681437" y="145.5911992705067" type="curve"/>
      <point x="318.4000015258789" y="800" type="line"/>
      <point x="198.4000015258789" y="800" type="line"/>
    </contour>
  </outline>
</glyph>
<glyph name="u_with_smalltilde" format="2">
  <advance width="356.8"/>
  <unicode hex="0169"/>
  <outline>
    <contour>
      <point x="147.80880281149217" y="644.4444431812315" type="line"/>
      <point x="282.98527437220366" y="644.4444412713896"/>
      <point x="298.4" y="727.1371584208601"/>
      <point x="298.4" y="764.4444444444445" type="curve"/>
      <point x="208.99120142287052" y="764.4444431812315" type="line"/>
      <point x="73.814729862159" y="764.4444412713895"/>
      <point x="58.400000000000006" y="681.7517304680288"/>
      <point x="58.400000000000006" y="644.4444444444445" type="curve"/>
    </contour>
    <contour>
      <point x="38.400001525878906" y="145.59119965185928" type="line"/>
      <point x="38.40000152587891" y="10.414728091147737"/>
      <point x="121.09271397641564" y="-4.999999999999996"/>
      <point x="158.4" y="-5.0" type="curve"/>
      <point x="158.4000015258789" y="600" type="line"/>
      <point x="38.400001525878906" y="600" type="line"/>
    </contour>
    <contour>
      <point x="198.4000015258789" y="-5" type="line"/>
      <point x="234.52092510073152" y="-5.0"/>
      <point x="318.3999996679207" y="9.44875228465719"/>
      <point x="318.40000009624424" y="145.5911992705067" type="curve"/>
      <point x="318.4000015258789" y="600" type="line"/>
      <point x="198.4000015258789" y="600" type="line"/>
    </contour>
  </outline>
</glyph>
<glyph name="U_with_macron" format="2">
  <advance width="356.8"/>
  <unicode hex="016A"/>
  <outline>
    <contour>
      <point x="58.400001525878906" y="844.4444427490234" type="line"/>
      <point x="298.4000015258789" y="844.4444427490234" type="line"/>
      <point x="298.4000015258789" y="964.4444427490234" type="line"/>
      <point x="58.400001525878906" y="964.4444427490234" type="line"/>
    </contour>
    <contour>
      <point x="38.400001525878906" y="145.59119965185928" type="line"/>
      <point x="38.40000152587891" y="10.414728091147737"/>
      <point x="121.09271397641564" y="-4.999999999999996"/>
      <point x="158.4" y="-5.0" type="curve"/>
      <point x="158.4000015258789" y="800" type="line"/>
      <point x="38.400001525878906" y="800" type="line"/>
    </contour>
    <contour>
      <point x="198.4000015258789" y="-5" type="line"/>
      <point x="234.52092510073152" y="-5.0"/>
      <point x="318.3999997648782" y="9.44875228465719"/>
      <point x="318.4000000681437" y="145.5911992705067" type="curve"/>
      <point x="318.4000015258789" y="800" type="line"/>
      <point x="198.4000015258789" y="800" type="line"/>
    </contour>
  </outline>
</glyph>
<glyph name="u_with_macron" format="2">
  <advance width="356.8"/>
  <unicode hex="016B"/>
  <outline>
    <contour>
      <point x="58.400001525878906" y="644.4444427490234" type="line"/>
      <point x="298.4000015258789" y="644.4444427490234" type="line"/>
      <point x="298.4000015258789" y="764.4444427490234" type="line"/>
      <point x="58.400001525878906" y="764.4444427490234" type="line"/>
    </contour>
    <contour>
      <point x="38.400001525878906" y="145.59119965185928" type="line"/>
      <point x="38.40000152587891" y="10.414728091147737"/>
      <point x="121.09271397641564" y="-4.999999999999996"/>
      <point x="158.4" y="-5.0" type="curve"/>
      <point x="158.4000015258789" y="600" type="line"/>
      <point x="38.400001525878906" y="600" type="line"/>
    </contour>
    <contour>
      <point x="198.4000015258789" y="-5" type="line"/>
      <point x="234.52092510073152" y="-5.0"/>
      <point x="318.3999996679207" y="9.44875228465719"/>
      <point x="318.40000009624424" y="145.5911992705067" type="curve"/>
      <point x="318.4000015258789" y="600" type="line"/>
      <point x="198.4000015258789" y="600" type="line"/>
    </contour>
  </outline>
</glyph>
<glyph name="U_with_ring" format="2">
  <advance width="356.8"/>
  <unicode hex="016E"/>
  <outline>
    <contour>
      <point x="158.4" y="969.4444444444445" type="line"/>
      <point x="122.52552" y="969.4444444444445"/>
      <point x="93.4" y="940.3189244444445"/>
      <point x="93.4" y="904.4444444444445" type="curve" smooth="yes"/>
      <point x="93.4" y="868.5699644444445"/>
      <point x="122.52552" y="839.4444444444445"/>
      <point x="158.4" y="839.4444444444445" type="curve"/>
    </contour>
    <contour>
      <point x="198.4" y="839.4444444444445" type="line"/>
      <point x="234.27448" y="839.4444444444445"/>
      <point x="263.4" y="868.5699644444445"/>
      <point x="263.4" y="904.4444444444445" type="curve" smooth="yes"/>
      <point x="263.4" y="940.3189244444445"/>
      <point x="234.27448" y="969.4444444444445"/>
      <point x="198.4" y="969.4444444444445" type="curve"/>
    </contour>
    <contour>
      <point x="38.400001525878906" y="145.59119965185928" type="line"/>
      <point x="38.40000152587891" y="10.414728091147737"/>
      <point x="121.09271397641564" y="-4.999999999999996"/>
      <point x="158.4" y="-5.0" type="curve"/>
      <point x="158.4000015258789" y="800" type="line"/>
      <point x="38.400001525878906" y="800" type="line"/>
    </contour>
    <contour>
      <point x="198.4000015258789" y="-5" type="line"/>
      <point x="234.52092510073152" y="-5.0"/>
      <point x="318.3999997648782" y="9.44875228465719"/>
      <point x="318.4000000681437" y="145.5911992705067" type="curve"/>
      <point x="318.4000015258789" y="800" type="line"/>
      <point x="198.4000015258789" y="800" type="line"/>
    </contour>
  </outline>
</glyph>
<glyph name="u_with_ring" format="2">
  <advance width="356.8"/>
  <unicode hex="016F"/>
  <outline>
    <contour>
      <point x="158.4" y="769.4444444444445" type="line"/>
      <point x="122.52552" y="769.4444444444445"/>
      <point x="93.4" y="740.3189244444445"/>
      <point x="93.4" y="704.4444444444445" type="curve" smooth="yes"/>
      <point x="93.4" y="668.5699644444445"/>
      <point x="122.52552" y="639.4444444444445"/>
      <point x="158.4" y="639.4444444444445" type="curve"/>
    </contour>
    <contour>
      <point x="198.4" y="639.4444444444445" type="line"/>
      <point x="234.27448" y="639.4444444444445"/>
      <point x="263.4" y="668.5699644444445"/>
      <point x="263.4" y="704.4444444444445" type="curve" smooth="yes"/>
      <point x="263.4" y="740.3189244444445"/>
      <point x="234.27448" y="769.4444444444445"/>
      <point x="198.4" y="769.4444444444445" type="curve"/>
    </contour>
    <contour>
      <point x="38.400001525878906" y="145.59119965185928" type="line"/>
      <point x="38.40000152587891" y="10.414728091147737"/>
      <point x="121.09271397641564" y="-4.999999999999996"/>
      <point x="158.4" y="-5.0" type="curve"/>
      <point x="158.4000015258789" y="600" type="line"/>
      <point x="38.400001525878906" y="600" type="line"/>
    </contour>
    <contour>
      <point x="198.4000015258789" y="-5" type="line"/>
      <point x="234.52092510073152" y="-5.0"/>
      <point x="318.3999996679207" y="9.44875228465719"/>
      <point x="318.40000009624424" y="145.5911992705067" type="curve"/>
      <point x="318.4000015258789" y="600" type="line"/>
      <point x="198.4000015258789" y="600" type="line"/>
    </contour>
  </outline>
</glyph>
<glyph name="u_with_ogonek" format="2">
  <advance width="356.8"/>
  <unicode hex="0173"/>
  <outline>
    <contour>
      <point x="38.400001525878906" y="145.59119965185928" type="line"/>
      <point x="38.40000152587891" y="10.414728091147737"/>
      <point x="121.09271397641564" y="-4.999999999999996"/>
      <point x="158.4" y="-5.0" type="curve"/>
      <point x="158.4000015258789" y="600" type="line"/>
      <point x="38.400001525878906" y="600" type="line"/>
    </contour>
    <contour>
      <point x="198.4000015258789" y="-5" type="line"/>
      <point x="234.52092510073152" y="-5.0"/>
      <point x="318.3999996679207" y="9.44875228465719"/>
      <point x="318.40000009624424" y="145.5911992705067" type="curve"/>
      <point x="318.4000015258789" y="600" type="line"/>
      <point x="198.4000015258789" y="600" type="line"/>
    </contour>
    <contour>
      <point x="178.39999999999998" y="-30.0" type="line"/>
      <point x="112.17019999999998" y="-30.0"/>
      <point x="58.39999999999998" y="-83.77019999999999"/>
      <point x="58.39999999999998" y="-150.0" type="curve"/>
      <point x="178.39999999999998" y="-150.0" type="line"/>
    </contour>
  </outline>
</glyph>
<glyph name="y_with_circumflex" format="2">
  <advance width="356.8"/>
  <unicode hex="0177"/>
  <outline>
    <contour>
      <point x="54.650000000000006" y="644.4444444444445" type="line"/>
      <point x="120.8798" y="644.4444444444445"/>
      <point x="174.65" y="698.2146444444445"/>
      <point x="174.65" y="764.4444444444445" type="curve"/>
      <point x="54.650000000000006" y="764.4444444444445" type="line"/>
    </contour>
    <contour>
      <point x="182.15" y="764.4444444444445" type="line"/>
      <point x="182.15" y="698.2146444444445"/>
      <point x="235.9202" y="644.4444444444445"/>
      <point x="302.15" y="644.4444444444445" type="curve"/>
      <point x="302.15" y="764.4444444444445" type="line"/>
    </contour>
    <contour>
      <point x="38.40000142963465" y="150.59119965185928" type="line"/>
      <point x="38.40000185491903" y="15.414728091147737"/>
      <point x="121.09271397641564" y="4.5688248413657374e-15"/>
      <point x="158.4" y="0.0" type="curve"/>
      <point x="158.40000142963464" y="454.40880002469777" type="line"/>
      <point x="158.40000185491903" y="589.5852715854094"/>
      <point x="75.70728602358436" y="605.0"/>
      <point x="38.4" y="605.0" type="curve"/>
    </contour>
    <contour>
      <point x="198.4000015258789" y="-210" type="line"/>
      <point x="234.52092510073152" y="-210.0"/>
      <point x="318.39999976658197" y="-195.55124771534278"/>
      <point x="318.40000006764996" y="-59.40880072949327" type="curve"/>
      <point x="318.4000015258789" y="600" type="line"/>
      <point x="198.4000015258789" y="600" type="line"/>
    </contour>
    <contour>
      <point x="162.15" y="-150.0" type="curve" smooth="yes"/>
      <point x="162.15" y="-116.8851"/>
      <point x="135.2649" y="-90.0"/>
      <point x="102.15" y="-90.0" type="curve" smooth="yes"/>
      <point x="69.0351" y="-90.0"/>
      <point x="42.15" y="-116.8851"/>
      <point x="42.15" y="-150.0" type="curve" smooth="yes"/>
      <point x="42.15" y="-183.1149"/>
      <point x="69.0351" y="-210.0"/>
      <point x="102.15" y="-210.0" type="curve" smooth="yes"/>
      <point x="135.2649" y="-210.0"/>
      <point x="162.15" y="-183.1149"/>
    </contour>
  </outline>
</glyph>
